<?xml version="1.0" encoding="UTF-8"?><svg id="Layer_2" xmlns="http://www.w3.org/2000/svg" xmlns:xlink="http://www.w3.org/1999/xlink" viewBox="0 0 80.14 122.34"><defs><clipPath id="clippath"><path d="m6.63,0C2.98,0,0,2.97,0,6.63v109.07c0,3.66,2.98,6.63,6.63,6.63h66.87c3.66,0,6.63-2.98,6.63-6.63V6.63c0-3.66-2.98-6.63-6.63-6.63H6.63Z" style="fill:#0c0a35;"/></clipPath><clipPath id="clippath-1"><path d="m6.63,0C2.98,0,0,2.97,0,6.63v109.07c0,3.66,2.98,6.63,6.63,6.63h66.87c3.66,0,6.63-2.98,6.63-6.63V6.63c0-3.66-2.98-6.63-6.63-6.63H6.63Z" style="fill:none;"/></clipPath></defs><g id="Layer_1-2"><g><g><path d="m6.63,0C2.98,0,0,2.97,0,6.63v109.07c0,3.66,2.98,6.63,6.63,6.63h66.87c3.66,0,6.63-2.98,6.63-6.63V6.63c0-3.66-2.98-6.63-6.63-6.63H6.63Z" style="fill:#0c0a35;"/><g style="clip-path:url(#clippath);"><path d="m-33.17,58.76c.06-3.18,6-6.58,8.16-8.19,3.9-2.9,7.95-5.61,11.91-8.42C-1.6,34,9.89,25.92,21.66,18.15,32.69,10.86,43.5,3.24,54.79-3.66c5.38-3.29,10.91-6.32,16.57-9.09,2.16-1.06,10.11-4.37,6.1-7.86-3.42-2.98-10.75,2.26-13.87,3.88-6.08,3.15-11.94,6.72-17.71,10.4C34.74.79,24.13,8.68,13.23,16.15,1.71,24.06-9.33,32.59-20.2,41.35c-5.19,4.17-13.23,8.82-15.41,15.46-.25.75-.18,1.54,0,2.29.32,1.41,2.43,1.05,2.46-.33h0Z" style="fill:#f70032;"/><path d="m-20.06,72.85c4.93-2.62,9.81-4.87,14.55-7.89,5.16-3.29,10.21-6.75,15.25-10.23,9.63-6.66,18.94-13.8,28.43-20.65,9.7-7,19.31-14.14,29-21.15,9.8-7.08,19.85-13.99,28.93-21.98,1.27-1.12-.34-2.74-1.67-2.16C83.52-6.42,73.52.37,63.8,7.2c-9.8,6.88-19.43,13.97-28.98,21.19-9.11,6.89-18.3,13.73-27.16,20.94-4.6,3.74-9.24,7.43-13.95,11.02-4.83,3.68-9.55,7.77-14.53,11.21-.79.55-.11,1.75.76,1.29h0Z" style="fill:#f70032;"/><path d="m-6.29,98.21c20.44-17.19,42.87-31.77,63.67-48.51,10.26-8.26,19.67-17.45,29.67-26,4.95-4.23,10.11-8.21,15.47-11.92,5.27-3.65,10.84-6.63,15.41-11.13.98-.96-.06-2.25-1.22-2.09-11.89,1.66-22.71,11.26-31.87,18.52-10.72,8.51-20.58,18.02-31.33,26.51C32.16,60.44,9.5,75.61-11.18,93.32c-3.4,2.91,1.51,7.74,4.89,4.89h0Z" style="fill:#f70032;"/><path d="m-11.25,131.1c3.93-4.26,9.66-6.55,14.23-10.06,5.84-4.49,11.84-8.77,17.78-13.13,11.27-8.26,22.71-16.26,33.73-24.86,11.37-8.87,22.67-17.82,34.31-26.34,5.43-3.97,10.24-8.68,15.27-13.12,5.19-4.58,10.77-8.61,15.76-13.41.62-.6-.01-1.89-.89-1.53-6.11,2.5-11.2,6.32-16.49,10.23-5.59,4.14-11.56,7.7-17.24,11.69-11.86,8.33-23.34,17.12-34.69,26.13-11.78,9.36-24.13,18-36.04,27.19-5.63,4.34-10.94,9.06-16.2,13.84-4.05,3.68-8.84,6.96-12.02,11.46-1.05,1.48,1.28,3.23,2.49,1.92h0Z" style="fill:#f70032;"/><path d="m24.62,130.9c2.9-2.58,7.42-3.86,10.87-5.66,4.41-2.31,8.44-5.53,12.55-8.33,7.41-5.04,14.96-10.02,21.88-15.73,6.46-5.33,12.45-11.22,18.77-16.73,3.59-3.13,7.47-5.87,11.45-8.46,3.36-2.19,7.25-3.76,10.21-6.48.6-.55.17-1.81-.71-1.71-7.65.88-15.13,7.17-21.27,11.43-7.28,5.06-14.44,10.25-21.64,15.41-7.91,5.68-15.91,11.23-23.77,16.97-7.18,5.24-14.84,10.2-20.75,16.87-1.46,1.65.77,3.89,2.42,2.42h0Z" style="fill:#f70032;"/><path d="m64.05,131.81c7.55-5.94,15.45-11.83,22.2-18.69,1.37-1.4-.37-3.62-2.07-2.68-8.43,4.67-15.95,11.07-23.76,16.66-3.53,2.52.22,7.4,3.64,4.71h0Z" style="fill:#f70032;"/><path d="m-18.46,21.93C-7.28,16.76,2.39,8.78,12.43,1.75c5.07-3.54,10.03-7.22,14.92-11.01,4.42-3.43,9.83-7.88,12.07-13.1.43-1-.28-2.45-1.55-2.02-5.03,1.71-9.17,5.64-13.45,8.7-5.22,3.72-10.28,7.66-15.54,11.33C-1.25,2.72-10.06,11.89-20.65,18.19c-2.44,1.45-.31,4.89,2.19,3.74h0Z" style="fill:#f70032;"/></g></g><g style="clip-path:url(#clippath-1);"><g><path d="m1.21,46.67c2.84,0,5.2-2.37,5.2-5.2s-2.37-5.2-5.2-5.2-5.2,2.37-5.2,5.2,2.37,5.2,5.2,5.2h0Z" style="fill:#222272;"/><path d="m16.25,26.74c-.46.2-.94.38-1.39.59-.78.46-1.41,1.09-1.87,1.87-.71,1.2-.9,2.67-.53,4.02.62,2.25,2.71,3.81,5.03,3.83.48,0,.96-.06,1.43-.19,1.08-.3,1.54-.73,2.4-1.42.65-.65,1.09-1.42,1.34-2.3.37-1.34.18-2.81-.52-4.01-.46-.78-1.09-1.41-1.87-1.87-.42-.17-.83-.35-1.24-.53-.92-.25-1.85-.25-2.77,0h0Z" style="fill:#222272;"/><path d="m33.63,25.54c2.83,0,5.19-2.36,5.19-5.19s-2.36-5.19-5.19-5.19-5.19,2.36-5.19,5.19,2.36,5.19,5.19,5.19h0Z" style="fill:#222272;"/><path d="m48.45,14.45c2.76,0,5.06-2.3,5.06-5.06s-2.3-5.06-5.06-5.06-5.06,2.3-5.06,5.06,2.3,5.06,5.06,5.06h0Z" style="fill:#222272;"/><path d="m59.86,4.72c2.78,0,5.1-2.32,5.1-5.1s-2.32-5.1-5.1-5.1-5.1,2.32-5.1,5.1,2.32,5.1,5.1,5.1h0Z" style="fill:#222272;"/><path d="m12.74,14.09c2.32,0,4.25-1.93,4.25-4.25s-1.93-4.25-4.25-4.25-4.25,1.93-4.25,4.25,1.93,4.25,4.25,4.25h0Z" style="fill:#222272;"/><path d="m23.71,5.56c2.35,0,4.31-1.96,4.31-4.31s-1.96-4.31-4.31-4.31-4.31,1.96-4.31,4.31,1.96,4.31,4.31,4.31h0Z" style="fill:#222272;"/><path d="m-.14,20.33c2.25,0,4.12-1.88,4.12-4.12S2.1,12.08-.14,12.08s-4.12,1.88-4.12,4.12,1.88,4.12,4.12,4.12H-.14Z" style="fill:#222272;"/><path d="m.56,77.43c2.7,0,4.95-2.25,4.95-4.95s-2.25-4.95-4.95-4.95-4.95,2.25-4.95,4.95,2.25,4.95,4.95,4.95h0Z" style="fill:#222272;"/><path d="m15.21,67.08c2.83,0,5.18-2.36,5.18-5.18s-2.36-5.18-5.18-5.18-5.18,2.36-5.18,5.18,2.36,5.18,5.18,5.18h0Z" style="fill:#222272;"/><path d="m34.52,53.85s.03-.05.04-.07c-1.53.88-3.05,1.75-4.58,2.63.02,0,.03,0,.05,0,2.36-.06,4.47-1.57,5.11-3.89.75-2.73-.9-5.82-3.7-6.51-.02,0-.03,0-.05-.01-1.79-.44-3.87-.04-5.16,1.36-.02.02-.04.04-.05.06-.97,1.06-1.56,2.3-1.56,3.76s.56,2.77,1.56,3.76c.99.99,2.35,1.56,3.76,1.56,1.79,0,3.75-.99,4.59-2.63h0Z" style="fill:#222272;"/><path d="m40.61,36.83s-.03.03-.05.04c-.63.64-1.07,1.39-1.32,2.26-.36,1.32-.18,2.76.52,3.94.67,1.14,1.78,2,3.06,2.35,1.41.39,2.66.09,3.94-.52.03-.02.07-.03.1-.05,1.13-.54,1.99-1.84,2.31-3.01.24-.89.24-1.79,0-2.68-.24-.85-.67-1.59-1.29-2.22-.71-.59-1.45-1.25-2.41-1.4-.89-.24-1.77-.24-2.66,0-.85.24-1.58.67-2.21,1.28h0Z" style="fill:#222272;"/><path d="m61.12,26.36s-.04-.04-.06-.06c-1.81-1.94-5.05-1.82-6.87,0-.91.91-1.42,2.15-1.42,3.44,0,1.37.56,2.42,1.42,3.44.02.02.04.04.05.06.8.94,2.24,1.42,3.44,1.42,1.29,0,2.53-.52,3.44-1.42,1.92-1.92,1.81-4.94,0-6.88h0Z" style="fill:#222272;"/><path d="m70.97,23.7c2.71,0,4.98-2.27,4.98-4.98s-2.27-4.98-4.98-4.98-4.98,2.27-4.98,4.98,2.26,4.98,4.98,4.98h0Z" style="fill:#222272;"/><path d="m.07,108.2c2.74,0,5.03-2.29,5.03-5.03s-2.29-5.03-5.03-5.03-5.03,2.29-5.03,5.03,2.29,5.03,5.03,5.03H.07Z" style="fill:#222272;"/><path d="m14.08,98.56c2.82,0,5.17-2.35,5.17-5.17s-2.35-5.17-5.17-5.17-5.17,2.35-5.17,5.17,2.35,5.17,5.17,5.17h0Z" style="fill:#222272;"/><path d="m27.5,87.25c2.56,0,4.71-2.14,4.71-4.71s-2.14-4.7-4.71-4.7-4.71,2.14-4.71,4.7,2.14,4.71,4.71,4.71h0Z" style="fill:#222272;"/><path d="m40.69,77.38c2.68,0,4.91-2.23,4.91-4.91s-2.24-4.91-4.91-4.91-4.91,2.23-4.91,4.91,2.23,4.91,4.91,4.91h0Z" style="fill:#222272;"/><path d="m53.68,68.24c2.82,0,5.17-2.35,5.17-5.17s-2.35-5.17-5.17-5.17-5.17,2.35-5.17,5.17,2.35,5.17,5.17,5.17h0Z" style="fill:#222272;"/><path d="m66.94,58.09c2.73,0,5.01-2.28,5.01-5.01s-2.28-5.01-5.01-5.01-5.01,2.28-5.01,5.01,2.28,5.01,5.01,5.01h0Z" style="fill:#222272;"/><path d="m80.6,47.81c2.61,0,4.79-2.18,4.79-4.79s-2.18-4.79-4.79-4.79-4.79,2.18-4.79,4.79,2.18,4.79,4.79,4.79h0Z" style="fill:#222272;"/><path d="m23.65,123.21s.02-.05.03-.07c-.17.4-.33.8-.5,1.19.01-.03.03-.06.04-.08.62-1.22.87-2.49.5-3.84-.34-1.25-1.18-2.33-2.29-2.98-1.15-.67-2.55-.86-3.84-.5-.4.17-.79.34-1.19.5-.75.44-1.34,1.04-1.79,1.79-.04.04-.07.09-.09.14-1.35,2.36-.57,5.45,1.79,6.84,1.15.68,2.56.86,3.85.5.85-.24,1.58-.66,2.21-1.28.62-.62,1.05-1.36,1.29-2.21h0Z" style="fill:#222272;"/><path d="m31.51,114.86c2.63,0,4.83-2.2,4.83-4.83s-2.2-4.83-4.83-4.83-4.83,2.2-4.83,4.83,2.2,4.83,4.83,4.83h0Z" style="fill:#222272;"/><path d="m50.1,97.16s-.02-.03-.03-.04c.15.35.3.7.45,1.05-.31-.83-.5-1.32-1.13-1.96-.82-.82-1.96-1.27-3.12-1.28-2.47,0-4.54,2.01-4.54,4.5,0,2.93,2.87,5.11,5.7,4.34,1.12-.31,2.1-1.06,2.69-2.07.77-1.32.88-3.23,0-4.54h0Z" style="fill:#222272;"/><path d="m59.66,94.27c2.23,0,4.09-1.86,4.09-4.09s-1.86-4.09-4.09-4.09-4.09,1.86-4.09,4.09,1.86,4.09,4.09,4.09h0Z" style="fill:#222272;"/><path d="m73.85,84.7c2.61,0,4.79-2.18,4.79-4.79s-2.18-4.79-4.79-4.79-4.79,2.18-4.79,4.79,2.18,4.79,4.79,4.79h0Z" style="fill:#222272;"/><path d="m56.17,127.39c2.61,0,4.79-2.18,4.79-4.79s-2.18-4.79-4.79-4.79-4.79,2.18-4.79,4.79,2.18,4.79,4.79,4.79h0Z" style="fill:#222272;"/><path d="m71.02,115.41s.02-.04.04-.06c.75-1.25.78-2.98,0-4.23-.01-.02-.02-.04-.04-.05-1.03-1.64-2.95-2.5-4.85-1.98-1.84.51-3.16,2.23-3.16,4.14s1.31,3.64,3.16,4.15c1.87.51,3.87-.32,4.85-1.97h0Z" style="fill:#222272;"/><path d="m79.69,110.38s.08,0,.12,0c2.56.15,4.7-2.25,4.7-4.7,0-1.24-.5-2.44-1.38-3.32-1.23-1.23-2.91-1.57-4.57-1.21-.04,0-.08.02-.12.03-2.02.44-3.44,2.52-3.44,4.51,0,1.24.5,2.44,1.37,3.31.92.92,2.04,1.3,3.31,1.37h0Z" style="fill:#222272;"/><path d="m.04,87.19s-.06,0-.09,0c-.46.04-.85.36-.85.85s.55,1.03,1.07.82c.03-.01.06-.02.09-.03.35-.14.61-.4.61-.8,0-.43-.38-.87-.83-.83H.04Z" style="fill:#b70027;"/><path d="m2.48,87.33c1.26,0,1.26-1.96,0-1.96s-1.26,1.96,0,1.96h0Z" style="fill:#b70027;"/><path d="m5.04,85.79c1.42,0,1.42-2.21,0-2.21s-1.42,2.21,0,2.21h0Z" style="fill:#b70027;"/><path d="m7.6,83.8c1.44,0,1.44-2.23,0-2.23s-1.44,2.23,0,2.23h0Z" style="fill:#b70027;"/><path d="m10.04,81.86c1.22,0,1.22-1.9,0-1.9s-1.22,1.9,0,1.9h0Z" style="fill:#b70027;"/><path d="m12.04,80.22c1.26,0,1.26-1.96,0-1.96s-1.26,1.96,0,1.96h0Z" style="fill:#b70027;"/><path d="m14.02,76.79s-.05.03-.08.04c-.81.44-.4,1.64.45,1.66.03,0,.06,0,.09,0,.6.02,1.04-.6.88-1.16-.16-.59-.83-.83-1.35-.55h0Z" style="fill:#b70027;"/><path d="m16.93,76.68c.99,0,.99-1.54,0-1.54s-.99,1.54,0,1.54h0Z" style="fill:#b70027;"/><path d="m19.8,74.02s-.02-.04-.03-.06c-.19-.37-.78-.55-1.13-.3-.02.01-.04.03-.05.04-.59.43-.58,1.4.21,1.62.78.21,1.35-.62,1-1.3h0Z" style="fill:#b70027;"/><path d="m21.37,73.49c1.32,0,1.32-2.04,0-2.04s-1.32,2.04,0,2.04h0Z" style="fill:#b70027;"/><path d="m23.6,71.49c.89,0,.89-1.38,0-1.38s-.89,1.38,0,1.38h0Z" style="fill:#b70027;"/><path d="m25.71,70.22c1.12,0,1.12-1.73,0-1.73s-1.12,1.73,0,1.73h0Z" style="fill:#b70027;"/><path d="m28.04,68.76c1.1,0,1.1-1.71,0-1.71s-1.1,1.71,0,1.71h0Z" style="fill:#b70027;"/><path d="m30.37,66.73c1.06,0,1.06-1.65,0-1.65s-1.06,1.65,0,1.65h0Z" style="fill:#b70027;"/><path d="m33.04,64.87c.95,0,.95-1.48,0-1.48s-.95,1.48,0,1.48h0Z" style="fill:#b70027;"/><path d="m35.26,63.25c.87,0,.87-1.35,0-1.35s-.87,1.35,0,1.35h0Z" style="fill:#b70027;"/><path d="m37.26,61.97c.94,0,.94-1.46,0-1.46s-.94,1.46,0,1.46h0Z" style="fill:#b70027;"/><path d="m39.37,60.27c1.03,0,1.03-1.6,0-1.6s-1.04,1.6,0,1.6h0Z" style="fill:#b70027;"/><path d="m41.82,58.39c1.2,0,1.2-1.85,0-1.85s-1.2,1.85,0,1.85h0Z" style="fill:#b70027;"/><path d="m43.71,56.73c1.06,0,1.06-1.65,0-1.65s-1.06,1.65,0,1.65h0Z" style="fill:#b70027;"/><path d="m46.28,53.78s-.03-.04-.05-.06c-.25-.29-.79-.29-1.04,0-.02.02-.04.04-.05.06-.45.52-.17,1.39.58,1.39s1.02-.87.57-1.39h0Z" style="fill:#b70027;"/><path d="m47.82,53.33c.97,0,.97-1.5,0-1.5s-.97,1.5,0,1.5h0Z" style="fill:#b70027;"/><path d="m50.04,51.66c.69,0,.69-1.06,0-1.06s-.68,1.06,0,1.06h0Z" style="fill:#b70027;"/><path d="m52.04,50.36c1.01,0,1.01-1.56,0-1.56s-1.01,1.56,0,1.56h0Z" style="fill:#b70027;"/><path d="m54.37,48.45c1.13,0,1.13-1.75,0-1.75s-1.13,1.75,0,1.75h0Z" style="fill:#b70027;"/><path d="m56.71,46.6c1.18,0,1.18-1.83,0-1.83s-1.18,1.83,0,1.83h0Z" style="fill:#b70027;"/><path d="m58.93,44.9c1.28,0,1.28-1.98,0-1.98s-1.28,1.98,0,1.98h0Z" style="fill:#b70027;"/><path d="m61.04,42.99c1.1,0,1.1-1.71,0-1.71s-1.1,1.71,0,1.71h0Z" style="fill:#b70027;"/><path d="m63.04,41.04c.89,0,.89-1.38,0-1.38s-.89,1.38,0,1.38h0Z" style="fill:#b70027;"/><path d="m64.82,39.67c.98,0,.98-1.52,0-1.52s-.98,1.52,0,1.52h0Z" style="fill:#b70027;"/><path d="m66.48,38.08c1.08,0,1.08-1.67,0-1.67s-1.07,1.67,0,1.67h0Z" style="fill:#b70027;"/><path d="m68.6,36.19c.79,0,.79-1.23,0-1.23s-.79,1.23,0,1.23h0Z" style="fill:#b70027;"/><path d="m70.48,34.85c1.21,0,1.21-1.88,0-1.88s-1.21,1.88,0,1.88h0Z" style="fill:#b70027;"/><path d="m72.6,32.73c1.06,0,1.06-1.65,0-1.65s-1.06,1.65,0,1.65h0Z" style="fill:#b70027;"/><path d="m74.37,31.08c1.07,0,1.07-1.67,0-1.67s-1.08,1.67,0,1.67h0Z" style="fill:#b70027;"/><path d="m76.6,29.56c.98,0,.98-1.52,0-1.52s-.98,1.52,0,1.52h0Z" style="fill:#b70027;"/><path d="m79.04,28c1.12,0,1.12-1.73,0-1.73s-1.12,1.73,0,1.73h0Z" style="fill:#b70027;"/><path d="m-.52,59.69c1.44,0,1.44-2.23,0-2.23s-1.44,2.23,0,2.23h0Z" style="fill:#b70027;"/><path d="m1.93,57.75c1.22,0,1.22-1.9,0-1.9s-1.22,1.9,0,1.9h0Z" style="fill:#b70027;"/><path d="m3.93,56.11c1.26,0,1.26-1.96,0-1.96s-1.26,1.96,0,1.96h0Z" style="fill:#b70027;"/><path d="m5.91,52.67s-.05.03-.08.04c-.81.44-.4,1.64.45,1.66.03,0,.06,0,.09,0,.6.02,1.04-.6.88-1.16-.16-.59-.83-.83-1.35-.55h0Z" style="fill:#b70027;"/><path d="m8.82,52.57c.99,0,.99-1.54,0-1.54s-.99,1.54,0,1.54h0Z" style="fill:#b70027;"/><path d="m11.69,49.91s-.02-.04-.03-.06c-.19-.37-.78-.55-1.13-.3-.02.01-.04.03-.05.04-.59.43-.58,1.4.21,1.62.78.21,1.35-.62,1-1.3h0Z" style="fill:#b70027;"/><path d="m13.26,49.38c1.32,0,1.32-2.04,0-2.04s-1.32,2.04,0,2.04h0Z" style="fill:#b70027;"/><path d="m15.48,47.38c.89,0,.89-1.38,0-1.38s-.89,1.38,0,1.38h0Z" style="fill:#b70027;"/><path d="m17.6,46.11c1.12,0,1.12-1.73,0-1.73s-1.12,1.73,0,1.73h0Z" style="fill:#b70027;"/><path d="m19.93,44.65c1.1,0,1.1-1.71,0-1.71s-1.1,1.71,0,1.71h0Z" style="fill:#b70027;"/><path d="m22.26,42.62c1.06,0,1.06-1.65,0-1.65s-1.06,1.65,0,1.65h0Z" style="fill:#b70027;"/><path d="m24.93,40.76c.95,0,.95-1.48,0-1.48s-.95,1.48,0,1.48h0Z" style="fill:#b70027;"/><path d="m27.15,39.14c.87,0,.87-1.35,0-1.35s-.87,1.35,0,1.35h0Z" style="fill:#b70027;"/><path d="m29.15,37.86c.94,0,.94-1.46,0-1.46s-.94,1.46,0,1.46h0Z" style="fill:#b70027;"/><path d="m31.26,36.16c1.03,0,1.03-1.6,0-1.6s-1.04,1.6,0,1.6h0Z" style="fill:#b70027;"/><path d="m33.71,34.28c1.2,0,1.2-1.85,0-1.85s-1.2,1.85,0,1.85h0Z" style="fill:#b70027;"/><path d="m35.6,32.62c1.06,0,1.06-1.65,0-1.65s-1.06,1.65,0,1.65h0Z" style="fill:#b70027;"/><path d="m38.17,29.67s-.04-.04-.05-.06c-.25-.29-.79-.29-1.04,0-.02.02-.04.04-.05.06-.45.52-.17,1.39.57,1.39s1.02-.87.58-1.39h0Z" style="fill:#b70027;"/><path d="m39.71,29.22c.97,0,.97-1.5,0-1.5s-.97,1.5,0,1.5h0Z" style="fill:#b70027;"/><path d="m41.93,27.55c.69,0,.69-1.06,0-1.06s-.68,1.06,0,1.06h0Z" style="fill:#b70027;"/><path d="m43.93,26.25c1.01,0,1.01-1.56,0-1.56s-1.01,1.56,0,1.56h0Z" style="fill:#b70027;"/><path d="m46.26,24.34c1.13,0,1.13-1.75,0-1.75s-1.13,1.75,0,1.75h0Z" style="fill:#b70027;"/><path d="m48.6,22.49c1.18,0,1.18-1.83,0-1.83s-1.18,1.83,0,1.83h0Z" style="fill:#b70027;"/><path d="m50.82,20.79c1.28,0,1.28-1.98,0-1.98s-1.28,1.98,0,1.98h0Z" style="fill:#b70027;"/><path d="m53.71,18.76c1.1,0,1.1-1.71,0-1.71s-1.1,1.71,0,1.71h0Z" style="fill:#b70027;"/><path d="m55.82,17.26c.89,0,.89-1.38,0-1.38s-.89,1.38,0,1.38h0Z" style="fill:#b70027;"/><path d="m57.93,15.93c.89,0,.89-1.38,0-1.38s-.89,1.38,0,1.38h0Z" style="fill:#b70027;"/><path d="m59.82,14.67c.98,0,.98-1.52,0-1.52s-.98,1.52,0,1.52h0Z" style="fill:#b70027;"/><path d="m62.04,13.08c1.08,0,1.08-1.67,0-1.67s-1.07,1.67,0,1.67h0Z" style="fill:#b70027;"/><path d="m64.71,10.86c.79,0,.79-1.23,0-1.23s-.79,1.23,0,1.23h0Z" style="fill:#b70027;"/><path d="m67.26,9.29c1.21,0,1.21-1.88,0-1.88s-1.21,1.88,0,1.88h0Z" style="fill:#b70027;"/><path d="m69.15,7.73c1.06,0,1.06-1.65,0-1.65s-1.06,1.65,0,1.65h0Z" style="fill:#b70027;"/><path d="m71.37,6.3c1.07,0,1.07-1.67,0-1.67s-1.08,1.67,0,1.67h0Z" style="fill:#b70027;"/><path d="m73.48,4.56c.98,0,.98-1.52,0-1.52s-.98,1.52,0,1.52h0Z" style="fill:#b70027;"/><path d="m75.04,3.22c1.12,0,1.12-1.73,0-1.73s-1.12,1.73,0,1.73h0Z" style="fill:#b70027;"/><path d="m.47,28.46s.02.06.04.09c.12.33.37.56.74.56.36,0,.53-.2.73-.46.33-.43-.03-1.08-.49-1.21-.56-.16-1.24.41-1.01,1.01H.47Z" style="fill:#b70027;"/><path d="m3.82,27.33c1.12,0,1.12-1.73,0-1.73s-1.12,1.73,0,1.73h0Z" style="fill:#b70027;"/><path d="m6.26,25.59c.87,0,.87-1.35,0-1.35s-.87,1.35,0,1.35h0Z" style="fill:#b70027;"/><path d="m8.6,23.86c1.09,0,1.09-1.69,0-1.69s-1.09,1.69,0,1.69h0Z" style="fill:#b70027;"/><path d="m11.04,22.31c1.37,0,1.37-2.12,0-2.12s-1.37,2.12,0,2.12h0Z" style="fill:#b70027;"/><path d="m13.6,20.57c1.28,0,1.28-1.98,0-1.98s-1.28,1.98,0,1.98h0Z" style="fill:#b70027;"/><path d="m16.04,18.85c.93,0,.93-1.44,0-1.44s-.93,1.44,0,1.44h0Z" style="fill:#b70027;"/><path d="m18.26,16.92s.01-.02,0-.02-.01.02,0,.02h0Z" style="fill:#b70027;"/><path d="m18.6,17.54c1.38,0,1.38-2.15,0-2.15s-1.38,2.15,0,2.15h0Z" style="fill:#b70027;"/><path d="m20.82,15.85c1.07,0,1.07-1.67,0-1.67s-1.08,1.67,0,1.67h0Z" style="fill:#b70027;"/><path d="m22.93,14.32c.95,0,.95-1.48,0-1.48s-.95,1.48,0,1.48h0Z" style="fill:#b70027;"/><path d="m25.2,11.29c-.12.03-.22.07-.34.12-.3.13-.38.59-.22.85,0,0,0,.01.01.02.16.26.54.4.82.21-.26.05-.29.07-.1.07.93.03.77-1.5-.17-1.27h0Z" style="fill:#b70027;"/><path d="m27.6,11.01c1.13,0,1.13-1.75,0-1.75s-1.13,1.75,0,1.75h0Z" style="fill:#b70027;"/><path d="m29.6,9.51c1.21,0,1.21-1.88,0-1.88s-1.21,1.88,0,1.88h0Z" style="fill:#b70027;"/><path d="m31.82,8.04c.89,0,.89-1.38,0-1.38s-.89,1.38,0,1.38h0Z" style="fill:#b70027;"/><path d="m34.04,6.64c1.22,0,1.22-1.9,0-1.9s-1.22,1.9,0,1.9h0Z" style="fill:#b70027;"/><path d="m36.15,5.18c1.21,0,1.21-1.88,0-1.88s-1.21,1.88,0,1.88h0Z" style="fill:#b70027;"/><path d="m38.04,3.63c1.08,0,1.08-1.67,0-1.67s-1.07,1.67,0,1.67h0Z" style="fill:#b70027;"/><path d="m40.15,1.25s.01-.02,0-.02-.01.02,0,.02h0Z" style="fill:#b70027;"/><path d="m40.04,2.24c.99,0,.99-1.54,0-1.54s-.99,1.54,0,1.54h0Z" style="fill:#b70027;"/><path d="m1.15,6.55c.82,0,.82-1.27,0-1.27s-.82,1.27,0,1.27h0Z" style="fill:#b70027;"/><path d="m3.26,5.27c1.03,0,1.03-1.6,0-1.6s-1.04,1.6,0,1.6h0Z" style="fill:#b70027;"/><path d="m5.6,3.8c1.14,0,1.14-1.77,0-1.77s-1.14,1.77,0,1.77h0Z" style="fill:#b70027;"/><path d="m8.07,2.17s.04-.04.05-.06c.29-.31.29-.75,0-1.06-.02-.02-.04-.04-.05-.06-.5-.54-1.42-.12-1.42.59s.92,1.13,1.42.59h0Z" style="fill:#b70027;"/><path d="m2.26,118.7c.87,0,.87-1.35,0-1.35s-.87,1.35,0,1.35h0Z" style="fill:#b70027;"/><path d="m4.04,117.29c.78,0,.78-1.21,0-1.21s-.78,1.21,0,1.21h0Z" style="fill:#b70027;"/><path d="m5.93,116.14c1.16,0,1.16-1.79,0-1.79s-1.16,1.79,0,1.79h0Z" style="fill:#b70027;"/><path d="m8.04,114.49c1.18,0,1.18-1.83,0-1.83s-1.18,1.83,0,1.83h0Z" style="fill:#b70027;"/><path d="m10.15,112.63c1.21,0,1.21-1.88,0-1.88s-1.21,1.88,0,1.88h0Z" style="fill:#b70027;"/><path d="m13.36,110.45s.04-.04.06-.06c.33-.33.33-.87,0-1.2-.02-.02-.04-.04-.06-.06-.57-.58-1.58-.15-1.58.66s1.01,1.23,1.58.66h0Z" style="fill:#b70027;"/><path d="m15.15,108.99c1.1,0,1.1-1.71,0-1.71s-1.1,1.71,0,1.71h0Z" style="fill:#b70027;"/><path d="m17.37,107.07c1.06,0,1.06-1.65,0-1.65s-1.06,1.65,0,1.65h0Z" style="fill:#b70027;"/><path d="m19.71,105.4c1.06,0,1.06-1.65,0-1.65s-1.06,1.65,0,1.65h0Z" style="fill:#b70027;"/><path d="m21.71,103.77c.82,0,.82-1.27,0-1.27s-.82,1.27,0,1.27h0Z" style="fill:#b70027;"/><path d="m23.71,102.44c.97,0,.97-1.5,0-1.5s-.97,1.5,0,1.5h0Z" style="fill:#b70027;"/><path d="m25.6,100.71c.89,0,.89-1.38,0-1.38s-.89,1.38,0,1.38h0Z" style="fill:#b70027;"/><path d="m27.71,99.46c1.14,0,1.14-1.77,0-1.77s-1.14,1.77,0,1.77h0Z" style="fill:#b70027;"/><path d="m29.6,97.99c.97,0,.97-1.5,0-1.5s-.97,1.5,0,1.5h0Z" style="fill:#b70027;"/><path d="m31.71,96.43c1.1,0,1.1-1.71,0-1.71s-1.1,1.71,0,1.71h0Z" style="fill:#b70027;"/><path d="m33.69,93.34s-.05.02-.08.04c-.83.37-.4,1.71.45,1.68.03,0,.06,0,.09,0,.59-.02,1.05-.57.88-1.16-.17-.62-.81-.79-1.35-.55h0Z" style="fill:#b70027;"/><path d="m36.26,93.15c.89,0,.89-1.38,0-1.38s-.89,1.38,0,1.38h0Z" style="fill:#b70027;"/><path d="m38.26,91.48c.74,0,.74-1.15,0-1.15s-.74,1.15,0,1.15h0Z" style="fill:#b70027;"/><path d="m40.37,90.35c1.14,0,1.14-1.77,0-1.77s-1.14,1.77,0,1.77h0Z" style="fill:#b70027;"/><path d="m42.71,88.52c1.07,0,1.07-1.67,0-1.67s-1.08,1.67,0,1.67h0Z" style="fill:#b70027;"/><path d="m44.82,86.87c.66,0,.66-1.02,0-1.02s-.66,1.02,0,1.02h0Z" style="fill:#b70027;"/><path d="m46.82,85.52c.93,0,.93-1.44,0-1.44s-.93,1.44,0,1.44h0Z" style="fill:#b70027;"/><path d="m48.93,83.81c.88,0,.88-1.36,0-1.36s-.88,1.36,0,1.36h0Z" style="fill:#b70027;"/><path d="m50.82,82.34c1.13,0,1.13-1.75,0-1.75s-1.13,1.75,0,1.75h0Z" style="fill:#b70027;"/><path d="m52.71,80.67c.98,0,.98-1.52,0-1.52s-.98,1.52,0,1.52h0Z" style="fill:#b70027;"/><path d="m54.82,79c.83,0,.83-1.29,0-1.29s-.83,1.29,0,1.29h0Z" style="fill:#b70027;"/><path d="m56.93,77.47c1.29,0,1.29-2,0-2s-1.29,2,0,2h0Z" style="fill:#b70027;"/><path d="m59.26,75.59c1.02,0,1.02-1.58,0-1.58s-1.02,1.58,0,1.58h0Z" style="fill:#b70027;"/><path d="m61.15,73.98c.95,0,.95-1.48,0-1.48s-.95,1.48,0,1.48h0Z" style="fill:#b70027;"/><path d="m63.48,72.31c.94,0,.94-1.46,0-1.46s-.94,1.46,0,1.46h0Z" style="fill:#b70027;"/><path d="m65.6,70.41c.79,0,.79-1.23,0-1.23s-.79,1.23,0,1.23h0Z" style="fill:#b70027;"/><path d="m67.48,68.99c.82,0,.82-1.27,0-1.27s-.82,1.27,0,1.27h0Z" style="fill:#b70027;"/><path d="m69.6,67.71c1.17,0,1.17-1.81,0-1.81s-1.17,1.81,0,1.81h0Z" style="fill:#b70027;"/><path d="m72.15,65.49c.89,0,.89-1.38,0-1.38s-.89,1.38,0,1.38h0Z" style="fill:#b70027;"/><path d="m74.15,63.74c.78,0,.78-1.21,0-1.21s-.78,1.21,0,1.21h0Z" style="fill:#b70027;"/><path d="m76.26,62.58c1.01,0,1.01-1.56,0-1.56s-1.01,1.56,0,1.56h0Z" style="fill:#b70027;"/><path d="m78.6,60.37s.01-.02,0-.02-.01.02,0,.02h0Z" style="fill:#b70027;"/><path d="m78.48,61.23c.98,0,.98-1.52,0-1.52s-.98,1.52,0,1.52h0Z" style="fill:#b70027;"/><path d="m36.04,121.42c.94,0,.94-1.46,0-1.46s-.94,1.46,0,1.46h0Z" style="fill:#b70027;"/><path d="m38.15,120.04c.74,0,.74-1.15,0-1.15s-.74,1.15,0,1.15h0Z" style="fill:#b70027;"/><path d="m40.15,119c.98,0,.98-1.52,0-1.52s-.98,1.52,0,1.52h0Z" style="fill:#b70027;"/><path d="m42.37,117.63c1.07,0,1.07-1.67,0-1.67s-1.08,1.67,0,1.67h0Z" style="fill:#b70027;"/><path d="m44.6,114.49s-.06,0-.09,0c-1.02.09-.66,1.62.17,1.29.03-.01.06-.02.09-.03.27-.11.47-.31.47-.62,0-.33-.29-.68-.65-.65h0Z" style="fill:#b70027;"/><path d="m46.48,114.09c.81,0,.81-1.25,0-1.25s-.81,1.25,0,1.25h0Z" style="fill:#b70027;"/><path d="m48.48,113.08c1.22,0,1.22-1.9,0-1.9s-1.22,1.9,0,1.9h0Z" style="fill:#b70027;"/><path d="m50.48,111.44c.97,0,.97-1.5,0-1.5s-.97,1.5,0,1.5h0Z" style="fill:#b70027;"/><path d="m52.71,109.48c.74,0,.74-1.15,0-1.15s-.74,1.15,0,1.15h0Z" style="fill:#b70027;"/><path d="m54.48,108.63c1.08,0,1.08-1.67,0-1.67s-1.07,1.67,0,1.67h0Z" style="fill:#b70027;"/><path d="m56.48,107.11c.69,0,.69-1.06,0-1.06s-.68,1.06,0,1.06h0Z" style="fill:#b70027;"/><path d="m58.48,106.1c1.1,0,1.1-1.71,0-1.71s-1.1,1.71,0,1.71h0Z" style="fill:#b70027;"/><path d="m61.04,102.64s-.06,0-.09,0c-.54.02-.96.53-.81,1.06.15.56.75.73,1.24.5.03-.01.05-.02.08-.04.76-.35.37-1.56-.41-1.53h0Z" style="fill:#b70027;"/><path d="m63.41,101.36s-.04-.02-.06-.03c-.44-.25-.98.16-.84.65.14.5.78.54,1.05.14.01-.02.02-.04.04-.05.15-.23.05-.57-.18-.7h0Z" style="fill:#b70027;"/><path d="m65.67,100.99s.04-.04.05-.06c.25-.28.25-.65,0-.93-.02-.02-.04-.04-.05-.06-.44-.5-1.26-.09-1.26.52s.82,1.02,1.26.52h0Z" style="fill:#b70027;"/><path d="m67.15,99.17c.33.45,1.12.21.95-.4-.21-.77-1.39-.19-.95.4h0Z" style="fill:#b70027;"/><path d="m68.92,97.39c-.28.74.88,1.21,1.28.54.5-.86-.9-1.5-1.28-.54h0Z" style="fill:#b70027;"/><path d="m71.06,96.44s.04.03.06.05c.22.19.5.19.72,0,.02-.02.04-.03.06-.05.4-.35.07-1.01-.42-1.01s-.82.66-.42,1.01h0Z" style="fill:#b70027;"/><path d="m73.37,95.21c.67,0,.67-1.04,0-1.04s-.67,1.04,0,1.04h0Z" style="fill:#b70027;"/><path d="m75.26,93.74c.64,0,.64-1,0-1s-.65,1,0,1h0Z" style="fill:#b70027;"/><path d="m77.15,92.54c.81,0,.81-1.25,0-1.25s-.81,1.25,0,1.25h0Z" style="fill:#b70027;"/><path d="m79.04,90.81s.01-.02,0-.02-.01.02,0,.02h0Z" style="fill:#b70027;"/><path d="m78.84,90.37s-.05.03-.08.05c-.53.32-.27,1.07.3,1.11.03,0,.06,0,.09,0,1.01.08.62-1.73-.32-1.17h0Z" style="fill:#b70027;"/><path d="m73.15,121.42c.94,0,.94-1.46,0-1.46s-.94,1.46,0,1.46h0Z" style="fill:#b70027;"/><path d="m75.48,119.87c1.09,0,1.09-1.69,0-1.69s-1.09,1.69,0,1.69h0Z" style="fill:#b70027;"/><path d="m77.62,118.41c.9,0,.9-1.4,0-1.4s-.9,1.4,0,1.4h0Z" style="fill:#b70027;"/><path d="m27.71,84.6c1.07,0,1.97-.9,1.97-1.97s-.89-1.97-1.97-1.97-1.97.9-1.97,1.97.89,1.97,1.97,1.97h0Z" style="fill:#191956;"/><path d="m14.1,95.66c1.18,0,2.17-.99,2.17-2.17s-.99-2.17-2.17-2.17-2.17.99-2.17,2.17.99,2.17,2.17,2.17h0Z" style="fill:#191956;"/><path d="m-1.5,104.96l.02.02c1,1.03,2.77.77,3.48-.45.82-1.39-.21-3.43-1.92-3.34-.01,0-.02,0-.03,0-.79.04-1.5.39-1.9,1.09-.51.87-.34,1.96.34,2.67h0Z" style="fill:#191956;"/><path d="m18.96,124.39s.05,0,.08,0c.74.05,1.46-.44,1.83-1.05.01-.02.02-.04.03-.05.49-.8.29-1.79-.32-2.46-.28-.3-.66-.52-1.06-.61-1.13-.25-2.29.33-2.61,1.48-.38,1.4.68,2.6,2.05,2.69h0Z" style="fill:#191956;"/><path d="m33,112.37s.08-.04.11-.06c1.48-.73,1.48-3.18,0-3.91-.04-.02-.08-.04-.11-.06-.76-.38-1.6-.44-2.36,0-.71.42-1.16,1.19-1.16,2.01s.45,1.6,1.16,2.01c.76.44,1.59.38,2.36,0h0Z" style="fill:#191956;"/><path d="m46.14,101.67s.04,0,.06,0c1.13-.11,2.09-.86,2.09-2.09s-.96-1.97-2.09-2.09c-.02,0-.04,0-.06,0-1.14-.11-2.09,1.04-2.09,2.09s.96,2.21,2.09,2.09h0Z" style="fill:#191956;"/><path d="m59.71,92.14c.91,0,1.68-.76,1.68-1.68s-.76-1.68-1.68-1.68-1.68.76-1.68,1.68.76,1.68,1.68,1.68h0Z" style="fill:#191956;"/><path d="m73.95,81.71c.99,0,1.82-.83,1.82-1.82s-.83-1.83-1.82-1.83-1.82.83-1.82,1.83.83,1.82,1.82,1.82h0Z" style="fill:#191956;"/><path d="m40.6,74.67c1.14,0,2.09-.95,2.09-2.09s-.95-2.09-2.09-2.09-2.09.95-2.09,2.09.95,2.09,2.09,2.09h0Z" style="fill:#191956;"/><path d="m54.48,65.13s.06-.02.09-.04c1.08-.43,1.82-1.41,1.49-2.62-.3-1.08-1.52-1.85-2.62-1.49-.03,0-.06.02-.09.03-1.1.36-1.81,1.46-1.49,2.62.28,1.03,1.54,1.92,2.63,1.49h0Z" style="fill:#191956;"/><path d="m66.36,50.91s-.07.03-.1.04c-.56.23-1.01.48-1.33,1.03-.4.69-.4,1.56,0,2.25.69,1.18,2.55,1.55,3.51.45.03-.03.05-.06.08-.08.66-.75.87-1.77.34-2.67-.46-.78-1.59-1.38-2.49-1.01h0Z" style="fill:#191956;"/><path d="m81.55,44.37s.03-.02.04-.02c.85-.5,1.25-1.72.68-2.58,0-.01-.02-.02-.02-.03-.9-1.36-3.06-1.22-3.52.46-.45,1.63,1.37,3.03,2.83,2.18h0Z" style="fill:#191956;"/><path d="m.93,74.58c1.22,0,2.23-1.01,2.23-2.23s-1.01-2.23-2.23-2.23-2.23,1.01-2.23,2.23,1.01,2.23,2.23,2.23h0Z" style="fill:#191956;"/><path d="m15.21,64.3c1.29,0,2.37-1.08,2.37-2.37s-1.08-2.37-2.37-2.37-2.37,1.08-2.37,2.37,1.08,2.37,2.37,2.37h0Z" style="fill:#191956;"/><path d="m29.44,48.46c-.86.32-1.53.85-1.78,1.78-.44,1.6.8,3.22,2.46,3.22,1.39,0,2.55-1.16,2.55-2.55,0-1.54-1.65-3.04-3.22-2.46h0Z" style="fill:#191956;"/><path d="m44.15,42.94c1.35,0,2.47-1.13,2.47-2.47s-1.13-2.47-2.47-2.47-2.47,1.13-2.47,2.47,1.12,2.47,2.47,2.47h0Z" style="fill:#191956;"/><path d="m59.82,27.92c-.65-.81-1.96-.91-2.82-.41-1.28.75-1.51,2.55-.46,3.6.88.88,2.36.88,3.24,0,.3-.3.49-.65.6-1.06.22-.82-.06-1.5-.56-2.13h0Z" style="fill:#191956;"/><path d="m71.04,21.03c1.1,0,2.01-.91,2.01-2.01s-.91-2.01-2.01-2.01-2.01.91-2.01,2.01.91,2.01,2.01,2.01h0Z" style="fill:#191956;"/><path d="m1.26,43.61c1.41,0,2.59-1.18,2.59-2.59s-1.18-2.59-2.59-2.59-2.59,1.18-2.59,2.59,1.18,2.59,2.59,2.59h0Z" style="fill:#191956;"/><path d="m20.31,30.75s0-.03-.01-.05c-.19-.84-.94-1.53-1.76-1.76-1.16-.32-2.18.22-2.84,1.16,0,.01-.02.03-.03.04-.96,1.36.04,3.32,1.52,3.73,1.94.53,3.54-1.26,3.12-3.13h0Z" style="fill:#191956;"/><path d="m36.3,19.21s0-.02-.01-.02c-.57-1.26-2.37-1.56-3.47-.91-.57.33-.99.88-1.17,1.52-.19.71-.04,1.31.26,1.96h0c.56,1.23,2.39,1.59,3.47.91,0,0,.02-.01.03-.02,1.63-1.02,1.63-3.33,0-4.35,0,0-.02-.01-.03-.02-1.09-.68-2.91-.32-3.47.91,0,0,0,0,0,0-.29.64-.45,1.25-.26,1.95.17.63.6,1.18,1.17,1.52,1.1.65,2.9.35,3.47-.91.41-.91.43-1.63.01-2.54h0Z" style="fill:#191956;"/><path d="m50.97,10.24s.02-.06.02-.09c.25-.97-.16-1.96-1.01-2.48-.03-.02-.05-.03-.08-.05-1.75-1.07-3.93.68-3.4,2.61.6,2.18,3.89,2.24,4.46,0h0Z" style="fill:#191956;"/><path d="m59.39-1.71c-.98.13-1.52.81-1.87,1.69-.28.69.06,1.6.55,2.1.65.65,1.82.88,2.62.34.02-.02.05-.03.07-.05.88-.6,1.42-1.86.75-2.85-.01-.02-.03-.04-.04-.06V1.64s.04-.07.06-.11c.34-.74.28-.69-.17.14.59-.7.8-1.61.32-2.45-.5-.86-1.37-1.05-2.28-.93h0Z" style="fill:#191956;"/><path d="m-.48,18.04c.79.21,1.64-.12,2.06-.83.59-1.01.04-2.35-1.08-2.66-.95-.26-1.96.31-2.23,1.26-.26.94.3,1.97,1.25,2.22H-.48Z" style="fill:#191956;"/><path d="m11.7,8.19c-.57.3-.84.78-1.05,1.36-.49,1.31.76,2.68,2.04,2.68,1.6,0,2.65-1.8,1.83-3.19-.12-.2-.26-.37-.41-.54-.59-.7-1.67-.7-2.41-.31h0Z" style="fill:#191956;"/><path d="m22.45,1.47s0,.07,0,.1c.04.91.8,1.95,1.84,1.84.03,0,.06,0,.08,0,.7-.08,1.29-.32,1.66-.95.44-.75.31-1.72-.3-2.34-1.14-1.14-3.38-.35-3.29,1.36h0Z" style="fill:#191956;"/><path d="m54.53,124.65s0,0,.01.01c.86.75,2.03,1,3.06.39.98-.57,1.46-1.76,1.16-2.85-.3-1.08-1.31-1.85-2.43-1.85s-2.11.77-2.44,1.85c0,0,0,.01,0,.02-.24.8,0,1.86.64,2.42h0Z" style="fill:#191956;"/><path d="m69.39,114.69s.05-.07.08-.11c.81-1.18-.06-2.69-1.26-3.09-.05-.01-.09-.03-.14-.05-1.62-.54-3.14,1.16-2.72,2.72.2.74.8,1.34,1.54,1.54,1.01.28,1.92-.19,2.49-1.01h0Z" style="fill:#191956;"/><path d="m80.26,107.97c1.4,0,2.56-1.16,2.56-2.56s-1.16-2.56-2.56-2.56-2.56,1.16-2.56,2.56,1.17,2.56,2.56,2.56h0Z" style="fill:#191956;"/><path d="m55.63,118.74c-.33.09-.64.27-.78.59-.25.56-.17,1.21.4,1.54.54.32,1.21.12,1.54-.4,0-.02.02-.03.03-.05-.22.17-.45.35-.67.52.03,0,.06,0,.09-.01.61-.09.94-.86.79-1.4-.16-.59-.8-.96-1.4-.79h0Z" style="fill:#f70032;"/><path d="m53.12,124.37c1.5,0,1.5-2.32,0-2.32s-1.5,2.32,0,2.32h0Z" style="fill:#f70032;"/><path d="m58.89,123.97c1.32,0,1.32-2.04,0-2.04s-1.32,2.04,0,2.04h0Z" style="fill:#f70032;"/><path d="m67.48,111.88c1.1,0,1.1-1.71,0-1.71s-1.1,1.71,0,1.71h0Z" style="fill:#f70032;"/><path d="m64.97,114.65c1.44,0,1.44-2.23,0-2.23s-1.44,2.23,0,2.23h0Z" style="fill:#f70032;"/><path d="m67.71,116.94c1.24,0,1.24-1.92,0-1.92s-1.24,1.92,0,1.92h0Z" style="fill:#f70032;"/><path d="m69.27,114.27s.03.02.04.03c.45.36,1.27.43,1.56-.2,0-.01.01-.03.02-.04.31-.69-.05-1.55-.89-1.55s-1.46,1.17-.73,1.76h0Z" style="fill:#f70032;"/><path d="m77.41,106.83c1.18,0,1.18-1.83,0-1.83s-1.18,1.83,0,1.83h0Z" style="fill:#f70032;"/><path d="m80.3,103.79c1.09,0,1.09-1.69,0-1.69s-1.09,1.69,0,1.69h0Z" style="fill:#f70032;"/><path d="m80.33,109.5c1.5,0,1.5-2.33,0-2.33s-1.5,2.33,0,2.33h0Z" style="fill:#f70032;"/><path d="m59.63,89.05c1.46,0,1.46-2.27,0-2.27s-1.46,2.27,0,2.27h0Z" style="fill:#f70032;"/><path d="m57.56,91.85c1.54,0,1.54-2.4,0-2.4s-1.54,2.4,0,2.4h0Z" style="fill:#f70032;"/><path d="m59.93,93.68c1.14,0,1.14-1.77,0-1.77s-1.14,1.77,0,1.77h0Z" style="fill:#f70032;"/><path d="m62.15,91.53c1.42,0,1.42-2.21,0-2.21s-1.42,2.21,0,2.21h0Z" style="fill:#f70032;"/><path d="m74.7,76.17s-.05-.03-.08-.04c-.85-.45-1.94.1-1.94,1.11s1.09,1.56,1.94,1.11c.03-.01.06-.03.08-.04.81-.42.81-1.72,0-2.14h0Z" style="fill:#f70032;"/><path d="m71.19,81.18c1.45,0,1.45-2.25,0-2.25s-1.45,2.25,0,2.25h0Z" style="fill:#f70032;"/><path d="m74.3,84.14c1.73,0,1.73-2.69,0-2.69s-1.73,2.69,0,2.69h0Z" style="fill:#f70032;"/><path d="m76.74,80.83c1.28,0,1.28-1.98,0-1.98s-1.28,1.98,0,1.98h0Z" style="fill:#f70032;"/><path d="m46.23,98.01c1.56,0,1.56-2.42,0-2.42s-1.56,2.42,0,2.42h0Z" style="fill:#f70032;"/><path d="m43.48,100.75c1.28,0,1.28-1.98,0-1.98s-1.28,1.98,0,1.98h0Z" style="fill:#f70032;"/><path d="m49.01,100.76c1.18,0,1.18-1.83,0-1.83s-1.18,1.83,0,1.83h0Z" style="fill:#f70032;"/><path d="m46.45,103.39c1.14,0,1.14-1.77,0-1.77s-1.14,1.77,0,1.77h0Z" style="fill:#f70032;"/><path d="m31.56,108.35c1.33,0,1.33-2.06,0-2.06s-1.33,2.06,0,2.06h0Z" style="fill:#f70032;"/><path d="m28.82,111.84c.77,0,1.41-.64,1.41-1.41s-.64-1.41-1.41-1.41-1.41.64-1.41,1.41.64,1.41,1.41,1.41h0Z" style="fill:#f70032;"/><path d="m34.74,111.62c1.44,0,1.44-2.23,0-2.23s-1.44,2.23,0,2.23h0Z" style="fill:#f70032;"/><path d="m32.08,114.39c1.2,0,1.2-1.85,0-1.85s-1.2,1.85,0,1.85h0Z" style="fill:#f70032;"/><path d="m18.89,120.23c1.18,0,1.18-1.83,0-1.83s-1.18,1.83,0,1.83h0Z" style="fill:#f70032;"/><path d="m16,123.42c1.57,0,1.57-2.44,0-2.44s-1.57,2.44,0,2.44h0Z" style="fill:#f70032;"/><path d="m21.71,123.1c1.25,0,1.25-1.94,0-1.94s-1.25,1.94,0,1.94h0Z" style="fill:#f70032;"/><path d="m-.22,101.75c1.71,0,1.71-2.65,0-2.65s-1.71,2.65,0,2.65H-.22Z" style="fill:#f70032;"/><path d="m2.52,104.93c.67,0,1.24-.56,1.24-1.24s-.56-1.24-1.24-1.24-1.24.56-1.24,1.24.56,1.24,1.24,1.24h0Z" style="fill:#f70032;"/><path d="m0,107.5c1.67,0,1.67-2.58,0-2.58s-1.67,2.58,0,2.58H0Z" style="fill:#f70032;"/><path d="m11.31,92.39c-.13.07-.25.15-.35.27-.24.3-.38.63-.27,1.02.11.41.55.82,1.01.77.26-.03.46-.08.69-.2,1.21-.68.13-2.53-1.08-1.85h0Z" style="fill:#f70032;"/><path d="m14.37,91.62c1.44,0,1.44-2.23,0-2.23s-1.44,2.23,0,2.23h0Z" style="fill:#f70032;"/><path d="m16.89,94.8c1.91,0,1.91-2.96,0-2.96s-1.91,2.96,0,2.96h0Z" style="fill:#f70032;"/><path d="m15,97.13s.02-.03.03-.04c.23-.31.2-.86,0-1.17,0-.01-.02-.03-.03-.04-.66-1.01-2.31-.65-2.31.63,0,.55.38,1.05.91,1.2.59.16,1.06-.12,1.4-.57h0Z" style="fill:#f70032;"/><path d="m27.69,81.07c1.57,0,1.57-2.43,0-2.43s-1.57,2.43,0,2.43h0Z" style="fill:#f70032;"/><path d="m24.67,83.83c1.52,0,1.52-2.35,0-2.35s-1.52,2.35,0,2.35h0Z" style="fill:#f70032;"/><path d="m31.38,81.79s-.02-.02-.04-.04c-.79-.78-2.17-.21-2.17.9s1.38,1.68,2.17.9c.01-.01.02-.03.04-.04.47-.46.47-1.26,0-1.72h0Z" style="fill:#f70032;"/><path d="m27.71,86.56c1.6,0,1.6-2.48,0-2.48s-1.6,2.48,0,2.48h0Z" style="fill:#f70032;"/><path d="m40.3,70.9c1.46,0,1.46-2.27,0-2.27s-1.46,2.27,0,2.27h0Z" style="fill:#f70032;"/><path d="m37.93,73.88c1.59,0,1.59-2.46,0-2.46s-1.58,2.46,0,2.46h0Z" style="fill:#f70032;"/><path d="m40.74,76.65c1.72,0,1.72-2.67,0-2.67s-1.72,2.67,0,2.67h0Z" style="fill:#f70032;"/><path d="m43.78,73.47c.69,0,1.26-.57,1.26-1.26s-.57-1.26-1.26-1.26-1.26.57-1.26,1.26.57,1.26,1.26,1.26h0Z" style="fill:#f70032;"/><path d="m53.63,61.26c1.54,0,1.54-2.4,0-2.4s-1.54,2.4,0,2.4h0Z" style="fill:#f70032;"/><path d="m51.04,64.62c.75,0,1.37-.63,1.37-1.38s-.63-1.38-1.37-1.38-1.37.63-1.37,1.38.63,1.38,1.37,1.38h0Z" style="fill:#f70032;"/><path d="m56.82,64.07c.69,0,1.27-.58,1.27-1.27s-.58-1.27-1.27-1.27-1.27.58-1.27,1.27.58,1.27,1.27,1.27h0Z" style="fill:#f70032;"/><path d="m54.3,67.22c1.69,0,1.69-2.62,0-2.62s-1.69,2.62,0,2.62h0Z" style="fill:#f70032;"/><path d="m67.26,51.47c1.53,0,1.53-2.38,0-2.38s-1.53,2.38,0,2.38h0Z" style="fill:#f70032;"/><path d="m64.3,54.38c1.75,0,1.75-2.71,0-2.71s-1.75,2.71,0,2.71h0Z" style="fill:#f70032;"/><path d="m69.93,54.07c1.55,0,1.55-2.4,0-2.4s-1.54,2.4,0,2.4h0Z" style="fill:#f70032;"/><path d="m67.42,55.99s.1-.05.15-.07c.01,0,0-.03-.01-.02-.05.02-.1.05-.15.07-.01,0,0,.03.01.02h0Z" style="fill:#f70032;"/><path d="m67.26,57.1c1.53,0,1.53-2.38,0-2.38s-1.53,2.38,0,2.38h0Z" style="fill:#f70032;"/><path d="m77.44,44.63s.04.03.06.04c.91.6,2.11-.38,1.81-1.39,0-.02-.01-.05-.02-.07-.23-.78-1.14-1.17-1.85-.75-.85.5-.78,1.67,0,2.18h0Z" style="fill:#f70032;"/><path d="m81.11,41.09c1.52,0,1.52-2.35,0-2.35s-1.52,2.35,0,2.35h0Z" style="fill:#f70032;"/><path d="m81.11,46.92c1.68,0,1.68-2.6,0-2.6s-1.68,2.6,0,2.6h0Z" style="fill:#f70032;"/><path d="m.67,70.13c1.14,0,1.14-1.77,0-1.77s-1.14,1.77,0,1.77h0Z" style="fill:#f70032;"/><path d="m3.78,73.5c1.29,0,1.29-2,0-2s-1.29,2,0,2h0Z" style="fill:#f70032;"/><path d="m1.26,76.4c1.4,0,1.4-2.17,0-2.17s-1.4,2.17,0,2.17h0Z" style="fill:#f70032;"/><path d="m14.97,60.06c1.72,0,1.72-2.67,0-2.67s-1.72,2.67,0,2.67h0Z" style="fill:#f70032;"/><path d="m12.08,63.43c1.77,0,1.77-2.75,0-2.75s-1.77,2.75,0,2.75h0Z" style="fill:#f70032;"/><path d="m17.47,60.71s-.04.04-.06.06c-.46.44-.45,1.21,0,1.66.57.57,1.41.37,1.84-.24.02-.02.03-.05.05-.07.79-1.12-.91-2.31-1.83-1.41h0Z" style="fill:#f70032;"/><path d="m14.3,65.32s0,.04.01.06c.17.74,1,1.16,1.7.97.75-.21,1.14-.97.97-1.7,0-.02,0-.04-.01-.06-.17-.73-1-1.16-1.7-.97-.75.21-1.14.97-.97,1.7h0Z" style="fill:#f70032;"/><path d="m29.71,46.31s-.07,0-.1,0c-.92-.03-1.5,1.05-1.04,1.82.48.81,1.6.75,2.09,0,.02-.03.03-.05.05-.08.5-.76-.16-1.71-1-1.74h0Z" style="fill:#f70032;"/><path d="m27.11,52.7c1.69,0,1.69-2.62,0-2.62s-1.69,2.62,0,2.62h0Z" style="fill:#f70032;"/><path d="m33.67,49.95s-.03-.02-.04-.03c-.96-.66-2.17.42-1.89,1.45.29,1.05,1.81,1.29,2.35.31,0-.01.01-.02.02-.04.34-.63.12-1.3-.44-1.7h0Z" style="fill:#f70032;"/><path d="m30.74,55.82c1.89,0,1.89-2.94,0-2.94s-1.89,2.94,0,2.94h0Z" style="fill:#f70032;"/><path d="m42.54,37.69s0,.04,0,.06c-.02.72.72,1.26,1.4,1.07.71-.2.99-1,.66-1.63,0-.02-.02-.03-.03-.05-.52-1-2.02-.49-2.04.55h0Z" style="fill:#f70032;"/><path d="m41.78,39.53s-.06,0-.09,0c-.93.05-1.58,1.03-1.08,1.88.47.8,1.7.83,2.16,0,.02-.03.03-.06.05-.09.42-.75-.1-1.85-1.04-1.8h0Z" style="fill:#f70032;"/><path d="m46.71,41.72c.75,0,1.37-.62,1.37-1.37s-.62-1.37-1.37-1.37-1.37.62-1.37,1.37.62,1.37,1.37,1.37h0Z" style="fill:#f70032;"/><path d="m44.6,44.87c1.72,0,1.72-2.67,0-2.67s-1.72,2.67,0,2.67h0Z" style="fill:#f70032;"/><path d="m58.07,27.87c1.52,0,1.52-2.35,0-2.35s-1.52,2.35,0,2.35h0Z" style="fill:#f70032;"/><path d="m55.11,28.2h-.05c-1.73,0-1.73,2.69,0,2.69h.05c1.73,0,1.73-2.69,0-2.69h0Z" style="fill:#f70032;"/><path d="m60.52,30.26c1.32,0,1.32-2.04,0-2.04s-1.32,2.04,0,2.04h0Z" style="fill:#f70032;"/><path d="m57.36,31.2s-.05.05-.07.07c-.9.95,0,2.46,1.26,2.16.03,0,.07-.02.1-.02.83-.2,1.21-1.22.79-1.94-.42-.72-1.49-.89-2.08-.27h0Z" style="fill:#f70032;"/><path d="m70.97,17.67c1.41,0,1.41-2.19,0-2.19s-1.41,2.19,0,2.19h0Z" style="fill:#f70032;"/><path d="m68.15,20.18c1.49,0,1.49-2.31,0-2.31s-1.49,2.31,0,2.31h0Z" style="fill:#f70032;"/><path d="m74,19.75c1.42,0,1.42-2.21,0-2.21s-1.42,2.21,0,2.21h0Z" style="fill:#f70032;"/><path d="m71.46,22.81c1.58,0,1.58-2.44,0-2.44s-1.57,2.44,0,2.44h0Z" style="fill:#f70032;"/><path d="m1.04,39.1c1.63,0,1.63-2.52,0-2.52s-1.63,2.52,0,2.52h0Z" style="fill:#f70032;"/><path d="m4.23,42.16c1.37,0,1.37-2.12,0-2.12s-1.37,2.12,0,2.12h0Z" style="fill:#f70032;"/><path d="m1.11,45.51c1.49,0,1.49-2.31,0-2.31s-1.49,2.31,0,2.31h0Z" style="fill:#f70032;"/><path d="m18.25,27.8s-.04-.02-.06-.03c-.34-.17-.72-.2-1.06,0-.37.22-.65.75-.48,1.18,0,.02.02.04.02.06.25.63.93,1.02,1.58.64.66-.39.73-1.49,0-1.85h0Z" style="fill:#f70032;"/><path d="m14.74,32.97c1.46,0,1.46-2.27,0-2.27s-1.46,2.27,0,2.27h0Z" style="fill:#f70032;"/><path d="m20.82,32.71c1.41,0,1.41-2.19,0-2.19s-1.41,2.19,0,2.19h0Z" style="fill:#f70032;"/><path d="m17.86,35.74c1.5,0,1.5-2.33,0-2.33s-1.5,2.33,0,2.33h0Z" style="fill:#f70032;"/><path d="m33.71,18.7c.75,0,1.39-.63,1.39-1.39s-.63-1.39-1.39-1.39-1.39.63-1.39,1.39.63,1.39,1.39,1.39h0Z" style="fill:#f70032;"/><path d="m31.51,19.45s-.06-.03-.09-.04c-.43-.19-.85-.25-1.28,0-.39.23-.63.65-.63,1.1,0,1.01,1.07,1.53,1.91,1.1.03-.02.06-.03.09-.05.76-.39.84-1.75,0-2.11h0Z" style="fill:#f70032;"/><path d="m36.97,21.11c1.45,0,1.45-2.25,0-2.25s-1.45,2.25,0,2.25h0Z" style="fill:#f70032;"/><path d="m34.6,24.65c1.44,0,1.44-2.23,0-2.23s-1.44,2.23,0,2.23h0Z" style="fill:#f70032;"/><path d="m48.6,5.76c-.32,0-.59.1-.82.33-.39.39-.39,1.04,0,1.43.23.23.5.33.82.33,1.34,0,1.34-2.08,0-2.08h0Z" style="fill:#f70032;"/><path d="m46.15,10.27c1.13,0,1.13-1.75,0-1.75s-1.13,1.75,0,1.75h0Z" style="fill:#f70032;"/><path d="m48.89,13.48c1.45,0,1.45-2.25,0-2.25s-1.45,2.25,0,2.25h0Z" style="fill:#f70032;"/><path d="m51.86,10.74c1.84,0,1.84-2.85,0-2.85s-1.84,2.85,0,2.85h0Z" style="fill:#f70032;"/><path d="m57.41-.35s-.07,0-.1.01c-1.18.14-1.18,1.7,0,1.83.03,0,.07,0,.1.01,1.2.14,1.19-2,0-1.85h0Z" style="fill:#f70032;"/><path d="m60.3,3.98c1.72,0,1.72-2.67,0-2.67s-1.72,2.67,0,2.67h0Z" style="fill:#f70032;"/><path d="m61.66.41s.01.06.02.09c.14.69,1.02.98,1.59.65.55-.32.78-1.26.22-1.7-.02-.02-.05-.04-.07-.06-.82-.65-1.97-.06-1.76,1.02h0Z" style="fill:#f70032;"/><path d="m-.66,15.13c1.38,0,1.38-2.15,0-2.15s-1.38,2.15,0,2.15h0Z" style="fill:#f70032;"/><path d="m2.08,17.03c1.16,0,1.16-1.79,0-1.79s-1.16,1.79,0,1.79h0Z" style="fill:#f70032;"/><path d="m0,19.48c1.17,0,1.17-1.81,0-1.81s-1.17,1.81,0,1.81H0Z" style="fill:#f70032;"/><path d="m12.3,8.71c1.22,0,1.22-1.9,0-1.9s-1.22,1.9,0,1.9h0Z" style="fill:#f70032;"/><path d="m10.75,9.67c-.21-.04-.37-.05-.58,0-.57.14-.83.84-.54,1.33.28.48,1.02.62,1.42.18-.03.02-.06.05-.09.07.61-.36.55-1.43-.21-1.58h0Z" style="fill:#f70032;"/><path d="m15.11,10.64c1.03,0,1.03-1.6,0-1.6s-1.03,1.6,0,1.6h0Z" style="fill:#f70032;"/><path d="m13.11,13.45c1.44,0,1.44-2.24,0-2.24s-1.44,2.24,0,2.24h0Z" style="fill:#f70032;"/><path d="m22.08,2.78c1.32,0,1.32-2.04,0-2.04s-1.32,2.04,0,2.04h0Z" style="fill:#f70032;"/><path d="m24,.05c1.33,0,1.33-2.06,0-2.06S22.67.05,24,.05h0Z" style="fill:#f70032;"/><path d="m26.52,1.48s.01-.02,0-.02c-.02,0-.02.02,0,.02h0Z" style="fill:#f70032;"/><path d="m26.74,2.52c1.36,0,1.36-2.1,0-2.1s-1.36,2.1,0,2.1h0Z" style="fill:#f70032;"/><path d="m24.6,4.96c1.26,0,1.26-1.96,0-1.96s-1.26,1.96,0,1.96h0Z" style="fill:#f70032;"/><path d="m3.68,10.28c.41.17.87.35,1.31.4.09.01.13-.11.07-.17-.31-.31-.82-.35-1.21-.52-.2-.09-.36.2-.17.29h0Z" style="fill:#191956;"/><path d="m1.96,10.86c-.07.3-.18.61.09.83.07.06.14.06.21,0,.27-.22.15-.52.09-.83-.04-.19-.34-.19-.38,0h0Z" style="fill:#191956;"/><path d="m5.87,12.8s0,0,0,0c0,0,0,0,0,0h0Z" style="fill:#191956;"/><path d="m5.03,12.88c.14.46.47,1.15,1.07.97.14-.04.2-.2.13-.32-.18-.33-.49-.52-.65-.87-.14-.31-.64-.09-.55.23h0Z" style="fill:#191956;"/><path d="m6.87,7.47s0,0,0,0c0,0,0,0,0,0h0Z" style="fill:#191956;"/><path d="m6.67,8.8c.37-.16.77-.28.93-.68.04-.11-.07-.22-.17-.22-.38-.02-.7.27-1.02.45-.3.17-.04.58.26.45h0Z" style="fill:#191956;"/><path d="m8.07,12.6c.19.13.38.24.59.33.09.04.19-.07.11-.14-.16-.15-.34-.29-.51-.43-.17-.15-.37.12-.19.24h0Z" style="fill:#191956;"/><path d="m6.19,16.84c.35.06.76.13,1.11.04.09-.02.14-.14.09-.22-.24-.37-.67-.29-1.06-.36-.35-.06-.5.48-.15.53h0Z" style="fill:#191956;"/><path d="m9.37,15.3s0,0,0,0c0,0,0,0,0,0h0Z" style="fill:#191956;"/><path d="m9.83,15.37c.06.32.26.65.59.71.16.03.29-.07.3-.23.03-.37-.22-.69-.55-.82-.21-.09-.37.16-.34.34h0Z" style="fill:#191956;"/><path d="m3.98,20.3s0,0,0,0c0,0,0,0,0,0h0Z" style="fill:#191956;"/><path d="m3.95,20.34c-.08.3-.15.66-.06.96.05.16.24.2.36.09.28-.25.15-.58.21-.91.07-.33-.42-.47-.51-.14h0Z" style="fill:#191956;"/><path d="m1.14,22.01c.07.2.16.34.36.4.1.03.19-.09.14-.18-.06-.12-.12-.19-.15-.32-.05-.23-.43-.12-.35.1h0Z" style="fill:#191956;"/><path d="m10.98,4.92c.51-.04,1.09-.09,1.41-.54.1-.15,0-.37-.17-.41-.48-.13-1.01.13-1.39.41-.21.15-.17.57.15.54h0Z" style="fill:#191956;"/><path d="m16.18,1.52c.16.31.21.78.64.81.09,0,.17-.07.2-.15.12-.35-.23-.74-.48-.93-.19-.15-.48.03-.35.27h0Z" style="fill:#191956;"/><path d="m17.15,4.64s0,0,0,0,0,0,0,0h0Z" style="fill:#191956;"/><path d="m16.55,5.02c.19.35.61.98,1.05.64.11-.09.12-.25.1-.37-.07-.4-.53-.86-.96-.73-.2.06-.29.28-.19.46h0Z" style="fill:#191956;"/><path d="m20.03,7.12c.32-.07.67-.13,1-.07.5.09.72-.64.21-.78-.45-.12-.98-.02-1.42.09-.49.12-.29.87.21.76h0Z" style="fill:#191956;"/><path d="m19.11,9.67c.24.04.46.12.71.1.17-.02.31-.2.21-.37-.17-.28-.41-.39-.72-.47-.48-.12-.68.65-.2.74h0Z" style="fill:#191956;"/><path d="m24.29,7.13c.24-.06.49-.06.74-.13.14-.05.22-.16.23-.31,0-.1-.02-.15-.09-.22-.11-.11-.25-.11-.39-.05-.32.14-.4.26-.61.53-.07.08,0,.22.11.19h0Z" style="fill:#191956;"/><path d="m29.31,1.58c0,.32,0,.59.15.87.05.1.18.18.29.17.57-.06.23-.79.12-1.12-.1-.3-.56-.25-.56.08h0Z" style="fill:#191956;"/><path d="m32.72,1.22c.34-.11.93-.07,1.09-.44.03-.08.04-.16-.03-.22-.34-.32-.91.01-1.26.18-.27.13-.08.58.2.48h0Z" style="fill:#191956;"/><path d="m4.94,31.2c.18.09,1.02.9,1.18.47.2-.55-.7-1-1.13-.84-.15.06-.22.28-.05.37h0Z" style="fill:#191956;"/><path d="m3.28,33.23c.04.11.09.22.13.33.06.15.29.09.25-.07-.03-.11-.06-.23-.09-.34-.05-.19-.36-.1-.29.08h0Z" style="fill:#191956;"/><path d="m6.6,35c.55.12,1.01.01,1.55-.04.11-.01.14-.14.05-.2-.51-.36-1.02-.31-1.61-.16-.19.05-.2.36,0,.4h0Z" style="fill:#191956;"/><path d="m5.98,37.09c.21.37.54.8,1.01.81.13,0,.19-.13.14-.24-.18-.36-.63-.5-.93-.74-.12-.09-.3.02-.21.17h0Z" style="fill:#191956;"/><path d="m9.16,29.83c.22.41.22.81.62,1.11.26.2.63-.19.45-.45-.22-.33-.51-.59-.79-.88-.15-.15-.38.04-.28.22h0Z" style="fill:#191956;"/><path d="m11.58,36.8c.21.34.65,1,1.12.68.08-.06.12-.14.1-.23-.07-.32-.45-.52-.63-.78-.24-.35-.81-.03-.58.34h0Z" style="fill:#191956;"/><path d="m9.98,40.35c.34.08.97.47,1.14-.03.05-.15-.03-.33-.17-.41-.33-.19-.64-.11-.98,0-.2.07-.22.38,0,.43h0Z" style="fill:#191956;"/><path d="m8.4,44.42c.37-.18.71-.13.89-.55.05-.13-.06-.28-.18-.31-.41-.12-.75.18-1.03.44-.23.22.06.55.32.42h0Z" style="fill:#191956;"/><path d="m1.71,48.37c.19.3.42.79.83.76.09,0,.16-.07.17-.17,0-.36-.36-.67-.6-.9-.2-.2-.55.06-.4.31h0Z" style="fill:#191956;"/><path d="m5.73,47.38c.09-.02.18-.05.27-.07.09-.02.05-.16-.04-.14-.09.01-.19.03-.28.04-.11.02-.06.19.05.17h0Z" style="fill:#191956;"/><path d="m5.63,47.71c.22.19.52.06.78.02.33-.06.68-.1.89-.38.11-.15-.02-.34-.16-.39-.33-.13-.8.05-1.13.14-.2.06-.67.36-.38.61h0Z" style="fill:#191956;"/><path d="m1.91,51.71c.3.25.76.5,1.04.09.04-.06.04-.16,0-.22-.16-.22-.41-.24-.63-.41-.31-.23-.71.29-.41.53h0Z" style="fill:#191956;"/><path d="m13.87,41.81c.47-.08.96-.1,1.42-.24.11-.03.09-.17,0-.21-.49-.21-1.02-.02-1.52.1-.23.05-.13.39.1.35h0Z" style="fill:#191956;"/><path d="m16.32,38.75c.07.39.47.79.87.6.07-.03.11-.13.08-.21-.09-.27-.37-.42-.57-.61-.17-.17-.42,0-.38.22h0Z" style="fill:#191956;"/><path d="m13.42,25.91c.11.1.22.2.32.31.07.07.18.1.28.07.09-.03.13-.04.17-.13.05-.11.06-.26-.04-.34-.14-.11-.27-.2-.43-.29-.23-.13-.51.2-.29.38h0Z" style="fill:#191956;"/><path d="m18.26,22.88c.42-.21,1.03-.21,1.33-.6.06-.08.01-.21-.07-.26-.48-.27-1.09.22-1.49.47-.24.15-.03.52.23.39h0Z" style="fill:#191956;"/><path d="m20.04,24.53c.35.25.72.58,1.17.55.14-.01.26-.13.21-.28-.14-.5-.64-.61-1.05-.84-.38-.22-.68.33-.34.58h0Z" style="fill:#191956;"/><path d="m23.95,20.87c.29-.13.6-.23.89-.37.15-.08.07-.29-.08-.3-.36-.02-.68.07-1.02.18-.37.11-.15.65.21.49h0Z" style="fill:#191956;"/><path d="m25.75,23.13c.15.32.28.71.64.82.09.03.21-.05.2-.15-.02-.35-.3-.59-.47-.89-.14-.24-.48-.03-.37.22h0Z" style="fill:#191956;"/><path d="m24.61,26.83c.09.32.13.75.49.85.05.01.12,0,.16-.04.26-.28.07-.65-.02-.98-.11-.41-.75-.23-.63.17h0Z" style="fill:#191956;"/><path d="m29.1,26.86s0,0,0,0c0,0,0,0,0,0h0Z" style="fill:#191956;"/><path d="m29.12,27.39c.36.09,1.49.36,1.49-.31s-1.13-.4-1.49-.32c-.31.08-.31.55,0,.63h0Z" style="fill:#191956;"/><path d="m26.85,29.77c-.09.34-.14.68-.04,1.02.12.45.74.32.77-.1.02-.3-.04-.62-.13-.92-.08-.29-.51-.3-.6,0h0Z" style="fill:#191956;"/><path d="m25.15,32.3s0,0,0,0,0,0,0,0h0Z" style="fill:#191956;"/><path d="m24.57,32.68c-.23.32-.27.68-.22,1.06.08.56.92.32.84-.23-.03-.21.04-.44.02-.66-.03-.35-.44-.46-.65-.17h0Z" style="fill:#191956;"/><path d="m30.36,30c.47.11,1,.25,1.39-.11.08-.08.08-.23,0-.3-.39-.36-.92-.21-1.39-.11-.26.06-.26.46,0,.51h0Z" style="fill:#191956;"/><path d="m26.49,17.63s.05-.02.08-.04c-.06,0-.13-.02-.2-.02.3.26.99.08,1.21-.2.1-.13-.02-.3-.14-.35-.24-.09-.53-.05-.77.02-.26.08-.29.25-.35.46-.03.11.09.18.18.14h0Z" style="fill:#191956;"/><path d="m31.13,13.49c.05.18.1.36.17.54.07.18.21.25.39.22.03,0,.05-.02.08-.03.12-.07.19-.23.15-.36-.05-.18-.12-.36-.18-.53-.13-.38-.72-.23-.6.17h0Z" style="fill:#191956;"/><path d="m35.65,11.13c.27.25.59.52.95.62.13.04.28-.09.23-.23-.13-.37-.47-.56-.74-.84-.28-.29-.74.17-.44.44h0Z" style="fill:#191956;"/><path d="m37.21,13.8s0,0,0,0c0,0,0,0,0,0h0Z" style="fill:#191956;"/><path d="m35.5,13.69c-.03.39.78,1.15,1.15.78.47-.47-.57-1.15-1-.98-.09.04-.15.1-.15.2h0Z" style="fill:#191956;"/><path d="m38.68,9.94c.3-.05.59-.14.88-.21.28-.07.56-.06.8-.23.17-.13.21-.39,0-.51-.56-.32-1.29.18-1.85.34-.4.11-.23.69.17.62h0Z" style="fill:#191956;"/><path d="m40.22,12.12c.16.19.31.39.5.56.12.11.29-.03.22-.17-.11-.23-.25-.44-.38-.65-.17-.26-.54.02-.33.26h0Z" style="fill:#191956;"/><path d="m39.78,14.62c-.06.41-.02,1.75.63,1.75.19,0,.32-.17.27-.36-.11-.47-.4-.81-.38-1.32,0-.3-.48-.37-.52-.07h0Z" style="fill:#191956;"/><path d="m40.47,18.94c.41.13,1.03.33,1.42.08.14-.09.16-.26.05-.39-.33-.37-1.03-.33-1.46-.18-.24.08-.25.42,0,.49h0Z" style="fill:#191956;"/><path d="m40.26,22.65c.36-.21.89-.28,1.07-.69.07-.16-.01-.3-.18-.32-.46-.06-.87.35-1.15.67-.16.18.04.46.26.33h0Z" style="fill:#191956;"/><path d="m42.8,13.76s0,.02-.01.03c-.03.08,0,.17.06.23.26.27,1.03.44,1.3.11.03-.04.06-.09.04-.15-.12-.29-.46-.31-.73-.33-.19-.02-.56-.12-.65.11h0Z" style="fill:#191956;"/><path d="m44.66,16.86c.27-.31.84-.54.93-.96.02-.09-.02-.17-.11-.2-.52-.17-.97.49-1.2.87-.15.24.2.51.39.3h0Z" style="fill:#191956;"/><path d="m44.21,19.04c.21.12.32.2.56.22.11,0,.17-.12.12-.21-.12-.21-.25-.27-.45-.4-.24-.15-.46.23-.22.38h0Z" style="fill:#191956;"/><path d="m48.22,17.26c.33-.35,1.18-.56,1.18-1.13,0-.12-.09-.19-.2-.2-.51-.04-1.13.63-1.39,1.01-.17.25.21.52.41.31h0Z" style="fill:#191956;"/><path d="m42.45,5.69c-.03.23-.07.44-.16.67-.07.19-.17.5-.05.68.04.06.1.08.17.07.48-.07.87-1.46.29-1.62-.14-.04-.24.07-.25.19h0Z" style="fill:#191956;"/><path d="m47.71,3.3c.17-.02.33-.04.5-.06,0,0,0,0,0,0-.17.02-.33.04-.5.06,0,0,0,0,0,0h0Z" style="fill:#191956;"/><path d="m47.28,3.46c.43-.07.91.08,1.27-.2.07-.06.07-.19,0-.25-.37-.32-.99-.25-1.42-.09-.34.12-.2.6.15.54h0Z" style="fill:#191956;"/><path d="m50.76,1.13c-.04.36.28,1.35.81,1.04.42-.25-.32-1.06-.56-1.19-.12-.06-.24.02-.26.15h0Z" style="fill:#191956;"/><path d="m53.8,2.52c.33.1.66.22.98.07.09-.04.08-.16.03-.23-.21-.26-.56-.3-.86-.4-.35-.12-.51.44-.15.55h0Z" style="fill:#191956;"/><path d="m53.19,4.31c-.14.45.51,1.59,1.06,1.42.46-.14-.5-1.36-.66-1.53-.13-.14-.35-.06-.41.11h0Z" style="fill:#191956;"/><path d="m56.41,5.91c.44.26,1.1.5,1.62.38.11-.03.14-.15.1-.24-.26-.51-1.04-.48-1.52-.61-.29-.08-.45.33-.2.48h0Z" style="fill:#191956;"/><path d="m55.81,8.63c0,.34-.06.66.1.96.05.1.2.1.25,0,.16-.3.1-.63.1-.96,0-.29-.45-.29-.45,0h0Z" style="fill:#191956;"/><path d="m54.6,12.25c.15-.01.28-.02.42-.05.12-.03.12-.22,0-.24-.14-.03-.28-.04-.42-.05-.23-.02-.23.37,0,.35h0Z" style="fill:#191956;"/><path d="m59.99,8.42c.37-.08.76-.07,1.12-.21.26-.1.23-.5-.07-.5-.4,0-.8.11-1.17.25-.29.1-.18.53.13.46h0Z" style="fill:#191956;"/><path d="m64.24,3.89c-.29.34-.74.87-.37,1.3.09.1.25.08.33,0,.25-.23.3-.67.45-.98.12-.26-.21-.57-.42-.32h0Z" style="fill:#191956;"/><path d="m67.76,1.97s0,0,0,0c0,0,0,0,0,0h0Z" style="fill:#191956;"/><path d="m66.87,2.03c.54,0,1.25.23,1.71-.14.08-.07.08-.23,0-.3-.48-.4-1.32-.21-1.8.11-.14.1-.1.34.09.34h0Z" style="fill:#191956;"/><path d="m2.84,61.71c.2.4.72.79,1.18.62.1-.04.15-.16.07-.25-.26-.26-.61-.42-.9-.64-.2-.15-.47.03-.35.27h0Z" style="fill:#191956;"/><path d="m1.77,64.52c.11.35.09,1.09.56,1.16.13.02.23-.07.21-.2-.03-.18-.14-.33-.19-.51-.05-.19-.08-.38-.14-.56-.09-.27-.52-.16-.43.12h0Z" style="fill:#191956;"/><path d="m6.04,64.79c.4.05.83.16,1.22.04.13-.04.22-.24.09-.34-.37-.29-.86-.29-1.31-.35-.41-.05-.41.6,0,.65h0Z" style="fill:#191956;"/><path d="m7.82,59.14s0,0,0,0c0,0,0,0,0,0h0Z" style="fill:#191956;"/><path d="m7.69,60.23c.42-.27,1.36-.31,1.42-.93,0-.1-.09-.16-.17-.17-.27-.02-.53.16-.77.27-.29.14-.54.31-.72.59-.1.15.1.34.25.25h0Z" style="fill:#191956;"/><path d="m9.71,67.19c.03.36-.13.9.19,1.14.07.05.17.09.25.03.4-.28.27-.93.08-1.31-.12-.24-.53-.13-.51.14h0Z" style="fill:#191956;"/><path d="m6.06,68.01c.24.35.31.91.81.94.11,0,.21-.1.21-.21,0-.38-.32-.81-.55-1.1-.21-.26-.66.08-.47.36h0Z" style="fill:#191956;"/><path d="m8.22,71.88c.27-.08.53-.16.8-.22.29-.07.59-.06.86-.21.15-.09.14-.3,0-.39-.52-.33-1.29.13-1.79.34-.29.12-.19.58.13.49h0Z" style="fill:#191956;"/><path d="m7.54,75.14s0,0,0,0c0,0,0,0,0,0h0Z" style="fill:#191956;"/><path d="m7.14,75.36c.43.07,1.2.3,1.55-.03.03-.03.05-.09.03-.13-.17-.6-1.14-.38-1.58-.31-.23.04-.23.43,0,.46h0Z" style="fill:#191956;"/><path d="m2.99,78.19c.07.4,0,1.08.55,1.09.1,0,.17-.07.2-.16.12-.33-.11-.94-.37-1.16-.18-.16-.42,0-.38.22h0Z" style="fill:#191956;"/><path d="m13.34,70c.34.26.63.77,1.09.79.11,0,.18-.11.16-.2-.1-.45-.69-.71-1.07-.88-.2-.09-.34.16-.17.29h0Z" style="fill:#191956;"/><path d="m17.76,68.52s0,0,0,0c0,0,0,0,0,0h0Z" style="fill:#191956;"/><path d="m17.73,68.67c.42-.2,1.25-.05,1.35-.69.02-.12,0-.24-.12-.3-.48-.26-1.19.07-1.6.35-.4.27-.06.84.37.64h0Z" style="fill:#191956;"/><path d="m10.93,55.48c.12.36.4,1.01.89.85.06-.02.13-.07.14-.14.07-.42-.32-.9-.71-1.03-.18-.06-.38.13-.32.32h0Z" style="fill:#191956;"/><path d="m16.32,53.14s0,0,0,0c0,0,0,0,0,0h0Z" style="fill:#191956;"/><path d="m16.07,53.37c.46-.23,1.21-.04,1.52-.53.04-.07.03-.16-.03-.22-.47-.44-1.45-.1-1.82.33-.21.23.05.56.33.42h0Z" style="fill:#191956;"/><path d="m19.23,55.17c.34.43.81,1.03,1.43.9.11-.02.19-.16.15-.27-.16-.48-.74-.78-1.06-1.14-.32-.36-.8.15-.51.51h0Z" style="fill:#191956;"/><path d="m21.77,52.16c.39-.17.84-.29,1.15-.6.08-.08.03-.26-.1-.24-.43.06-.83.26-1.23.42-.3.13-.13.55.17.41h0Z" style="fill:#191956;"/><path d="m20.71,49.64s0,0,0,0c0,0,0,0,0,0h0Z" style="fill:#191956;"/><path d="m20.05,48.84c-.13.38-.31.86-.02,1.19.08.09.21.08.3.04.44-.2.37-.84.25-1.23-.08-.27-.45-.25-.53,0h0Z" style="fill:#191956;"/><path d="m24.04,55.65c.06.4.2.98.57,1.21.11.07.25,0,.29-.12.13-.42-.22-.83-.3-1.24-.07-.38-.62-.21-.57.16h0Z" style="fill:#191956;"/><path d="m22.66,59.84c.32.4.99,1.09,1.52.65.07-.06.06-.16.03-.24-.17-.4-.81-.55-1.13-.83-.29-.26-.66.12-.42.42h0Z" style="fill:#191956;"/><path d="m23.32,63.8s0,0,0,0c0,0,0,0,0,0h0Z" style="fill:#191956;"/><path d="m22.79,64.53c.46-.18,1.12-.04,1.5-.38.08-.07.07-.19,0-.26-.41-.44-1.28-.14-1.73.1-.29.16-.09.67.23.54h0Z" style="fill:#191956;"/><path d="m28.01,59.33c-.11.31-.2.65-.18.99.02.49.71.48.75,0,.02-.27,0-.54.05-.82.07-.41-.48-.56-.62-.17h0Z" style="fill:#191956;"/><path d="m24.54,47.05c.43-.02,1.26-.08,1.47-.53.04-.09.04-.2-.03-.27-.4-.35-.97.03-1.43.07-.46.04-.48.76,0,.73h0Z" style="fill:#191956;"/><path d="m28.41,43.16c.33.29.69.72,1.13.78.07,0,.14-.07.13-.13-.01-.49-.55-.75-.89-1.02-.27-.21-.65.15-.38.38h0Z" style="fill:#191956;"/><path d="m33.04,44.69c.4-.49,1.03-.9,1.25-1.5.05-.14-.11-.3-.25-.25-.63.23-1,.94-1.37,1.47-.16.22.2.49.37.29h0Z" style="fill:#191956;"/><path d="m32.7,41.06c.17-.23.37-.39.62-.54.17-.1.34-.14.49-.28.16-.15.03-.38-.16-.39-.53-.05-1.03.62-1.27,1.02-.12.21.18.38.32.19h0Z" style="fill:#191956;"/><path d="m36.86,41.66c.3.18.71.54,1.07.52.13,0,.2-.09.22-.22.06-.48-.59-.71-.93-.92-.39-.24-.75.38-.36.61h0Z" style="fill:#191956;"/><path d="m36.72,45.37c.16.26.2.61.48.77.06.03.16.02.19-.05.15-.34-.06-.68-.24-.97-.17-.26-.58-.03-.42.25h0Z" style="fill:#191956;"/><path d="m38.68,49.09c.42.08.85.16,1.27.2.41.04.46-.58.09-.7-.42-.13-.86-.09-1.29-.09-.33,0-.41.52-.08.58h0Z" style="fill:#191956;"/><path d="m41.63,46.89c.27.07.52.12.79.14.18.02.24-.25.09-.34-.24-.13-.48-.23-.74-.33-.32-.12-.48.43-.14.52h0Z" style="fill:#191956;"/><path d="m36.91,52.2c.19.33.39.64.8.66.14,0,.29-.13.28-.28-.03-.38-.3-.53-.54-.8-.26-.31-.74.09-.54.42h0Z" style="fill:#191956;"/><path d="m34.33,56.31c.44.27,1.09.35,1.54.05.2-.14.21-.41,0-.55-.46-.31-1.1-.12-1.54.16-.13.08-.13.27,0,.35h0Z" style="fill:#191956;"/><path d="m44.04,48.89c.48.2,1.31-.13,1.43-.66.02-.08-.02-.17-.11-.19-.45-.12-1.12.14-1.41.5-.11.13-.06.29.09.35h0Z" style="fill:#191956;"/><path d="m37.49,37.7c.36-.43.86-.7,1.21-1.13.1-.12,0-.28-.15-.25-.58.11-1.01.71-1.33,1.17-.11.16.15.36.27.21h0Z" style="fill:#191956;"/><path d="m41.51,33.76c.28.16.7.43,1.03.3.09-.04.15-.1.15-.2,0-.5-.64-.63-1.04-.61-.26.02-.38.37-.14.51h0Z" style="fill:#191956;"/><path d="m45.15,31.38c.45-.22.98-.25,1.41-.51.09-.05.1-.2,0-.25-.53-.27-1.17.1-1.63.38-.25.15-.03.51.23.39h0Z" style="fill:#191956;"/><path d="m47.34,33.36c.3.49.34,1.01.95,1.17.1.03.21-.09.14-.19-.27-.38-.42-.84-.69-1.22-.17-.24-.56-.02-.4.23h0Z" style="fill:#191956;"/><path d="m50.77,31.63c.43-.15.95.09,1.33-.17.06-.04.08-.13.02-.19-.39-.39-1.09-.28-1.53-.06-.23.12-.07.51.18.42h0Z" style="fill:#191956;"/><path d="m49.87,28.81c.34-.15.62-.35.91-.58.26-.21.69-.43.75-.78.01-.08-.02-.17-.11-.19-.29-.06-.48.11-.7.3-.35.3-.67.64-1.06.9-.23.15-.03.46.21.36h0Z" style="fill:#191956;"/><path d="m51.73,34.8c.19.37.47,1.07.98,1.01.1-.01.18-.07.18-.18.02-.43-.54-.8-.8-1.11-.18-.21-.47.06-.36.28h0Z" style="fill:#191956;"/><path d="m51.22,39.3c.33.2.87.48,1.26.46.09,0,.15-.1.11-.19-.2-.38-.83-.41-1.18-.6-.22-.12-.41.21-.19.33h0Z" style="fill:#191956;"/><path d="m50.83,43.71c.23-.06.46-.1.69-.16.14-.04.13-.23,0-.27-.28-.09-.54-.09-.83-.05-.31.04-.19.56.13.48h0Z" style="fill:#191956;"/><path d="m56.17,37.45c.33.12.59.13.94.06.23-.04.74-.31.62-.63-.24-.6-1.26.09-1.59.29-.12.07-.08.24.04.28h0Z" style="fill:#191956;"/><path d="m55.32,39.9s0,.01,0,.02c-.05.11-.04.21.04.3.03.03.05.06.08.09.08.09.26.12.36.05.02-.02.05-.04.07-.06.09-.07.13-.17.07-.28-.09-.16-.5-.4-.62-.13h0Z" style="fill:#191956;"/><path d="m60.54,36c.41-.11.94-.14,1.25-.44.06-.06.04-.18-.05-.2-.42-.09-.9.14-1.31.25-.25.07-.14.46.11.39h0Z" style="fill:#191956;"/><path d="m54.28,23.97c.18.33.62.78,1.03.62.1-.04.15-.12.13-.23-.08-.36-.56-.52-.84-.71-.21-.14-.43.13-.32.32h0Z" style="fill:#191956;"/><path d="m58.55,21.95c.36-.21.73-.36,1.12-.52.31-.13.6-.2.72-.53.04-.1-.04-.2-.13-.23-.32-.11-.61.1-.89.24-.37.17-.72.39-1.05.62-.25.18-.03.57.24.41h0Z" style="fill:#191956;"/><path d="m61.05,23.66c.15.5.96,1.19,1.52.87.23-.14.21-.45,0-.59-.29-.19-.74-.18-.91-.53-.17-.34-.71-.1-.6.25h0Z" style="fill:#191956;"/><path d="m63.33,21.81c.35.09.99.04,1.19-.31.04-.07.03-.14-.03-.2-.33-.35-1.15-.18-1.29.29-.03.09.03.2.13.22h0Z" style="fill:#191956;"/><path d="m62.96,18.99c.38-.23,1.13-.36,1.14-.91,0-.09-.08-.17-.17-.17-.42.02-.91.36-1.25.59-.29.2-.03.67.28.48h0Z" style="fill:#191956;"/><path d="m65.59,24.91c.25.27.52.51.87.65.07.03.14-.06.12-.12-.11-.39-.46-.52-.76-.76-.16-.13-.38.07-.23.23h0Z" style="fill:#191956;"/><path d="m64.92,28.48c.15.18.22.28.43.35.07.02.13-.05.12-.11-.05-.22-.16-.31-.3-.49s-.4.08-.25.25h0Z" style="fill:#191956;"/><path d="m64.82,31.47s0,0,0,0c0,0,0,0,0,0h0Z" style="fill:#191956;"/><path d="m64.1,31.99c.38.13.82.4,1.2.14.09-.06.12-.17.07-.26-.25-.44-.86-.43-1.27-.26-.17.07-.19.31,0,.37h0Z" style="fill:#191956;"/><path d="m69.17,27.62c.47-.1,1.22-.15,1.54-.54.08-.1.05-.24-.07-.28-.48-.15-1.14.17-1.62.28-.35.08-.2.61.15.54h0Z" style="fill:#191956;"/><path d="m70.94,25.23c.25.25.61.58.97.34.06-.04.12-.13.08-.21-.12-.31-.44-.42-.7-.6-.29-.19-.6.23-.36.47h0Z" style="fill:#191956;"/><path d="m67.6,14.21c.3-.2.76-.41.9-.75.04-.09-.04-.2-.13-.23-.44-.12-.74.39-1.04.63-.2.16.06.49.27.35h0Z" style="fill:#191956;"/><path d="m71.99,11.47c.36.12.91.44,1.28.3.15-.06.25-.23.16-.38-.28-.42-1.23-.7-1.54-.18-.06.1,0,.22.11.26h0Z" style="fill:#191956;"/><path d="m75.16,9.18c.6-.16,1.22-.17,1.81-.36.13-.04.13-.22,0-.26-.7-.23-1.33-.1-1.98.21-.23.11-.07.47.17.41h0Z" style="fill:#191956;"/><path d="m79.04,7.08s0,0,0,0c0,0,0,0,0,0h0Z" style="fill:#191956;"/><path d="m78.3,6.43c-.15.39.04,1,.42,1.19.12.06.26-.01.27-.15.03-.37-.29-.74-.45-1.07-.05-.11-.2-.06-.24.03h0Z" style="fill:#191956;"/><path d="m78.02,11.03c.18.24.35.46.48.73.19.39.71.1.65-.27-.06-.36-.36-.61-.59-.86-.26-.28-.77.1-.53.41h0Z" style="fill:#191956;"/><path d="m75.93,13.45c.23.33.47.75.82.97.1.07.24-.04.21-.16-.11-.38-.46-.69-.69-1-.15-.2-.48,0-.33.2h0Z" style="fill:#191956;"/><path d="m78.08,17.89c.28-.35.71-.95.63-1.42-.02-.1-.13-.15-.22-.13-.5.13-.54.9-.75,1.29-.11.2.18.45.33.26h0Z" style="fill:#191956;"/><path d="m77.32,21.78c.3-.1.63-.06.88-.26.1-.07.03-.21-.07-.25-.29-.11-.65,0-.93.11-.24.09-.15.49.11.4h0Z" style="fill:#191956;"/><path d="m2.21,93.88c.42.11.99,0,1.34-.25.09-.07.08-.19-.03-.23-.39-.15-.93-.02-1.31.09-.19.06-.2.34,0,.39h0Z" style="fill:#191956;"/><path d="m5.92,91.25c.14-.08.29-.17.43-.25.16-.09.05-.39-.13-.31-.15.06-.3.13-.45.19-.28.12-.09.52.16.37h0Z" style="fill:#191956;"/><path d="m6.12,93.74c-.07.54.41,1.24,1.01.87.08-.05.11-.15.06-.23-.2-.32-.58-.42-.79-.71-.09-.12-.26-.08-.27.07h0Z" style="fill:#191956;"/><path d="m4.61,97.06c.55.15,1.29.38,1.85.25.1-.02.11-.14.06-.21-.38-.47-1.5-.81-1.99-.35-.1.1-.05.28.08.31h0Z" style="fill:#191956;"/><path d="m7.5,99.78c.23.13.63.74.93.54.12-.08.16-.19.13-.33-.09-.43-.46-.62-.83-.76-.32-.13-.52.38-.23.55h0Z" style="fill:#191956;"/><path d="m10.1,98.36s0,0,0,0c0,0,0,0,0,0h0Z" style="fill:#191956;"/><path d="m9.76,98.58c.31.32.84.45,1.27.32.13-.04.15-.18.07-.27-.3-.37-.87-.49-1.31-.3-.1.04-.1.18-.03.25h0Z" style="fill:#191956;"/><path d="m6.76,103.19c0,.46-.08,1.56.57,1.65.19.03.43-.08.41-.31-.02-.25-.16-.48-.22-.73-.06-.26-.13-.51-.24-.75-.12-.26-.52-.12-.52.14h0Z" style="fill:#191956;"/><path d="m4.76,108.4c.47-.04.93,0,1.39-.13.2-.06.19-.33,0-.39-.52-.17-.99,0-1.46.23-.14.06-.07.3.08.29h0Z" style="fill:#191956;"/><path d="m8.76,106.71c.35-.09.64.04.91-.23.06-.06.08-.2,0-.26-.36-.29-.63-.04-1.01.11-.23.09-.15.45.1.38h0Z" style="fill:#191956;"/><path d="m2.15,110.11c-.08.48.02,1.03.43,1.33.29.2.53-.17.43-.43-.12-.29-.3-.5-.29-.82,0-.32-.51-.4-.57-.08h0Z" style="fill:#191956;"/><path d="m11.65,102.44c.52.11,1.08.12,1.53-.22.1-.08.11-.21,0-.29-.5-.35-1.01,0-1.53.12-.19.04-.19.34,0,.39h0Z" style="fill:#191956;"/><path d="m16.3,99.84c.37-.18,1.01-.25,1.19-.66.04-.1.03-.22-.07-.28-.45-.25-1.04.17-1.42.41-.33.22-.05.69.3.52h0Z" style="fill:#191956;"/><path d="m20.37,96c-.07.36-.17.7-.1,1.07.02.1.11.17.2.2.02,0,.05.02.08.03.08.03.14-.02.19-.08.1-.13.1-.21.1-.38,0-.23.05-.46.09-.69.05-.36-.48-.52-.55-.15h0Z" style="fill:#191956;"/><path d="m8.99,87.76c.44.16,1.11.45,1.54.16.11-.08.13-.22.04-.32-.36-.4-1.12-.38-1.59-.21-.18.07-.18.31,0,.37h0Z" style="fill:#191956;"/><path d="m14.49,85.3c.34-.34.89-.61,1.08-1.06.05-.12-.08-.26-.2-.26-.54,0-.97.63-1.27,1.02-.17.23.19.49.38.29h0Z" style="fill:#191956;"/><path d="m17.87,86.99c.43,0,.96.04,1.35-.19.09-.05.09-.18,0-.24-.39-.25-.91-.09-1.35-.08-.32,0-.32.5,0,.5h0Z" style="fill:#191956;"/><path d="m19.82,83.14s0,0,0,0c0,0,0,0,0,0h0Z" style="fill:#191956;"/><path d="m19.15,83.8c.47-.4,1.26-.78,1.38-1.44.03-.2-.14-.32-.32-.25-.57.25-1.03.97-1.3,1.5-.08.16.11.31.25.19h0Z" style="fill:#191956;"/><path d="m18.48,81.03c.46-.13.97-.44,1.34-.73.1-.08.03-.23-.07-.27-.56-.2-1.19.28-1.48.73-.09.14.06.31.21.27h0Z" style="fill:#191956;"/><path d="m21.98,78.64c-.05.33-.04.62.06.94.04.12.15.22.28.21.09,0,.13-.02.2-.08.07-.06.11-.19.07-.28-.11-.26-.22-.51-.28-.79-.03-.17-.31-.17-.34,0h0Z" style="fill:#191956;"/><path d="m21.87,85.9c.13.38.32.77.74.87.14.03.23-.13.14-.23-.22-.25-.41-.4-.54-.73-.08-.21-.41-.12-.34.09h0Z" style="fill:#191956;"/><path d="m20.92,89.7c.3.27.58.65,1.01.65.15,0,.23-.14.21-.27-.07-.4-.45-.61-.75-.85-.33-.26-.8.18-.47.47h0Z" style="fill:#191956;"/><path d="m22.98,93.49c.51-.06,1.01-.07,1.49-.27.16-.07.14-.29-.04-.31-.48-.04-.96-.05-1.44-.04-.4,0-.38.66,0,.61h0Z" style="fill:#191956;"/><path d="m25.49,89.41c.33.36.71.73,1.22.77.13,0,.21-.18.11-.26-.33-.28-.7-.51-1-.84-.21-.22-.53.11-.33.33h0Z" style="fill:#191956;"/><path d="m29.37,91.46c.12-.15.25-.3.38-.45.18-.19-.04-.48-.28-.36-.22.12-.42.26-.61.41-.34.27.2.79.51.39h0Z" style="fill:#191956;"/><path d="m29.54,88.55c.41-.04,1.03.04,1.37-.2.11-.08.12-.24,0-.31-.42-.25-1.15-.08-1.46.28-.07.08-.03.25.1.23h0Z" style="fill:#191956;"/><path d="m25.67,75.53c.56.23,1.13.9,1.79.64.13-.05.16-.25,0-.29-.31-.08-.6-.13-.9-.28-.26-.13-.54-.25-.83-.31-.16-.03-.21.18-.07.24h0Z" style="fill:#191956;"/><path d="m28.81,73.74c.48-.09.9-.25,1.35-.44.32-.14.81-.22.94-.58.01-.04,0-.09-.03-.11-.28-.27-.71-.07-1.01.06-.49.21-.93.48-1.38.76-.17.11-.06.35.13.32h0Z" style="fill:#191956;"/><path d="m31.39,75.45c.23.19.52.29.78.43.3.16.59.31.93.35.14.02.19-.17.11-.26-.37-.38-1.2-.88-1.75-.74-.09.02-.13.15-.06.22h0Z" style="fill:#191956;"/><path d="m32.99,78.59c-.07.36-.14.8.09,1.11.07.1.2.08.25-.03.13-.33.04-.74-.03-1.08-.03-.16-.29-.16-.31,0h0Z" style="fill:#191956;"/><path d="m34.09,84.27c.55-.16,1.14.06,1.67-.16.14-.06.23-.29.05-.37-.6-.27-1.31-.15-1.87.17-.19.11-.06.42.15.36h0Z" style="fill:#191956;"/><path d="m36.45,80.6c.33.17.67.36,1.01.5.14.06.3-.07.21-.21-.2-.36-.59-.57-.94-.77-.31-.19-.6.32-.28.48h0Z" style="fill:#191956;"/><path d="m34.83,86.87c.38-.09.8-.16,1.11-.4.1-.08.04-.26-.07-.28-.39-.1-.79.1-1.17.2-.31.08-.18.56.13.48h0Z" style="fill:#191956;"/><path d="m35.65,77.19c.37.15.68.51,1.1.42.09-.02.13-.14.09-.22-.2-.36-.69-.54-1.07-.65-.29-.09-.39.33-.12.44h0Z" style="fill:#191956;"/><path d="m34.19,72.09c.25-.35.64-.54.78-.95.05-.15-.11-.31-.27-.27-.46.15-.72.57-.93.98-.14.28.24.49.41.24h0Z" style="fill:#191956;"/><path d="m36.26,67.63c.27,0,.49.02.73-.12.08-.05.08-.16,0-.2-.23-.14-.46-.12-.73-.12-.28,0-.28.44,0,.44h0Z" style="fill:#191956;"/><path d="m40.29,64.71c.33.3.71.63,1.16.72.14.03.23-.13.14-.23-.27-.32-.69-.5-1.02-.76-.19-.15-.46.11-.27.27h0Z" style="fill:#191956;"/><path d="m44.77,66.85c.22-.35.52-.77.61-1.17.03-.14-.08-.24-.22-.22-.5.07-.72.69-.96,1.06-.23.35.34.69.56.33h0Z" style="fill:#191956;"/><path d="m43.93,63.06c.38.09.72.29,1.1.13.16-.07.18-.28,0-.35-.33-.12-.7-.18-1.05-.21-.25-.02-.29.37-.06.43h0Z" style="fill:#191956;"/><path d="m47.76,64.02s0,0,0,0c0,0,0,0,0,0h0Z" style="fill:#191956;"/><path d="m47.52,64.34c-.1.46-.1,1.12.35,1.4.09.06.2-.04.18-.13-.09-.43-.34-.8-.37-1.25,0-.08-.13-.11-.15-.02h0Z" style="fill:#191956;"/><path d="m46.98,69.2c.29.23.65.53,1.04.44.06-.01.1-.08.08-.14-.13-.34-.5-.43-.77-.64-.25-.2-.6.15-.35.35h0Z" style="fill:#191956;"/><path d="m46.69,76.38c.37-.2.82-.25,1.14-.52.15-.13.05-.35-.11-.41-.46-.16-.96.18-1.32.43-.31.21-.04.68.29.5h0Z" style="fill:#191956;"/><path d="m48.71,72.86s0,0,0,0c0,0,0,0,0,0h0Z" style="fill:#191956;"/><path d="m48.43,72.93c.42.06.8.26,1.22.3.14.01.19-.17.11-.26-.31-.32-.85-.37-1.28-.42-.22-.03-.27.35-.05.38h0Z" style="fill:#191956;"/><path d="m42.36,79.31c.27.24.54.42.9.35.16-.03.17-.23.09-.33-.21-.27-.54-.28-.86-.31-.15-.02-.23.2-.12.3h0Z" style="fill:#191956;"/><path d="m39.76,83.24c.28-.32.67-.54.9-.9.1-.15-.06-.36-.23-.3-.45.13-.82.51-1.04.91-.12.23.19.5.37.29h0Z" style="fill:#191956;"/><path d="m50.93,69.52c.07.54.7,1.27,1.26.82.06-.05.04-.14,0-.19-.24-.31-.76-.37-.95-.71-.08-.13-.33-.09-.31.08h0Z" style="fill:#191956;"/><path d="m53.87,72.31c.64-.32,1.35-.52,1.87-1.04.11-.11.04-.34-.14-.33-.79.06-1.39.56-1.98,1.05-.19.16.05.42.25.33h0Z" style="fill:#191956;"/><path d="m57.5,68.61c.4-.07.85-.13,1.19-.38.14-.11.09-.32-.09-.33-.41-.04-.83.13-1.24.2-.33.06-.19.56.14.51h0Z" style="fill:#191956;"/><path d="m47.23,59.44c.14.26.22.56.48.73.08.05.16-.03.15-.11-.05-.27-.22-.53-.34-.78-.1-.19-.38-.02-.28.17h0Z" style="fill:#191956;"/><path d="m50.76,57.23c.58-.22,1.36-.22,1.81-.67.11-.11.07-.32-.09-.35-.66-.13-1.35.29-1.89.62-.2.13-.07.49.17.4h0Z" style="fill:#191956;"/><path d="m55.52,53.67c.38.19.89.67,1.34.53.1-.03.14-.12.12-.22-.08-.45-.74-.74-1.1-.93-.41-.22-.78.42-.37.63h0Z" style="fill:#191956;"/><path d="m57.71,56.58s0,0,0,0c0,0,0,0,0,0h0Z" style="fill:#191956;"/><path d="m57.43,57.08c.32-.01.63-.05.94-.1.29-.04.6-.04.83-.24.08-.08.09-.24,0-.32-.49-.4-1.53-.09-1.89.37-.08.11-.04.3.12.29h0Z" style="fill:#191956;"/><path d="m59.4,53.48c.36.25.77.39,1.21.33.1-.02.19-.12.21-.21.01-.06,0-.1,0-.16-.02-.11-.12-.18-.21-.21-.32-.12-.67-.12-1-.25-.31-.12-.46.34-.21.51h0Z" style="fill:#191956;"/><path d="m60.1,50.81c.52-.49,1.41-.7,1.78-1.32.13-.21-.08-.42-.3-.39-.36.06-.66.29-.96.47-.35.22-.68.47-.97.77-.29.3.15.74.46.46h0Z" style="fill:#191956;"/><path d="m65.17,45.33c.25.22.56.42.88.5.13.03.24-.1.17-.22-.17-.3-.51-.37-.76-.57-.2-.16-.49.11-.29.29h0Z" style="fill:#191956;"/><path d="m64.1,47.35c.17.02.33.08.5.1.13.01.24-.14.2-.26-.11-.29-.33-.4-.61-.48-.44-.13-.57.58-.09.64h0Z" style="fill:#191956;"/><path d="m68.56,44.13c.59-.16,1.24.41,1.8.17.11-.04.17-.15.11-.26-.31-.6-1.59-.71-2.13-.43-.3.15-.09.61.22.52h0Z" style="fill:#191956;"/><path d="m69.4,46.72c.2.23.36.5.61.68.13.09.3-.06.26-.2-.09-.31-.36-.54-.58-.76-.19-.18-.46.09-.28.28h0Z" style="fill:#191956;"/><path d="m61.77,58.74c.31.29.63.72,1.07.82.09.02.19-.04.19-.14,0-.48-.4-.89-.71-1.22-.34-.36-.91.2-.55.55h0Z" style="fill:#191956;"/><path d="m60.97,61.73c.43.22.88.45,1.32.65.15.07.29-.07.22-.22-.22-.5-.84-.62-1.29-.85-.28-.14-.52.27-.24.41h0Z" style="fill:#191956;"/><path d="m62.15,65.19s0,0,0,0,0,0,0,0h0Z" style="fill:#191956;"/><path d="m61.4,65.35c.2.29.32.47.65.63.25.13.55.17.77-.03.06-.06.05-.15,0-.2-.3-.33-.88-.38-1.27-.54-.08-.04-.21.05-.14.14h0Z" style="fill:#191956;"/><path d="m65.47,63.13c.36-.14.72-.29,1.08-.44.32-.13.68-.27.84-.59.04-.08.01-.21-.09-.23-.34-.06-.59.11-.88.27-.37.21-.71.47-1.07.68-.16.09-.05.38.13.3h0Z" style="fill:#191956;"/><path d="m67.15,59.36s0,0,0,0,0,0,0,0h0Z" style="fill:#191956;"/><path d="m65.73,59.65c.4.15.84.33,1.25.13.07-.03.07-.15,0-.18-.37-.18-.81-.2-1.22-.21-.15,0-.17.21-.04.25h0Z" style="fill:#191956;"/><path d="m70.54,59.71c.22-.1.43-.21.65-.31.19-.09.05-.41-.14-.34-.23.08-.45.16-.68.24-.3.11-.12.55.17.41h0Z" style="fill:#191956;"/><path d="m72.91,47.24c-.04.47-.05,1.13.34,1.46.1.08.27.06.3-.08.1-.44-.11-.93-.15-1.38-.02-.32-.47-.32-.49,0h0Z" style="fill:#191956;"/><path d="m71.94,41.38c.47.32.71,1.29,1.38,1.26.11,0,.22-.11.17-.23-.22-.58-.9-1.13-1.51-1.22-.1-.01-.12.13-.05.18h0Z" style="fill:#191956;"/><path d="m73.7,44.97c.36-.08.74-.05,1.08-.22.11-.05.08-.22-.03-.25-.38-.1-.77.01-1.14.13-.21.07-.13.38.09.33h0Z" style="fill:#191956;"/><path d="m69.19,41.47c.2.14.33.28.58.28.12,0,.19-.12.17-.22-.05-.26-.26-.38-.48-.51-.29-.18-.54.26-.27.45h0Z" style="fill:#191956;"/><path d="m74.21,37.56c.48-.21,1.19-.24,1.55-.64.08-.08.06-.25-.07-.27-.56-.1-1.23.25-1.72.51-.27.14-.03.52.24.4h0Z" style="fill:#191956;"/><path d="m73.21,39.25s0,0,0,0c0,0,0,0,0,0h0Z" style="fill:#191956;"/><path d="m74.3,39.65c.25.27.63.9,1.07.74.06-.02.14-.07.15-.15.08-.55-.65-.85-1.09-.91-.17-.02-.22.21-.13.31h0Z" style="fill:#191956;"/><path d="m78.32,37.54c.45-.04,1,.11,1.3-.29.07-.1.01-.24-.08-.3-.36-.23-.91-.01-1.28.13-.24.09-.22.49.06.46h0Z" style="fill:#191956;"/><path d="m77.78,34.76c.2-.26.44-.4.73-.54.25-.12.47-.25.52-.54.02-.08-.02-.19-.12-.21-.61-.08-1.28.45-1.54.98-.12.25.21.55.4.31h0Z" style="fill:#191956;"/><path d="m75.77,47.66c.06.45.44,1.02.89,1.12.11.02.24-.07.19-.19-.14-.38-.55-.88-.93-1.05-.09-.04-.17.02-.16.12h0Z" style="fill:#191956;"/><path d="m74.5,51.5c.33.31.88.88,1.37.83.07,0,.15-.06.14-.14-.05-.57-.84-.76-1.26-1.02-.2-.12-.43.17-.25.33h0Z" style="fill:#191956;"/><path d="m73.42,55.14c.16.4.17.97.51,1.27.09.08.24.05.27-.07.11-.45-.15-.99-.34-1.39-.11-.25-.54-.07-.44.19h0Z" style="fill:#191956;"/><path d="m78.4,51.74c.11.42.06.92.28,1.3.06.11.27.1.29-.04.06-.44-.06-.95-.18-1.37-.07-.25-.45-.14-.38.11h0Z" style="fill:#191956;"/><path d="m8.33,120.19c.4.09.78-.04,1.16-.16.25-.08.49-.16.74-.23.21-.06.41-.05.61-.16.1-.05.08-.18,0-.24-.3-.22-.7-.09-1.04,0-.48.12-1,.29-1.47.45-.16.06-.18.3,0,.35h0Z" style="fill:#191956;"/><path d="m11.96,116.23c.53.12.9.69,1.47.69.08,0,.15-.1.1-.17-.33-.48-.99-.71-1.55-.7-.11,0-.13.17-.03.19h0Z" style="fill:#191956;"/><path d="m16.13,114.27c.16-.42.51-.73.7-1.13.13-.29-.28-.55-.44-.25-.23.44-.73.89-.44,1.41.04.08.15.05.18-.02h0Z" style="fill:#191956;"/><path d="m19.21,114.87c.44.21.99.58,1.5.53.12-.01.22-.17.11-.27-.37-.32-.94-.43-1.39-.63-.25-.11-.47.25-.22.37h0Z" style="fill:#191956;"/><path d="m13.05,119.02c-.06.33-.29.71-.07,1.01.05.06.14.09.2.02.21-.24.23-.62.29-.92.05-.27-.36-.39-.42-.11h0Z" style="fill:#191956;"/><path d="m19.47,111.37c.49-.29,1.25-.14,1.6-.66.06-.08,0-.22-.1-.24-.59-.12-1.46.17-1.63.8-.02.07.06.14.13.1h0Z" style="fill:#191956;"/><path d="m23.98,111.3s0,0,0,0c0,0,0,0,0,0h0Z" style="fill:#191956;"/><path d="m24.06,111.2c.12.62-.1,1.96.8,2.06.18.02.34-.2.28-.37-.1-.3-.29-.55-.38-.87-.08-.32-.11-.65-.18-.97-.07-.34-.59-.2-.52.14h0Z" style="fill:#191956;"/><path d="m24.51,107.97c.2-.27.49-.47.76-.65.19-.12.39-.24.43-.47.02-.08,0-.16-.08-.2-.63-.33-1.33.67-1.53,1.15-.11.25.28.36.41.17h0Z" style="fill:#191956;"/><path d="m24.94,116.5c.59.09,1.32.26,1.91.08.12-.04.11-.19,0-.23-.57-.19-1.27-.14-1.87-.15-.17,0-.21.27-.04.3h0Z" style="fill:#191956;"/><path d="m25.91,120.24c.19.08.39.13.59.19.21.06.38.18.59.2.08,0,.17-.08.16-.16-.04-.56-.79-.61-1.2-.77-.34-.13-.48.41-.15.54h0Z" style="fill:#191956;"/><path d="m30.76,117.47s0,0,0,0c0,0,0,0,0,0h0Z" style="fill:#191956;"/><path d="m30.24,117.02c-.05.47.31.99.8.99.18,0,.25-.18.19-.33-.14-.29-.43-.58-.66-.81-.13-.13-.31-.02-.33.14h0Z" style="fill:#191956;"/><path d="m30.22,104.16c.11-.29.16-.62.25-.92.07-.25.21-.6.06-.84-.03-.06-.1-.07-.16-.04-.25.13-.34.49-.43.74-.12.33-.27.71-.2,1.06.06.26.39.21.47,0h0Z" style="fill:#191956;"/><path d="m33.81,100.98c.45.23,1.09.61,1.61.44.14-.05.17-.2.08-.31-.29-.38-.93-.51-1.35-.72-.39-.2-.73.39-.34.59h0Z" style="fill:#191956;"/><path d="m35.54,104.08l.25.25c.16.16.44-.05.32-.25-.06-.1-.12-.2-.19-.3-.19-.3-.63.05-.38.29h0Z" style="fill:#191956;"/><path d="m37.44,98.91c.56-.25.9-.79,1.45-1.06.39-.2.05-.8-.35-.59-.58.31-1.03.86-1.28,1.47-.05.12.06.24.18.18h0Z" style="fill:#191956;"/><path d="m39.06,101.77c.45.28.88.68,1.38.84.11.04.2-.08.18-.18-.12-.6-.8-.87-1.27-1.16-.32-.19-.61.3-.29.5h0Z" style="fill:#191956;"/><path d="m39.52,106.25c.06.32.11.61.29.89.08.12.24.06.25-.07.03-.3-.02-.59-.05-.89-.04-.36-.56-.29-.49.07h0Z" style="fill:#191956;"/><path d="m39.13,110.74c.13.04.27.08.4.12.26.08.42-.3.18-.43-.12-.07-.24-.14-.37-.21-.36-.2-.62.4-.22.52h0Z" style="fill:#191956;"/><path d="m36.03,114.45c.3.22.64.51,1.02.57.1.01.23-.04.21-.16-.07-.53-.59-.6-.99-.82-.27-.15-.49.23-.24.41h0Z" style="fill:#191956;"/><path d="m47.76,119.55c.45-.06.91-.06,1.28-.36.09-.07.04-.25-.07-.27-.47-.09-.82.22-1.25.35-.15.04-.12.3.04.28h0Z" style="fill:#191956;"/><path d="m51.28,116.95c.35-.09.66-.25,1-.38.28-.11.59-.12.81-.34.05-.05.06-.15,0-.2-.5-.48-1.44.24-1.95.39-.34.1-.2.63.15.53h0Z" style="fill:#191956;"/><path d="m51.26,119.52s0,0,0,0c0,0,0,0,0,0h0Z" style="fill:#191956;"/><path d="m51.11,119.12c-.22.4-.67,1.02-.38,1.49.07.11.23.11.29,0,.22-.37.31-.85.5-1.24.13-.28-.26-.52-.41-.24h0Z" style="fill:#191956;"/><path d="m46.08,120.82c.21.31.46.7.85.77.17.03.28-.12.21-.28-.13-.29-.42-.5-.6-.76-.19-.29-.66-.02-.47.27h0Z" style="fill:#191956;"/><path d="m43.07,105.61c.4.27,1.09.53,1.56.43.09-.02.12-.13.08-.2-.27-.47-1.07-.54-1.56-.54-.17,0-.22.22-.08.31h0Z" style="fill:#191956;"/><path d="m43.87,108.14s0,0,0,0c0,0,0,0,0,0h0Z" style="fill:#191956;"/><path d="m43.86,109.03c.27-.12.55,0,.82-.14.11-.06.11-.23,0-.29-.33-.2-.71-.13-1.02.08-.22.15-.03.45.2.35h0Z" style="fill:#191956;"/><path d="m48.04,106.09c.24-.15.46-.31.7-.46.23-.14.48-.23.61-.48.05-.09,0-.21-.1-.24-.55-.15-1.08.54-1.47.84-.19.15.06.46.25.33h0Z" style="fill:#191956;"/><path d="m43.01,93.05c-.32.27-.52.75-.55,1.16-.03.31.43.34.51.07.11-.34.17-.68.35-.99.12-.2-.14-.38-.31-.24h0Z" style="fill:#191956;"/><path d="m46.63,90.98c.29.27.63.44,1.01.55.35.1.81.39,1.18.35.13-.02.21-.11.19-.25-.13-.79-1.61-.64-2.15-.94-.18-.1-.37.14-.22.28h0Z" style="fill:#191956;"/><path d="m50.46,88.94c.2-.21.43-.38.63-.58.16-.15.1-.48-.14-.52-.47-.08-.71.28-1,.59-.31.33.18.83.5.5h0Z" style="fill:#191956;"/><path d="m52.32,91.3s0,0,0,0c0,0,0,0,0,0h0Z" style="fill:#191956;"/><path d="m52.03,91.68c.2.45.46,1.3,1.07,1.29.13,0,.22-.1.23-.23.01-.51-.66-.89-.94-1.27-.16-.22-.47-.04-.36.21h0Z" style="fill:#191956;"/><path d="m50.28,94.39c.08.06.17.12.25.18.2.15.49-.14.35-.35-.06-.08-.12-.17-.18-.25-.29-.4-.81.13-.42.42h0Z" style="fill:#191956;"/><path d="m52.69,97.44c.42-.08.89.05,1.33,0,.13,0,.29-.09.31-.24,0-.06,0-.11,0-.17-.02-.15-.18-.23-.31-.24-.54-.04-.98.09-1.44.36-.16.09-.05.3.12.27h0Z" style="fill:#191956;"/><path d="m54.75,95.02c.33-.05.68-.04.98-.2.11-.06.09-.21,0-.28-.38-.25-.75-.03-1.11.16-.19.1-.05.35.13.32h0Z" style="fill:#191956;"/><path d="m58.23,95.33c.26.35.23.99.71,1.14.12.04.2-.06.22-.16.05-.45-.35-.96-.7-1.2-.13-.09-.32.09-.22.22h0Z" style="fill:#191956;"/><path d="m56.94,98.39c.25.34.51.89.99.93.08,0,.13-.07.13-.13.02-.47-.54-.8-.88-1.04-.14-.1-.35.1-.24.24h0Z" style="fill:#191956;"/><path d="m53.02,100.69c.34.19,1.07.34,1.46.23.09-.03.16-.13.13-.23-.17-.53-1.07-.56-1.52-.48-.23.04-.25.37-.06.48h0Z" style="fill:#191956;"/><path d="m51.87,103.47s0,0,0,0c0,0,0,0,0,0h0Z" style="fill:#191956;"/><path d="m51.74,104.36c.28-.21.79-.68.76-1.06,0-.07-.05-.15-.13-.17-.46-.09-.81.52-1,.86-.12.22.14.54.37.37h0Z" style="fill:#191956;"/><path d="m54.56,88.17c.11-.38.36-.73.42-1.12.02-.12-.1-.19-.2-.11-.32.27-.39.77-.49,1.16-.04.17.22.24.26.07h0Z" style="fill:#191956;"/><path d="m55.34,84.54c.52-.13,1.2.09,1.63-.31.13-.12.05-.3-.09-.36-.47-.19-1.21-.07-1.69.08-.37.11-.22.68.16.58h0Z" style="fill:#191956;"/><path d="m59.04,81.3c.07.34.15.81.56.84.07,0,.12-.06.12-.12,0-.28-.18-.56-.23-.84-.06-.29-.51-.17-.45.12h0Z" style="fill:#191956;"/><path d="m60.89,84.8c.26-.55.85-.94.78-1.61-.01-.14-.2-.27-.31-.13-.38.47-.69.99-.85,1.57-.06.23.28.39.39.16h0Z" style="fill:#191956;"/><path d="m63.09,78.9c.07.3.17.6.45.77.08.05.18-.03.16-.12-.08-.25-.21-.48-.27-.74-.05-.22-.39-.13-.34.09h0Z" style="fill:#191956;"/><path d="m65.15,81.87c.36,0,.76.09,1.08-.1.1-.06.1-.21,0-.27-.32-.19-.72-.11-1.08-.1-.3,0-.3.46,0,.47h0Z" style="fill:#191956;"/><path d="m65.28,86.02c.14-.33.31-.6.53-.88.17-.22-.04-.54-.31-.4-.41.21-.5.77-.59,1.18-.05.25.27.32.37.1h0Z" style="fill:#191956;"/><path d="m67.62,83.67c.33.27,1.07.83,1.51.56.07-.04.1-.12.08-.2-.06-.21-.19-.28-.39-.37-.3-.14-.59-.24-.86-.44-.26-.19-.59.24-.34.45h0Z" style="fill:#191956;"/><path d="m66.3,77.19c0,.38-.11.89.13,1.21.09.13.25.13.34,0,.24-.32.13-.83.13-1.21,0-.39-.6-.39-.6,0h0Z" style="fill:#191956;"/><path d="m67.98,74.41c.29.08.63-.02.92-.03.28-.01.57-.09.78-.27.12-.1.05-.31-.09-.35-.46-.11-1.46-.08-1.72.39-.05.1,0,.23.11.26h0Z" style="fill:#191956;"/><path d="m71.53,71.57c.17.31.47.63.85.62.13,0,.2-.14.14-.25-.14-.27-.45-.34-.63-.58-.16-.21-.49-.03-.36.21h0Z" style="fill:#191956;"/><path d="m72.67,74.19c.5-.11,1.05.11,1.5-.2.1-.07.1-.19,0-.26-.46-.34-1.14-.28-1.65-.09-.34.13-.21.63.15.55h0Z" style="fill:#191956;"/><path d="m74.94,69.23c.27.33.48.75.93.85.17.04.35-.11.29-.29-.14-.44-.55-.7-.95-.91-.23-.12-.43.16-.27.35h0Z" style="fill:#191956;"/><path d="m77.33,72.83c.32.1.59.32.94.23.11-.03.18-.16.15-.27-.11-.39-.53-.57-.89-.7-.46-.17-.67.59-.2.73h0Z" style="fill:#191956;"/><path d="m78.24,67.65c.08.17.15.25.29.36.1.07.21-.06.16-.16-.06-.1-.12-.21-.18-.32-.08-.2-.37-.08-.27.12h0Z" style="fill:#191956;"/><path d="m78.58,75.92c.18.23.42.56.74.54.07,0,.14-.05.16-.12.1-.38-.29-.57-.53-.78-.25-.22-.57.11-.36.36h0Z" style="fill:#191956;"/><path d="m78.2,85.09c.21-.1.43-.06.64-.16.11-.05.08-.2,0-.25-.27-.18-.58-.1-.84.06-.22.14-.03.47.21.35h0Z" style="fill:#191956;"/><path d="m70.97,87.08c-.03.42.03.91.47,1.07.12.05.24-.07.24-.18.01-.31-.14-.57-.12-.89.03-.38-.57-.38-.59,0h0Z" style="fill:#191956;"/><path d="m67.87,89.36s0,0,0,0c0,0,0,0,0,0h0Z" style="fill:#191956;"/><path d="m66.43,88.59c.37.51,1.19.94,1.83.92.15,0,.28-.18.18-.32-.38-.54-1.27-.88-1.9-.8-.08.01-.17.1-.11.19h0Z" style="fill:#191956;"/><path d="m65.21,93.12c.37-.02.75.04,1.11-.05.18-.04.23-.33.05-.41-.37-.17-.77-.18-1.17-.18-.41,0-.41.66,0,.64h0Z" style="fill:#191956;"/><path d="m62.26,95.95c.37.02.74.09,1.08-.07.09-.04.1-.18.03-.25-.31-.3-.71-.23-1.11-.21-.34.02-.34.52,0,.53h0Z" style="fill:#191956;"/><path d="m74.65,86.91s0,0,0,0,0,0,0,0h0Z" style="fill:#191956;"/><path d="m74.66,87.92c.23-.49.75-.89.74-1.46,0-.09-.08-.15-.17-.13-.63.11-.86.98-.83,1.52,0,.13.2.21.26.07h0Z" style="fill:#191956;"/><path d="m55.53,113.3c-.05.51.59,1.05,1.07,1.06.1,0,.2-.11.16-.21-.16-.4-.76-.5-.88-.89-.06-.2-.34-.15-.35.05h0Z" style="fill:#191956;"/><path d="m57.67,116.86c.29-.1.58-.16.87-.25.18-.06.22-.37,0-.4-.35-.05-.68.02-1.02.09-.37.08-.2.68.15.56h0Z" style="fill:#191956;"/><path d="m59.98,112.52s0,0,0,0c0,0,0,0,0,0h0Z" style="fill:#191956;"/><path d="m60.04,112.81c.13.02.26.04.39.06.01,0,.02-.02,0-.02-.13-.02-.26-.04-.39-.06-.01,0-.02.02,0,.02h0Z" style="fill:#191956;"/><path d="m59.87,112.91c.47.05,1.03.52,1.45.12.06-.06.07-.18,0-.24-.34-.31-1.01-.38-1.45-.33-.29.03-.29.42,0,.45h0Z" style="fill:#191956;"/><path d="m61.98,109.64s0,0,0,0c0,0,0,0,0,0h0Z" style="fill:#191956;"/><path d="m62.32,109.3s0,0,0,0c0,0,0,0,0,0h0Z" style="fill:#191956;"/><path d="m61.17,109.84c.46.21,1,.19,1.39-.14.11-.09.04-.27-.08-.31-.42-.12-.91-.05-1.31.13-.12.06-.12.26,0,.31h0Z" style="fill:#191956;"/><path d="m61.78,117.45c.23.19.45.38.65.59.19.19.3.42.54.53.1.05.21-.03.19-.14-.12-.51-.82-.91-1.22-1.2-.12-.09-.28.12-.16.21h0Z" style="fill:#191956;"/><path d="m64.1,121.08s0,0,0,0c0,0,0,0,0,0h0Z" style="fill:#191956;"/><path d="m63.78,121.38c.23.09.46.17.68.27.17.07.31.18.49.21.12.02.19-.08.14-.19-.18-.41-.86-.46-1.24-.58-.19-.06-.25.21-.08.28h0Z" style="fill:#191956;"/><path d="m67.16,119.92c.29-.09.58-.18.88-.24.31-.07.64-.06.92-.21.13-.07.12-.26,0-.33-.56-.35-1.39.12-1.94.32-.28.11-.17.55.13.46h0Z" style="fill:#191956;"/><path d="m72.26,116.38c.42-.06.92.02,1.27-.26.11-.09,0-.23-.1-.24-.4-.05-.87.04-1.27.11-.26.05-.14.42.11.39h0Z" style="fill:#191956;"/><path d="m72.66,111.35c.37.35.89.81,1.44.65.15-.05.2-.23.09-.35-.3-.31-.76-.45-1.1-.74-.3-.26-.73.16-.43.43h0Z" style="fill:#191956;"/><path d="m76.85,111.55c-.25.33-.63,1.08-.17,1.37.06.04.13.02.18-.02.3-.24.21-.88.26-1.23.03-.18-.17-.26-.28-.12h0Z" style="fill:#191956;"/><path d="m78.71,111.2c.15.05.17.05.33.05.11,0,.15-.13.08-.21-.12-.14-.14-.14-.31-.21-.23-.08-.33.29-.1.36h0Z" style="fill:#191956;"/><path d="m73.22,107.51c.11.32.39,1.21.89.9.05-.03.07-.09.06-.14-.03-.13-.12-.21-.21-.31-.18-.18-.32-.35-.44-.57-.09-.16-.36-.05-.3.13h0Z" style="fill:#191956;"/><path d="m68.71,107.55c.58.08,1.22.17,1.76-.09.12-.06.12-.27,0-.32-.58-.27-1.22-.04-1.8.13-.17.05-.12.26.04.28h0Z" style="fill:#191956;"/><path d="m65.48,107.17c.17-.26.35-.52.56-.74.18-.2.41-.33.41-.63,0-.06-.04-.11-.1-.12-.65-.16-1.05.89-1.21,1.35-.07.2.23.31.33.14h0Z" style="fill:#191956;"/><path d="m69.75,103.67c.32.21.67.52,1.06.55.09,0,.16-.09.13-.18-.14-.41-.62-.56-.96-.78-.26-.17-.49.24-.24.41h0Z" style="fill:#191956;"/><path d="m73.52,103.89c.25-.29.68-.62.66-1.04,0-.08-.09-.18-.18-.14-.37.15-.58.6-.81.92-.14.19.18.44.33.26h0Z" style="fill:#191956;"/><path d="m73.72,100.48c.21-.18.48-.17.7-.33.06-.04.05-.13-.02-.15-.33-.12-.67,0-.92.24-.17.15.08.39.24.24h0Z" style="fill:#191956;"/><path d="m76.76,97.03c.27.26.74.63,1.12.43.07-.04.08-.14.02-.19-.26-.24-.66-.28-.95-.5-.15-.12-.33.13-.2.26h0Z" style="fill:#191956;"/><path d="m76.98,100.34c.11.02.2.05.29.11.39.22.69-.33.34-.58-.19-.14-.4-.19-.63-.17-.42.02-.41.62,0,.65h0Z" style="fill:#191956;"/><path d="m78.92,95.06c-.26.32-.16.82.29.86.1,0,.17-.09.18-.18.02-.22-.09-.45-.19-.64-.05-.09-.21-.12-.28-.04h0Z" style="fill:#191956;"/></g></g></g></g></svg>