<?xml version="1.0" encoding="UTF-8"?><svg id="Layer_2" xmlns="http://www.w3.org/2000/svg" xmlns:xlink="http://www.w3.org/1999/xlink" viewBox="0 0 40.93 62.29"><defs><clipPath id="clippath"><path d="m24.69,47.24c0,.13.12.22.24.19.63-.13,1.17-.52,1.6-1.01.48-.56.86-.98.83-1.72-.24-.11-1.33.02-2.43,1.7-.16.24-.23.55-.23.84Z" style="fill:none;"/></clipPath><clipPath id="clippath-1"><path d="m24.5,47.07c0,.13-.04.29-.16.34-.08.03-.16.01-.24-.01-1.54-.48-2.26-1.3-2.83-2.42-.03-.07,0-.15.08-.16.39-.1,1.05-.28,2.03.18.12.06.24.13.34.22.52.46.81,1.16.78,1.85Z" style="fill:none;"/></clipPath><clipPath id="clippath-2"><path d="m13.08,42.27c-.81.1-1.7.64-2.19,1.29s-.81,1.29-.98,2.09c-.18.91-.02,2.01.39,2.84.19.39.46.73.74,1.06.45.55.91,1.1,1.42,1.6,1.14,1.1,2.58,1.88,4.12,2.25.9.21,1.89.28,2.71-.15.17-.09.33-.2.43-.35.12-.18.15-.39.17-.6.38-3.31-1.13-6.57-3.18-8.72-.26-.27-.91-.76-1.24-.93-1.3-.67-1.91-.42-2.39-.36Z" style="fill:none;"/></clipPath><clipPath id="clippath-3"><path d="m16.18,15.15c0-.13-.12-.22-.24-.19-.63.13-1.17.52-1.59,1.02-.48.56-.86.98-.83,1.72.24.11,1.33-.02,2.43-1.7.16-.24.22-.55.23-.84Z" style="fill:none;"/></clipPath><clipPath id="clippath-4"><path d="m16.37,15.32c0-.13.04-.29.17-.34.08-.03.16-.01.24.01,1.54.48,2.26,1.3,2.82,2.42.03.07,0,.15-.08.16-.39.1-1.05.28-2.03-.18-.12-.06-.24-.13-.34-.22-.52-.46-.81-1.16-.78-1.85Z" style="fill:none;"/></clipPath><clipPath id="clippath-5"><path d="m18.6,23.86c-.54.07-.91.09-1.62-.08-.53-.13-.93-.35-1.53-1.08-.43-.53-.52-.78-.62-1.72-.1-.88.12-2.44.47-2.73.41,1.05,1.46,1.63,2.29,1.66.83.03,1.74-.27,2.49-.64.67-.34.82-.5,1.42-.84.21,1.53-.04,2.68-.77,4.05-.18.34-.54.66-.85.89-.4.3-.78.43-1.28.49Z" style="fill:none;"/></clipPath><clipPath id="clippath-6"><path d="m22.28,38.51c.54-.07.91-.09,1.62.08.53.13.94.35,1.53,1.08.43.53.52.78.62,1.72.1.88-.12,2.44-.47,2.73-.41-1.05-1.45-1.63-2.29-1.66-.84-.03-1.74.27-2.49.64-.67.34-.82.5-1.42.84-.21-1.53.04-2.68.77-4.05.18-.34.54-.66.85-.89.4-.3.78-.43,1.28-.49Z" style="fill:none;"/></clipPath><clipPath id="clippath-7"><path d="m27.8,20.12c.81-.1,1.7-.64,2.19-1.29s.81-1.29.98-2.09c.18-.91.02-2.01-.39-2.84-.19-.39-.46-.73-.74-1.06-.45-.55-.9-1.1-1.42-1.6-1.14-1.09-2.58-1.88-4.12-2.25-.9-.21-1.89-.28-2.71.15-.17.09-.33.2-.43.36-.12.18-.15.39-.17.6-.38,3.31,1.13,6.57,3.18,8.72.26.27.91.76,1.24.93,1.3.67,1.91.42,2.39.36Z" style="fill:none;"/></clipPath></defs><g id="Layer_1-2"><g><g><path d="m3.54.09h33.85c1.9,0,3.45,1.55,3.45,3.45v55.2c0,1.9-1.55,3.45-3.45,3.45H3.54c-1.9,0-3.45-1.55-3.45-3.45V3.54C.09,1.64,1.64.09,3.54.09Z" style="fill:#fff;"/><path d="m37.39,62.29H3.54c-1.95,0-3.54-1.59-3.54-3.54V3.54C0,1.59,1.59,0,3.54,0h33.85c1.95,0,3.54,1.59,3.54,3.54v55.2c0,1.95-1.59,3.54-3.54,3.54ZM3.54.19C1.69.19.19,1.69.19,3.54v55.2c0,1.85,1.51,3.36,3.36,3.36h33.85c1.85,0,3.36-1.51,3.36-3.36V3.54c0-1.85-1.5-3.36-3.36-3.36H3.54Z" style="fill:#2d2d2d;"/></g><path d="m6.62,31.13c-.17.01-.35.04-.48.16-.11.1-.15.25-.19.4-.58,2.27-.41,4.72.48,6.89.03.08.06.16.12.22.07.07.18.11.28.13,1.03.26,2.1-.12,3.09-.5.47-.18.93-.35,1.4-.53-.34-1.63-.68-3.27-1.02-4.9-.04-.22-.09-.45-.21-.64-.13-.23-.35-.39-.58-.53-.86-.54-1.89-.79-2.9-.7Z" style="fill:#222272;"/><path d="m34.13,30.85c.17-.01.35-.04.48-.16.11-.1.15-.25.19-.4.58-2.27.41-4.72-.48-6.89-.03-.08-.06-.16-.12-.22-.07-.07-.18-.11-.28-.13-1.03-.26-2.1.12-3.09.5-.47.18-.93.35-1.4.53.34,1.63.68,3.27,1.02,4.9.05.22.09.45.21.64.13.23.35.39.58.53.86.54,1.89.79,2.9.7Z" style="fill:#222272;"/><g><path d="m28.34,38.46c-1.79.58-3.73.77-5.64.88-1.97.11-3.96.15-5.92-.1-.88-.11-1.75-.29-2.64-.32-1.47-.06-2.01.27-3.43-.05-.23-.05-1.04-.31-1.05-.55-.04-.97-.17-3.45-.35-2.1-.22,1.65-.04-1.48-.1-3.15-.07-1.83-.38-3.66-.22-5.49.16-1.83-1.49-3.49.11-4.74.76-.59,2.97-1.87,5.5-2.06.75-.06,1.04.43,1.78.34.98-.11,1.94-.3,2.91-.43,1.95-.26,3.94-.29,5.89-.07,1.32.15,2.34-.37,4.4,1.11,1.11.8,2.1,1.76,2.44,2.97.51,1.82-.37,4.11-.21,5.97.16,1.86,0,3.77-.78,5.52-.2.45-.44.89-.82,1.26-.49.47-1.18.77-1.88.99Z" style="fill:#191956;"/><path d="m12.53,23.93c1.79-.58,3.73-.77,5.64-.88,1.97-.11,3.96-.15,5.92.1.88.11,1.75.29,2.64.32,1.47.06,2.46-.12,3.88.21.23.05.33.48.45.65.1.14.21.48.2.65-.08,1.66.33,2.67.4,4.34.07,1.83.38,3.66.22,5.49-.16,1.83,1.49,3.49-.11,4.74-.76.59-2.97,1.87-5.5,2.06-.75.06-1.04-.43-1.78-.35-.98.11-1.94.3-2.91.43-1.95.26-3.94.29-5.89.07-1.31-.15-2.34.37-4.4-1.11-1.11-.8-2.1-1.76-2.44-2.97-.51-1.82.37-4.11.21-5.97-.16-1.86,0-3.77.78-5.52.2-.45.44-.9.82-1.26.49-.47,1.18-.77,1.88-.99Z" style="fill:#191956;"/><path d="m32.3,25.03c.04.29-.13.53-.35.73-1.84,1.66-3.19,2.78-4.54,3.96-1.63,1.42-5.31,4.37-5.67,4.79-1.92,2.26-4.16,4.26-6.62,5.91-.76.51-1.2,1.1-2.12,1.05-.39-.02-1.29-.22-1.65-.35-1.51-.55-2.56-2.08-2.9-3.65-.04-.19-.06-.4.02-.57.07-.15.22-.26.36-.36,5.03-3.65,9.78-6.71,14.3-10.97,1.54-1.45,2.76-3.2,4.25-4.71.53-.53,1.8-.17,2.83.62.17.13,1.73,1.24,2.09,3.56Z" style="fill:#b70027;"/><path d="m21.22,60.06c-.19.36-.39.74-.72.98-.05.04-.11.07-.18.08-.09,0-.16-.06-.23-.12-.72-.65-1.3-1.45-1.69-2.33-.03-.05-.05-.12,0-.17.02-.03.06-.04.1-.05,1.1-.21,2.24-.21,3.34,0,.04,0,.08.02.1.04.06.06.02.16-.01.23-.23.45-.47.9-.7,1.34Z" style="fill:#0c0a35;"/><path d="m23.58,44.16c.21-.14.42-.28.61-.45.64-.57,1.23-1.15,2.81-2.61.5-.46.97-.58.86-.92-.15-.44-.84-1.77-3.93-4.99-.94-.98-2.25-2.44-3.37-2.52-.91-.06-1.9,1.52-4.03,3.8-1.2,1.29-2.59,2.45-3.4,4.02-.06.12-.12.24-.13.37-.03.36.29.63.57.85,1.11.87,2.13,1.91,2.78,3.17.3.59.53,1.22.66,1.86.02.09.04.19.11.25.11.09.27.06.41.02,2.14-.67,4.18-1.63,6.05-2.86Z" style="fill:#0c0a35;"/><path d="m25.51,52.99c.12-.13.07-.34.02-.51-.25-.8-.37-1.64-.36-2.47,0-.23.02-.48.13-.68.17-.31.69-.6.94-.84.19-.19.37-.21.41-.49.02-.14-.16-.17-.19-.21-.03-.04-.08-.06-.13-.07-.32-.07-.63-.15-.95-.22-.12-.38.13-.77.22-1.15.15-.65.3-1.31.23-1.97-.07-.66-.38-1.33-.96-1.67-.37-.21-.8-.27-1.23-.28-2.24-.04-4.43,1.35-5.36,3.39-.21.46-.36.95-.48,1.44-.22.85-.37,1.72-.33,2.6.04.87.28,1.76.78,2.47.67.94,1.78,1.53,2.92,1.72,1.14.19,2.32.02,3.43-.32.26-.08.52-.17.72-.35.2-.18.33-.46.24-.72l-.05.32Z" style="fill:#ffd6a1;"/><path d="m18.83,50.06c1.24-.7,2.96-.84,4.24-.2.07.04.16.1.13.18-.52.57-1.33.82-2.11.77-.77-.06-1.64-.3-2.27-.75Z" style="fill:#fff;"/><path d="m21.24,50.54c.27-.08.31-.49.12-.7-.19-.21-.51-.23-.77-.14-.08.03-.17.08-.22.15-.12.16-.06.39.08.52.14.13.27.32.79.16Z" style="fill:#0c0a35;"/><path d="m24.69,47.24c0,.13.12.22.24.19.63-.13,1.17-.52,1.6-1.01.48-.56.86-.98.83-1.72-.24-.11-1.33.02-2.43,1.7-.16.24-.23.55-.23.84Z" style="fill:#222272;"/><path d="m24.5,47.07c0,.13-.04.29-.16.34-.08.03-.16.01-.24-.01-1.54-.48-2.26-1.3-2.83-2.42-.03-.07,0-.15.08-.16.39-.1,1.05-.28,2.03.18.12.06.24.13.34.22.52.46.81,1.16.78,1.85Z" style="fill:#222272;"/><path d="m22.27,38.53c.54-.07.91-.09,1.62.07.53.13.93.35,1.53,1.08.43.53.52.78.62,1.72.1.88-.12,2.44-.47,2.73-.41-1.05-1.46-1.63-2.29-1.66-.84-.03-1.74.27-2.49.64-.67.34-.82.5-1.42.84-.21-1.53.04-2.68.77-4.05.18-.34.54-.66.85-.89.4-.3.78-.43,1.28-.49Z" style="fill:#222272;"/><path d="m13.08,42.27c-.81.1-1.7.64-2.19,1.29s-.81,1.29-.98,2.09c-.18.91-.02,2.01.39,2.84.19.39.46.73.74,1.06.45.55.91,1.1,1.42,1.6,1.14,1.1,2.58,1.88,4.12,2.25.9.21,1.89.28,2.71-.15.17-.09.33-.2.43-.35.12-.18.15-.39.17-.6.38-3.31-1.13-6.57-3.18-8.72-.26-.27-.91-.76-1.24-.93-1.3-.67-1.91-.42-2.39-.36Z" style="fill:#222272;"/><path d="m16.37,59.11c-.21-.1-.37-.28-.51-.46-1.08-1.35-1.91-2.91-2.41-4.56.93-.16,1.87-.09,2.81-.05,1.51.06,3.03.03,4.54,0,1.8-.04,3.6-.08,5.4-.12.23,0,.5.01.63.2.17.26-.05.59-.26.82-.9,1-1.71,2.45-2.37,3.62-.08.15-.17.3-.32.39-.1.06-.34.09-.34.09-2.68.07-4.33.13-6.51.15-.22,0-.45,0-.65-.09Z" style="fill:#222272;"/><g style="clip-path:url(#clippath);"><path d="m24.7,47.55c.62-.39,1.21-.74,1.73-1.26.51-.52.92-1.3,1.21-1.96.03-.07-.05-.15-.11-.09-.46.41-.72,1.04-1.07,1.54-.47.68-1.24,1.1-1.8,1.7-.03.03,0,.09.05.06h0Z" style="fill:#b70027;"/><path d="m24.62,47.19c.66-.66,2.01-1.36,1.96-2.46,0-.1-.12-.16-.2-.08-.33.36-.51.85-.84,1.22-.37.42-.79.71-1.05,1.22-.04.08.06.17.13.1h0Z" style="fill:#b70027;"/></g><g style="clip-path:url(#clippath-1);"><path d="m24.51,47.27c-.43-.6-1.2-.96-1.75-1.46-.35-.32-.69-.66-1.01-1.01-.32-.35-.52-.78-.84-1.12-.05-.05-.16-.02-.15.06.07.73.7,1.37,1.19,1.88.33.35.73.65,1.11.94.41.32.95.48,1.33.81.07.06.19-.02.13-.1h0Z" style="fill:#b70027;"/><path d="m24.93,46.7c-.55-.31-.94-.81-1.39-1.25-.5-.49-1.05-.92-1.45-1.51-.04-.06-.12-.02-.11.05.13.7.58,1.2,1.11,1.65.55.47,1.07.98,1.75,1.24.11.04.17-.13.08-.18h0Z" style="fill:#b70027;"/></g><g style="clip-path:url(#clippath-2);"><path d="m20.85,52.19c-1.35.55-1.3-2.15-1.23-2.74.1-.78.11-1.45-.21-2.17-.28-.63-.93-1.11-1.38-1.61-.92-1.03-.49-2.3-.24-3.47.03-.13-.13-.24-.23-.13-.68.71-.62,1.87-.46,2.78.19,1.12,1.37,1.76,1.92,2.67.73,1.2-.26,2.8.35,4.11.33.69.8,1.25,1.55.76.09-.06.03-.22-.08-.18h0Z" style="fill:#b70027;"/><path d="m20.25,53.43c-1.78-.47-1.74-2.45-1.52-3.91.15-.99-.12-1.62-.96-2.14-.55-.34-1.08-.66-1.44-1.22-.55-.85-.16-1.95.05-2.83.25-1.05-.26-2.08-1.12-2.67-.1-.07-.2.06-.16.16.52,1.12.87,1.8.53,3.07-.16.6-.17,1.19-.08,1.8.15,1.05,1.09,1.69,1.93,2.18,1.32.78.5,2.73.82,4.03.23.94.89,1.83,1.93,1.7.08-.01.12-.13.02-.16h0Z" style="fill:#b70027;"/><path d="m18.45,53.87c-1.52-.5-1.14-2.71-1.09-3.9.05-1.2-.74-1.62-1.54-2.35-2.17-1.98,1.04-5.43-1.74-7.01-.2-.11-.41.11-.31.31.53.98,1.09,1.5.79,2.74-.19.78-.3,1.41-.22,2.21.11,1.11.66,1.91,1.51,2.59.8.63.94,1.13.89,2.11-.03.59,0,1.14.11,1.72.17.9.59,1.67,1.55,1.79.13.02.14-.18.03-.21h0Z" style="fill:#b70027;"/><path d="m16.49,53.92c-1.35-1.08-.23-2.73-.53-4.11-.12-.54-.76-1.01-1.15-1.34-.73-.61-1.21-1.12-1.51-2.05-.5-1.54.2-2.8.39-4.29.13-1.02-.58-1.85-1.54-2.06-.22-.05-.4.22-.23.39.66.66,1.13,1.07.94,2.07-.11.59-.37,1.16-.45,1.76-.17,1.33.11,2.72.91,3.81.39.53,1.01.9,1.5,1.33.78.69.4,1.74.43,2.64.02.75.25,1.89,1.14,2.01.08.01.17-.09.09-.15h0Z" style="fill:#b70027;"/><path d="m14.37,53.77c.17-.93.42-2.03-.01-2.93-.49-1.02-1.49-1.55-2.07-2.49-.8-1.29-.56-3.24-.17-4.61.23-.8.3-1.56-.25-2.22-.09-.11-.29-.02-.28.11.07,1.19-.23,2.12-.43,3.28-.16.94-.05,2.02.17,2.94.22.89.83,1.54,1.49,2.13.7.63,1.12,1.19,1.2,2.17.05.55.03,1.07.13,1.62.02.1.19.1.21,0h0Z" style="fill:#b70027;"/><path d="m13.28,53.66c.34-2.05-1.42-3.09-2.45-4.6-1.03-1.5,0-3.17-.14-4.79-.08-.91-.54-2.07-1.34-2.56-.15-.09-.38.02-.36.21.04.49.2.77.43,1.21.44.87.49,1.67.3,2.61-.21,1.08-.41,2.23.11,3.26.89,1.73,2.79,2.64,3.18,4.65.03.13.24.13.26,0h0Z" style="fill:#b70027;"/></g><path d="m25.49,52.35c-.15-.07-.31-.1-.47-.09-3.31.16-6.36.21-9.68.17-.48,0-.86.18-1.2.53-.32.34-.83.94-.74,1.35.12.51.66.37,1.46.43,1.13.08,3,.03,4.13.04,2.91.01,4.45-.02,7.59-.16.38-.02.46-.29.46-.67,0-.15-.07-.29-.18-.4-.37-.34-.74-.69-1.11-1.03-.08-.07-.16-.13-.26-.17h0Z" style="fill:#191956;"/><path d="m27.37,40.04s-.01,0-.02,0c-.14-.05-.3.11-.25.25,0,0,0,.01,0,.02.05.15.23.22.35.09.12-.12.05-.3-.09-.36h0Z" style="fill:#f70032;"/><path d="m26.76,39.17c-.34,0-.34.52,0,.52s.34-.52,0-.52h0Z" style="fill:#f70032;"/><path d="m26.1,38.41c-.31,0-.31.48,0,.48s.31-.48,0-.48h0Z" style="fill:#f70032;"/><path d="m25.6,37.71s-.01-.03-.02-.04c-.12-.28-.57-.03-.41.24,0,.01.01.02.02.04.06.11.22.15.33.09.12-.07.14-.21.08-.33h0Z" style="fill:#f70032;"/><path d="m24.93,37.15c.05-.14-.02-.25-.12-.33-.06-.05-.17-.04-.23,0-.1.06-.12.16-.11.26,0,0,0,.01,0,.02v-.13c-.02.06,0,.12,0,.18.01.1.14.18.23.18.12,0,.19-.08.23-.18h0Z" style="fill:#f70032;"/><path d="m24.04,36.07s-.01-.01-.02-.02c-.1-.11-.26-.09-.37,0,0,0-.01.01-.02.02-.09.08-.09.24,0,.33,0,0,.01.01.02.02.1.09.27.11.37,0,0,0,.01-.01.02-.02.09-.09.09-.23,0-.33h0Z" style="fill:#f70032;"/><path d="m23.01,35.64s.01,0,.02,0c.08.03.21-.01.24-.1,0,0,0,0,0-.01.08-.19-.09-.39-.29-.29-.05.02-.07.06-.1.1-.07.11,0,.25.12.29h0Z" style="fill:#f70032;"/><path d="m22.5,34.64s-.06-.05-.09-.07c-.24-.13-.46.26-.21.37,0,0,0,0,0,0,.2.18.48-.1.3-.3h0Z" style="fill:#f70032;"/><path d="m21.46,33.84c-.26,0-.26.4,0,.4s.26-.4,0-.4h0Z" style="fill:#f70032;"/><path d="m19.56,34.07s0,.01,0,.02v-.12s0,.01,0,.02c-.05.15.11.31.26.26.07-.02.12-.06.16-.12.08-.13,0-.3-.14-.34-.15-.04-.36.12-.29.29h0Z" style="fill:#f70032;"/><path d="m18.96,34.43c-.31,0-.31.48,0,.48s.31-.48,0-.48h0Z" style="fill:#f70032;"/><path d="m18.34,35.09c-.32,0-.32.49,0,.49s.32-.49,0-.49h0Z" style="fill:#f70032;"/><path d="m17.71,35.87c-.27,0-.27.41,0,.41s.27-.41,0-.41h0Z" style="fill:#f70032;"/><path d="m16.77,36.86c.04.09.1.16.2.16.13,0,.23-.13.2-.26-.03-.11-.14-.17-.25-.14-.09.02-.19.14-.15.24h0Z" style="fill:#f70032;"/><path d="m16.31,37.3c-.33,0-.33.51,0,.51s.33-.51,0-.51h0Z" style="fill:#f70032;"/><path d="m15.53,38.07c-.34,0-.34.53,0,.53s.34-.53,0-.53h0Z" style="fill:#f70032;"/><path d="m14.98,38.89c-.24,0-.24.38,0,.38s.24-.38,0-.38h0Z" style="fill:#f70032;"/><path d="m14.44,39.54c-.21,0-.21.33,0,.33s.21-.33,0-.33h0Z" style="fill:#f70032;"/><path d="m13.85,40.33c-.3,0-.3.47,0,.47s.3-.47,0-.47h0Z" style="fill:#f70032;"/><path d="m22.03,51.41c-.32.07-.67.05-1,.02-.29-.03-.94.06-.67.52.2.35.78.28,1.11.23.33-.04.75-.2.8-.58.02-.13-.13-.21-.24-.19h0Z" style="fill:#0c0a35;"/><path d="m21.09,48.69c-.19.19.11-.13.14-.16.05-.08.08-.18.1-.27.04-.17.03-.35.01-.52-.04-.47-.23-.9-.69-1.08-.56-.21-1.12.53-.79,1.02.04.06.09.12.14.18-.15-.19-.05-.07-.02,0,.07.12-.06-.16,0-.02.02.06.04.11.06.17.05.13.08.27.15.4.02.04.04.08.07.12,0,.02.33.37.14.16.18.2.51.18.7,0h0Z" style="fill:#f70032;"/><path d="m23.43,58.48c.35-.39.6-.86.86-1.31.27-.46.56-1.04.43-1.58-.1-.42-.72-.5-.92-.12-.24.43-.32,1-.48,1.47-.16.48-.3.95-.21,1.45.03.14.23.19.32.08h0Z" style="fill:#f70032;"/><path d="m21.92,58.54c.41-.48.51-1.17.65-1.76.13-.53.27-1.14-.22-1.51-.24-.18-.68-.06-.81.21-.17.36-.1.84-.12,1.24-.03.57-.02,1.18.14,1.73.04.14.25.22.36.09h0Z" style="fill:#f70032;"/><path d="m20.25,58.54c.38-.87.43-2.01.44-2.95,0-.77-1.16-.76-1.19,0-.03.93-.02,2.08.36,2.95.06.15.33.15.39,0h0Z" style="fill:#f70032;"/><path d="m18.86,58.55c.13-.44.04-.88-.02-1.32-.07-.52-.15-1.05-.25-1.57-.12-.68-1.17-.5-1.17.16,0,.91.47,2.18,1.14,2.81.1.09.26.05.3-.08h0Z" style="fill:#f70032;"/><path d="m17.13,58.39c.2-.57-.29-1.2-.48-1.72-.17-.46-.21-1.18-.82-1.28-.44-.07-.77.25-.69.69.06.34.35.8.54,1.09.28.43.74,1.09,1.21,1.31.1.05.2,0,.24-.1h0Z" style="fill:#f70032;"/><path d="m24.23,55.57c-.31,0-.31.49,0,.49s.31-.49,0-.49h0Z" style="fill:#0c0a35;"/><path d="m22.08,55.44c-.33,0-.33.5,0,.5s.33-.5,0-.5h0Z" style="fill:#0c0a35;"/><path d="m20.13,55.34c-.36,0-.36.56,0,.56s.36-.56,0-.56h0Z" style="fill:#0c0a35;"/><path d="m18.1,55.55c-.33,0-.33.52,0,.52s.33-.52,0-.52h0Z" style="fill:#0c0a35;"/><path d="m15.84,55.73c-.3,0-.3.47,0,.47s.3-.47,0-.47h0Z" style="fill:#0c0a35;"/><path d="m24.84,52.89c0,.39.14.74.36,1.06.12.18.35.26.56.15.23-.14.26-.45.08-.64-.22-.23-.42-.48-.65-.71-.12-.12-.35-.04-.35.14h0Z" style="fill:#0c0a35;"/><path d="m23.85,53.07c.04.12.02.28.02.41,0,.18,0,.38.07.55.06.16.18.27.36.27s.4-.17.37-.37c-.03-.2-.07-.4-.13-.6-.05-.2-.17-.34-.3-.49-.15-.17-.47,0-.39.23h0Z" style="fill:#0c0a35;"/><path d="m22.6,52.93c0-.08-.03.1-.04.13-.03.11-.02.22-.03.33-.01.18-.04.34-.07.52-.03.21.05.42.27.48.21.06.41-.07.48-.27.07-.23.08-.52.04-.76-.02-.13-.05-.26-.13-.37-.04-.05-.07-.09-.12-.13,0,0-.16-.12-.09-.05-.11-.1-.33-.04-.31.13h0Z" style="fill:#0c0a35;"/><path d="m21.33,52.81c-.21.13-.31.26-.37.51-.06.24-.07.53,0,.77.1.37.68.39.76,0,.05-.23.02-.47-.02-.7-.01-.09-.02-.18-.03-.26-.01-.04-.02-.08-.04-.11,0,0-.07-.19-.05-.1-.03-.11-.16-.17-.26-.11h0Z" style="fill:#0c0a35;"/><path d="m19.77,52.85c-.18.11-.25.27-.32.46-.07.21-.18.48-.17.69.02.25.31.49.55.32.26-.19.31-.48.35-.78.03-.24-.01-.5-.2-.66-.06-.05-.14-.07-.21-.03h0Z" style="fill:#0c0a35;"/><path d="m18.48,52.79c-.11.16-.24.3-.34.48-.1.18-.2.35-.28.53-.06.12-.08.26,0,.38,0,.01.02.03.03.04.08.12.2.16.34.14.3-.04.39-.42.48-.66.1-.27.13-.51.15-.8.02-.21-.28-.26-.38-.1h0Z" style="fill:#0c0a35;"/><path d="m16.91,52.83s-.12.11-.02.03c-.06.04-.1.08-.14.13-.06.09-.11.19-.17.28-.12.21-.3.43-.32.68-.02.24.25.43.47.36.29-.1.43-.42.52-.69.08-.23.12-.55-.04-.76-.08-.11-.2-.12-.31-.04h0Z" style="fill:#0c0a35;"/><path d="m15.31,52.82s-.02.01-.03.02c.06,0,.12-.02.18-.02-.25-.04-.46.15-.62.31-.22.22-.5.4-.52.73-.01.21.15.34.32.42.38.16.74-.26.89-.55.12-.23.26-.64.03-.85.02.05.04.11.07.16,0-.01,0-.02,0-.04-.01-.15-.17-.27-.32-.18h0Z" style="fill:#0c0a35;"/><path d="m23.92,56.47c-.36,0-.36.55,0,.55s.36-.55,0-.55h0Z" style="fill:#0c0a35;"/><path d="m23.64,57.29c-.26,0-.26.4,0,.4s.26-.4,0-.4h0Z" style="fill:#0c0a35;"/><path d="m22.08,56.37c-.34,0-.34.53,0,.53s.34-.53,0-.53h0Z" style="fill:#0c0a35;"/><path d="m22.04,57.2c-.28,0-.28.43,0,.43s.28-.43,0-.43h0Z" style="fill:#0c0a35;"/><path d="m20.13,56.38c-.27,0-.27.43,0,.43s.28-.43,0-.43h0Z" style="fill:#0c0a35;"/><path d="m20.21,57.18c-.3,0-.3.46,0,.46s.3-.46,0-.46h0Z" style="fill:#0c0a35;"/><path d="m18.09,56.84l.02.02c.09.08.22.08.31,0,0,0,.01-.01.02-.02.15-.15.04-.42-.17-.42s-.33.27-.17.42h0Z" style="fill:#0c0a35;"/><path d="m18.53,57.27c-.23,0-.23.36,0,.36s.23-.36,0-.36h0Z" style="fill:#0c0a35;"/><path d="m16.08,56.87c.27,0,.29-.4.02-.4-.25,0-.26.41-.02.4h0Z" style="fill:#0c0a35;"/><path d="m16.43,57.12c-.33,0-.33.5,0,.5s.32-.5,0-.5h0Z" style="fill:#0c0a35;"/><path d="m20.82,36.72c0-.32.03-.64.02-.96,0-.26,0-.64-.29-.76-.09-.04-.17-.02-.23.06-.16.22-.05.53,0,.77.05.32.09.63.16.94.04.2.34.15.35-.05h0Z" style="fill:#990028;"/><path d="m22.03,37.46c.11-.18.19-.36.29-.55.09-.18.21-.37.25-.57.05-.28-.34-.49-.48-.2-.1.19-.16.39-.25.59-.09.2-.17.42-.16.64,0,.19.25.26.35.1h0Z" style="fill:#990028;"/><path d="m23.21,38.01c.21-.12.45-.27.53-.51.06-.18-.14-.29-.29-.22-.17.08-.3.25-.45.37-.22.16-.03.51.21.37h0Z" style="fill:#990028;"/><path d="m19.46,37.36c0-.18-.1-.37-.16-.54-.1-.25-.21-.47-.48-.57-.21-.08-.39.15-.34.34.05.21.19.38.31.55.12.18.28.38.51.38.09,0,.16-.07.16-.16h0Z" style="fill:#990028;"/><path d="m18.48,38.25c-.09-.2-.25-.37-.41-.51-.08-.07-.17-.13-.26-.19-.13-.08-.24-.07-.39-.07-.21,0-.34.27-.18.42.08.08.13.15.24.21.09.05.17.1.26.15.16.11.32.22.5.29.19.07.3-.16.24-.31h0Z" style="fill:#990028;"/><path d="m17.42,39.12c-.12-.12-.27-.2-.4-.3-.06-.05-.13-.1-.19-.14-.1-.06-.18-.07-.29-.1-.22-.05-.35.2-.21.36.07.09.12.15.22.22.08.06.17.1.26.14.17.08.36.14.54.08.11-.04.16-.18.07-.27h0Z" style="fill:#990028;"/><path d="m16.56,40.15c-.09-.15-.24-.28-.38-.39-.17-.13-.31-.23-.53-.24-.24-.02-.33.29-.19.45.12.13.28.19.43.27.15.08.35.16.52.14.12-.01.2-.13.14-.24h0Z" style="fill:#990028;"/><path d="m15.87,41.02c-.22-.24-.51-.51-.86-.52-.19,0-.3.25-.16.38.23.22.61.37.93.36.11,0,.16-.13.09-.21h0Z" style="fill:#990028;"/><path d="m8.68,30.23c.36.03.41-.37.05-.4-.36-.03-.41.37-.05.4h0Z" style="fill:#222272;"/><path d="m9.55,30.29c.06.09.15.15.3.17.22.02.42-.19.23-.32-.03-.02-.05-.03-.07-.05-.07-.02-.09-.02-.06-.03-.21-.13-.52.06-.4.23h0Z" style="fill:#222272;"/><path d="m10.76,30.53c.33.03.37-.34.04-.37-.33-.03-.37.34-.04.37h0Z" style="fill:#222272;"/><path d="m31.1,30.64c.34-.07.22-.45-.11-.37-.34.07-.22.45.11.37h0Z" style="fill:#222272;"/><path d="m32.11,29.97s-.02,0-.02,0c-.19-.02-.38.09-.33.24.04.15.28.16.43.07,0,0,.01,0,.02-.01.14-.09.08-.28-.09-.3h0Z" style="fill:#222272;"/><path d="m16.94,29.04c.17,0,.17-.18,0-.18s-.17.18,0,.18h0Z" style="fill:#222272;"/><path d="m31.21,29.2c.25,0,.25-.28,0-.28s-.25.28,0,.28h0Z" style="fill:#222272;"/><path d="m17.58,26.45c.23.03.57.1.77-.02.06-.04.06-.1,0-.14-.21-.12-.55-.05-.77-.02-.11.01-.11.17,0,.18h0Z" style="fill:#222272;"/><path d="m14.67,27.66c.11.05.22.08.34.11.06.02.12.02.18.03.05.01.09.02.15.02.04,0,.08-.03.06-.06-.08-.15-.43-.18-.6-.26-.14-.06-.26.09-.13.16h0Z" style="fill:#222272;"/><path d="m16.38,29.6c.01.15-.01.38.2.46.09.03.23,0,.25-.07.04-.15-.11-.31-.23-.43-.07-.06-.24-.05-.23.04h0Z" style="fill:#222272;"/><path d="m22.81,26.65c.1.07.19.14.29.22.09.07.18.15.31.16.04,0,.08-.04.07-.07-.03-.09-.13-.16-.21-.22-.09-.07-.19-.15-.29-.22-.11-.07-.27.06-.16.13h0Z" style="fill:#222272;"/><path d="m21.9,27.99c.07.07.24.31.4.24.16-.07-.1-.28-.16-.34-.1-.11-.34,0-.24.1h0Z" style="fill:#222272;"/><path d="m34.8,34.42c-.61.17.05,4.34-2.94,5.93-.54.29-1.43.29-1.95-.05-.17-.11-.29-.25-.4-.39-.76-.96-1.08-2.06-1.1-3.14-.03-1.08.22-2.14.53-3.18-.69-.2-1.39-.45-1.81-.87-.54-.55-.45-1.3.03-1.84.48-.54,1.29-.91,2.15-1.15.21-.06.43-.11.66-.13.36-.03.73.02,1.09.08,1.11.17,2.22.37,3.31.59.2.04,2.11.11,2.48,1.38.5,1.71-.22,2.25-2.05,2.78Z" style="fill:#0c0a35;"/><path d="m20.66,33.26s-.02,0-.02-.01c-.2-.09-.42.09-.31.26,0,0,0,.01.01.02.07.11.26.13.37.04.1-.09.08-.25-.05-.31h0Z" style="fill:#f70032;"/><path d="m34.21,33.97c.77-.21,1.22-.67,1.46-1.22.23-.53.24-1.45-.58-1.78-.43-.17-1.13-.01-.97.41.13.37.36.64.34,1.03-.02.38-.22.85-.69,1.07-.39.18.03.6.43.49h0Z" style="fill:#990028;"/><path d="m32.26,33.43s0,0,.01,0c.12.05.28.07.39,0,.84-.53.85-1.75.48-2.48-.15-.29-.74-.24-.88,0-.26.44-.08.98-.03,1.45.02.23,0,.44-.03.66-.02.12-.15.27.05.36h0Z" style="fill:#990028;"/><path d="m30.82,33.1c.14-.38.11-.8.18-1.19.08-.45.32-.84.46-1.27.12-.39-.65-.5-.94-.27-.76.61-.76,2.07-.13,2.77.1.11.38.08.43-.04h0Z" style="fill:#990028;"/><path d="m29.19,32.53c-.19-.49-.46-1.03-.03-1.48.27-.28.79-.41.74-.8-.01-.07-.1-.11-.19-.13-.67-.12-1.29.45-1.55.8-.37.5.03,1.36.58,1.73.16.11.52.06.44-.13h0Z" style="fill:#990028;"/><path d="m30.98,39.54c-.22-.02-.25.27-.04.29.22.02.25-.27.04-.29h0Z" style="fill:#f70032;"/><path d="m31.88,38.95c-.32-.03-.38.4-.05.43.32.03.38-.4.05-.43h0Z" style="fill:#f70032;"/><path d="m30.7,38.67c-.19-.02-.22.23-.03.25.19.02.22-.23.03-.25h0Z" style="fill:#f70032;"/><path d="m32.66,38.05c-.03-.06-.07-.09-.14-.12-.13-.06-.31.07-.28.19,0,0,0,0,0,.01,0-.03,0-.06.01-.09,0,0,0,.01,0,.02-.06.11.05.24.18.26.17.01.29-.13.22-.26h0Z" style="fill:#f70032;"/><path d="m32.96,36.97s-.02,0-.03,0c-.13.03-.15.22-.04.28,0,0,.02,0,.03.01.13.06.31.02.33-.12.02-.15-.15-.22-.29-.18h0Z" style="fill:#f70032;"/><path d="m31.2,36.94c.07-.01.12-.03.16-.08.12-.13-.06-.32-.23-.25,0,0-.01,0-.02,0,.05,0,.1,0,.15,0,0,0-.01,0-.02,0-.12-.03-.26.02-.27.14-.01.11.11.21.23.19h0Z" style="fill:#f70032;"/><path d="m30.4,37.59c-.22-.02-.25.27-.04.28.22.02.25-.27.04-.28h0Z" style="fill:#f70032;"/><path d="m29.92,38.39s-.01,0-.02-.01c-.14-.09-.33.04-.25.18,0,0,0,.01.01.02.12.22.5-.03.26-.18h0Z" style="fill:#f70032;"/><path d="m30.12,39.37s0-.02,0-.03c-.02-.14-.28-.16-.33-.03,0,.01,0,.02-.01.03-.09.24.37.28.34.03h0Z" style="fill:#f70032;"/><path d="m29.55,36.95s0-.08-.03-.12c-.09-.13-.36-.09-.32.08,0,.02,0,.03.01.05.04.16.31.16.34,0h0Z" style="fill:#f70032;"/><path d="m29.79,35.52h-.02c-.12,0-.19.05-.22.15,0,0,0,.01,0,.02-.04.17.22.26.36.16.13-.09.08-.33-.12-.33h0Z" style="fill:#f70032;"/><path d="m31.73,35.51c-.04-.06-.08-.1-.15-.12-.16-.05-.33.06-.3.21,0,0,0,0,0,.01.01-.05.03-.1.04-.15,0,0,0,0,0,.01-.09.13-.03.31.17.33.17.02.33-.15.24-.29h0Z" style="fill:#f70032;"/><path d="m32.97,35.47c-.28-.02-.33.34-.05.37.28.02.33-.34.05-.37h0Z" style="fill:#f70032;"/><path d="m34.14,34.58s0-.02,0-.03c0-.16-.33-.19-.37-.03,0,.01,0,.02,0,.03-.08.27.4.31.39.03h0Z" style="fill:#f70032;"/><path d="m32.71,33.98c-.1-.1-.22-.13-.36-.09-.14.05-.17.2-.08.3.02.02.05.04.06.05.21.2.59-.06.38-.26h0Z" style="fill:#f70032;"/><path d="m31.13,34.5s0,0,0,0c-.15-.05-.33.12-.2.23.04.03.07.06.12.08.25.11.37-.31.09-.31h0Z" style="fill:#f70032;"/><path d="m29.78,34.67c-.2-.02-.24.25-.03.27.2.02.23-.25.03-.27h0Z" style="fill:#f70032;"/><path d="m29.5,33.41c-.31-.03-.36.38-.05.41.31.03.36-.38.05-.41h0Z" style="fill:#f70032;"/><path d="m31.17,33.85c-.08-.08-.18-.12-.31-.11-.21.03-.25.25-.1.36,0,.01.02.02.03.01.21.2.59-.06.38-.26h0Z" style="fill:#f70032;"/><path d="m32.21,36s-.01,0-.02,0c-.18.04-.26.23-.09.33,0,0,.01,0,.02.01.12.08.29.03.35-.09.06-.13-.08-.3-.25-.26h0Z" style="fill:#f70032;"/><path d="m31.69,33.08s0-.02,0-.03c0-.15-.31-.18-.36-.03,0,.01,0,.02,0,.03-.08.26.38.3.37.03h0Z" style="fill:#f70032;"/><path d="m35.08,32.42c-.3-.03-.34.3-.04.33.3.03.34-.3.04-.33h0Z" style="fill:#f70032;"/><path d="m32.83,31.86c-.22-.02-.25.23-.03.25.22.02.25-.23.03-.25h0Z" style="fill:#f70032;"/><path d="m30.37,31.59s-.02,0-.03,0c-.13.04-.15.17-.03.23,0,0,.02,0,.03.01.13.06.32.02.33-.1.01-.11-.15-.19-.3-.15h0Z" style="fill:#f70032;"/><path d="m28.54,31.04c-.3-.03-.34.3-.04.32.3.03.34-.3.04-.32h0Z" style="fill:#f70032;"/><path d="m12.4,30.85s-.07,0-.1.01c-.3.09-.21.37.1.33.03,0,.06-.02.09-.03.21-.09.14-.32-.09-.31h0Z" style="fill:#f70032;"/><path d="m10.05,31.74s0,0,0,0c.05-.06.06-.14.01-.19-.06-.08-.17-.09-.3-.08,0,0,0,0-.01,0-.24.03-.27.28-.09.35,0,0,0,0,.01,0-.04-.04-.08-.07-.12-.11,0,0,0,0,0,0,.07.14.34.19.48.03h0Z" style="fill:#f70032;"/><path d="m24.87,34.87c-.05-.15-.07-.36-.24-.44-.04-.02-.11,0-.1.05,0,.15.1.3.16.43.04.1.22.06.19-.04h0Z" style="fill:#222272;"/><path d="m26.92,33.1c-.16-.13-.42-.23-.64-.19-.05,0-.08.07-.05.11.11.16.34.14.49.26.14.11.34-.07.21-.17h0Z" style="fill:#222272;"/><path d="m30.11,28.82c-.23-.03-.57-.1-.77.02-.06.04-.06.1,0,.14.2.12.55.05.77.02.1-.01.1-.17,0-.18h0Z" style="fill:#222272;"/><path d="m25.43,36.54c.07-.08.15-.15.22-.23.04-.04.07-.08.1-.12.04-.06.06-.1.09-.17.05-.11-.13-.23-.24-.16-.05.03-.1.04-.14.09-.05.05-.09.1-.12.16-.07.11-.09.22-.11.34-.01.09.12.19.2.1h0Z" style="fill:#222272;"/><path d="m26.14,32.2c-.11-.05-.22-.08-.34-.11-.06-.01-.12-.02-.18-.03-.05,0-.1-.02-.15-.02-.04,0-.08.03-.06.06.08.15.43.18.6.26.14.06.26-.09.13-.16h0Z" style="fill:#222272;"/><path d="m10.1,35.3c-.29-.1-.57-.21-.89-.14-.06.01-.07.09-.02.11.26.11.54.12.83.18.1.02.18-.11.08-.15h0Z" style="fill:#222272;"/><path d="m13.35,23.56c-.16,0-.52-.15-.62.01-.01.02-.02.05,0,.07.07.08.17.06.28.08.12.01.24,0,.36-.01.1-.02.07-.14-.02-.15h0Z" style="fill:#222272;"/><path d="m10.79,34.91c.02-.17,0-.63-.3-.61-.15,0-.13.17-.11.26.03.12.1.23.11.36.01.16.27.16.29,0h0Z" style="fill:#222272;"/><path d="m13.95,25.34c-.1-.07-.19-.14-.29-.22-.09-.07-.18-.15-.31-.16-.04,0-.08.04-.06.07.03.09.13.16.21.22.09.07.19.15.29.22.11.07.27-.06.16-.13h0Z" style="fill:#222272;"/><path d="m28.08,37.99c-.07-.15-.17-.37-.37-.42-.04-.01-.09.02-.09.06,0,.15.16.28.23.41.06.12.28.07.23-.05h0Z" style="fill:#222272;"/><path d="m19.65,2.33c.19-.36.39-.74.72-.98.05-.04.11-.07.18-.08.09,0,.16.06.23.12.72.65,1.3,1.45,1.69,2.33.03.05.05.12,0,.17-.02.03-.06.04-.1.05-1.1.21-2.24.21-3.34,0-.04,0-.08-.02-.1-.04-.06-.06-.02-.16.01-.23.23-.45.47-.9.7-1.34Z" style="fill:#0c0a35;"/><path d="m17.29,18.22c-.21.14-.42.28-.61.45-.64.57-1.23,1.15-2.81,2.61-.5.46-.98.59-.86.92.15.44.84,1.77,3.93,4.99.94.98,2.25,2.44,3.37,2.52.91.06,1.82-1.24,3.94-3.53,1.2-1.29,2.67-2.73,3.49-4.29.06-.12.12-.24.13-.37.03-.36-.29-.63-.57-.85-1.11-.87-2.13-1.91-2.78-3.17-.31-.59-.53-1.21-.66-1.86-.02-.09-.04-.19-.11-.25-.11-.09-.27-.06-.41-.02-2.14.67-4.18,1.63-6.05,2.86Z" style="fill:#0c0a35;"/><path d="m15.36,9.4c-.12.13-.07.34-.02.51.25.8.37,1.64.36,2.47,0,.23-.02.48-.13.68-.16.31-.69.6-.94.84-.19.19-.37.21-.41.49-.02.14.16.17.19.21.03.04.08.06.13.07.32.07.63.15.95.22.12.38-.13.77-.22,1.15-.15.65-.3,1.31-.23,1.97.07.66.38,1.33.96,1.66.37.21.8.27,1.23.28,2.24.04,4.43-1.35,5.36-3.39.21-.46.36-.95.48-1.44.22-.85.37-1.72.33-2.6-.04-.87-.28-1.76-.78-2.47-.67-.94-1.78-1.53-2.92-1.72-1.14-.19-2.32-.02-3.43.32-.26.08-.52.17-.72.35-.2.18-.33.46-.24.72l.05-.32Z" style="fill:#ffd6a1;"/><path d="m22.05,12.33c-1.24.7-2.97.84-4.24.2-.07-.04-.16-.1-.13-.18.52-.57,1.33-.82,2.1-.77.77.05,1.64.3,2.27.75Z" style="fill:#fff;"/><path d="m19.63,11.84c-.27.08-.31.49-.12.7.19.21.51.23.77.13.08-.03.17-.08.22-.15.12-.16.06-.39-.08-.52-.14-.13-.27-.32-.79-.16Z" style="fill:#0c0a35;"/><path d="m16.18,15.15c0-.13-.12-.22-.24-.19-.63.13-1.17.52-1.59,1.02-.48.56-.86.98-.83,1.72.24.11,1.33-.02,2.43-1.7.16-.24.22-.55.23-.84Z" style="fill:#222272;"/><path d="m16.37,15.32c0-.13.04-.29.17-.34.08-.03.16-.01.24.01,1.54.48,2.26,1.3,2.82,2.42.03.07,0,.15-.08.16-.39.1-1.05.28-2.03-.18-.12-.06-.24-.13-.34-.22-.52-.46-.81-1.16-.78-1.85Z" style="fill:#222272;"/><path d="m18.6,23.86c-.54.07-.91.09-1.62-.08-.53-.13-.93-.35-1.53-1.08-.43-.53-.52-.78-.62-1.72-.1-.88.12-2.44.47-2.73.41,1.05,1.46,1.63,2.29,1.66.83.03,1.74-.27,2.49-.64.67-.34.82-.5,1.42-.84.21,1.53-.04,2.68-.77,4.05-.18.34-.54.66-.85.89-.4.3-.78.43-1.28.49Z" style="fill:#222272;"/><path d="m27.8,20.12c.81-.1,1.7-.64,2.19-1.29s.81-1.29.98-2.09c.18-.91.02-2.01-.39-2.84-.19-.39-.46-.73-.74-1.06-.45-.55-.9-1.1-1.42-1.6-1.14-1.09-2.58-1.88-4.12-2.25-.9-.21-1.89-.28-2.71.15-.17.09-.33.2-.43.36-.12.18-.15.39-.17.6-.38,3.31,1.13,6.57,3.18,8.72.26.27.91.76,1.24.93,1.3.67,1.91.42,2.39.36Z" style="fill:#222272;"/><path d="m24.5,3.28c.21.1.37.28.51.46,1.08,1.35,1.91,2.91,2.41,4.56-.93.16-1.87.09-2.81.04-1.51-.06-3.03-.03-4.54,0-1.8.04-3.6.08-5.4.12-.23,0-.5-.01-.63-.2-.17-.26.05-.59.26-.82.9-1,1.71-2.45,2.37-3.62.08-.15.17-.3.32-.39.1-.06.34-.09.34-.09,2.68-.07,4.33-.13,6.51-.15.22,0,.45,0,.66.09Z" style="fill:#222272;"/><g style="clip-path:url(#clippath-3);"><path d="m16.17,14.84c-.61.39-1.21.74-1.73,1.26-.51.52-.92,1.3-1.21,1.96-.03.07.05.15.11.09.46-.41.72-1.04,1.07-1.54.47-.68,1.24-1.1,1.8-1.7.03-.03,0-.09-.05-.06h0Z" style="fill:#b70027;"/><path d="m16.25,15.19c-.66.66-2.01,1.36-1.96,2.46,0,.1.12.16.2.08.34-.36.51-.85.84-1.22.37-.42.79-.71,1.05-1.22.04-.08-.06-.17-.13-.1h0Z" style="fill:#b70027;"/></g><g style="clip-path:url(#clippath-4);"><path d="m16.36,15.12c.43.6,1.2.96,1.75,1.46.35.32.7.66,1.02,1.01.32.35.52.78.84,1.12.05.05.16.02.15-.06-.07-.73-.7-1.37-1.19-1.88-.33-.35-.73-.65-1.11-.94-.41-.32-.95-.48-1.33-.81-.07-.06-.18.02-.13.1h0Z" style="fill:#b70027;"/><path d="m15.94,15.69c.55.31.94.81,1.39,1.25.5.49,1.05.92,1.45,1.51.04.06.12.02.11-.04-.13-.7-.58-1.2-1.11-1.65-.55-.47-1.07-.98-1.75-1.24-.11-.04-.17.13-.08.18h0Z" style="fill:#b70027;"/></g><g style="clip-path:url(#clippath-5);"><path d="m14.79,18.06c1.38.39.03,2.37-.19,3.08-.25.83.58,1.97.77,2.74.03.11.2.11.23,0,.13-.58-.04-1-.29-1.54-.33-.7-.34-1.26.11-1.94.13-.2.35-.42.37-.68.04-.67-.04-1.96-.98-1.86-.1.01-.13.16-.03.19h0Z" style="fill:#b70027;"/><path d="m15.8,18.38c.31.62.64,1.46.26,2.12-.19.32-.52.6-.54,1-.03.49.12.88.36,1.31.53.97.33,1.53.1,2.53-.03.14.12.21.22.13.5-.41.68-.94.69-1.58.02-.97-1.24-1.69-.64-2.7.35-.59.59-.86.5-1.57-.08-.57-.24-1.14-.8-1.4-.1-.05-.21.05-.15.15h0Z" style="fill:#b70027;"/><path d="m16.92,18.77c.28.47.4,1.09.31,1.64-.08.51-.4.87-.42,1.41-.02.36.26.76.42,1.04.6,1.03.39,1.69.08,2.75-.04.12.1.23.21.16.51-.32.77-.85.77-1.47,0-1-1.12-2.01-.86-2.95.16-.58.83-2.69-.45-2.67-.05,0-.09.06-.06.1h0Z" style="fill:#b70027;"/><path d="m18,18.94c.46.9.22,1.21-.03,2.06-.08.26-.17.55-.05.81.24.52.64.94.95,1.43.47.75-.11,1.28-.11,1.97,0,.11.13.19.23.13,1.01-.65.82-1.82.26-2.71-.12-.2-.33-.43-.47-.61-.5-.63-.04-1.15.06-1.75.1-.6-.22-1.1-.66-1.45-.1-.08-.24.02-.18.14h0Z" style="fill:#b70027;"/><path d="m19.15,18.8c.37.84.31,1.45.15,2.31-.05.28.04.53.14.78.09.24.27.46.43.65.6.73.67,1.2.62,2.11,0,.17.23.27.35.14.72-.81.31-1.69-.32-2.45-.61-.75-.62-1.25-.51-2.15.08-.58-.37-1.11-.76-1.47-.06-.06-.14.01-.11.08h0Z" style="fill:#b70027;"/><path d="m20.04,18.44c.65.85.07,1.95.57,2.88.3.56.84,1.33,1.55,1.21.07-.01.12-.1.1-.17-.08-.27-.22-.41-.42-.6-.4-.38-.68-.8-.83-1.34-.23-.79-.1-1.53-.78-2.11-.09-.08-.27.03-.18.14h0Z" style="fill:#b70027;"/><path d="m21.05,18.32c-.1.79.51,2.26,1.44,2.3.08,0,.17-.09.13-.18-.31-.77-1.16-1.31-1.28-2.17-.03-.18-.27-.11-.29.04h0Z" style="fill:#b70027;"/></g><g style="clip-path:url(#clippath-6);"><path d="m26.08,44.3c-1.38-.39-.03-2.37.19-3.08.25-.83-.58-1.97-.77-2.74-.03-.11-.2-.11-.23,0-.13.58.04,1,.29,1.54.33.7.34,1.26-.11,1.94-.13.2-.35.42-.37.68-.04.67.04,1.96.98,1.86.1-.01.14-.16.03-.19h0Z" style="fill:#b70027;"/><path d="m25.07,43.98c-.31-.62-.64-1.46-.26-2.12.19-.32.52-.6.54-1,.03-.49-.12-.88-.36-1.31-.53-.97-.33-1.53-.1-2.53.03-.14-.12-.22-.23-.13-.5.42-.68.94-.69,1.58-.02.97,1.24,1.69.64,2.7-.35.58-.59.86-.5,1.57.08.58.24,1.14.8,1.4.1.05.21-.05.15-.15h0Z" style="fill:#b70027;"/><path d="m23.95,43.6c-.28-.47-.4-1.09-.32-1.64.08-.51.4-.87.42-1.41.02-.36-.26-.76-.42-1.04-.6-1.03-.39-1.69-.08-2.74.04-.12-.1-.23-.21-.16-.51.32-.77.85-.77,1.48,0,1,1.12,2.01.86,2.95-.16.58-.83,2.69.45,2.68.05,0,.09-.06.06-.11h0Z" style="fill:#b70027;"/><path d="m22.88,43.43c-.46-.9-.22-1.21.03-2.06.08-.26.17-.55.05-.81-.24-.52-.64-.94-.95-1.42-.47-.75.11-1.28.11-1.97,0-.11-.13-.19-.23-.13-1.01.65-.82,1.82-.26,2.71.12.2.33.43.47.61.5.63.04,1.15-.06,1.76-.1.6.22,1.1.66,1.45.1.08.24-.02.17-.14h0Z" style="fill:#b70027;"/><path d="m21.73,43.57c-.37-.84-.31-1.45-.16-2.31.05-.28-.04-.53-.14-.78-.09-.24-.27-.46-.43-.65-.6-.73-.67-1.2-.62-2.11,0-.18-.23-.27-.35-.14-.72.81-.31,1.68.32,2.45.61.75.63,1.25.51,2.15-.08.58.37,1.11.76,1.47.06.06.14-.01.11-.08h0Z" style="fill:#b70027;"/><path d="m20.83,43.92c-.65-.85-.07-1.95-.57-2.88-.3-.56-.83-1.33-1.55-1.21-.08.01-.12.1-.1.17.08.27.22.41.42.6.41.38.68.8.83,1.34.23.79.11,1.53.79,2.11.09.08.27-.03.18-.14h0Z" style="fill:#b70027;"/><path d="m19.83,44.04c.1-.79-.51-2.26-1.44-2.3-.08,0-.17.09-.14.18.31.77,1.16,1.31,1.28,2.17.03.18.27.11.29-.04h0Z" style="fill:#b70027;"/></g><g style="clip-path:url(#clippath-7);"><path d="m20.02,10.2c1.35-.55,1.3,2.15,1.23,2.74-.1.78-.11,1.45.21,2.17.28.63.93,1.11,1.38,1.61.92,1.03.49,2.3.24,3.47-.03.13.13.24.23.13.68-.71.62-1.87.46-2.78-.19-1.12-1.37-1.76-1.92-2.67-.73-1.2.26-2.8-.35-4.11-.33-.69-.8-1.25-1.55-.76-.09.06-.03.22.08.18h0Z" style="fill:#b70027;"/><path d="m20.62,8.95c1.78.47,1.73,2.45,1.52,3.91-.14,1,.12,1.62.97,2.14.55.34,1.08.66,1.44,1.22.55.85.16,1.95-.05,2.83-.25,1.05.26,2.08,1.12,2.67.1.07.2-.06.16-.16-.52-1.12-.87-1.8-.53-3.07.16-.6.17-1.19.08-1.8-.15-1.05-1.09-1.69-1.93-2.18-1.32-.78-.5-2.73-.82-4.03-.23-.94-.89-1.83-1.93-1.7-.08.01-.12.13-.02.16h0Z" style="fill:#b70027;"/><path d="m22.43,8.51c1.52.5,1.14,2.71,1.09,3.9-.05,1.2.74,1.62,1.54,2.35,2.17,1.98-1.04,5.43,1.74,7.01.2.11.41-.11.31-.31-.53-.98-1.09-1.5-.79-2.74.19-.78.3-1.41.22-2.21-.11-1.11-.66-1.91-1.51-2.59-.8-.63-.94-1.13-.89-2.11.03-.59,0-1.14-.11-1.72-.17-.9-.59-1.67-1.55-1.79-.13-.02-.14.18-.03.21h0Z" style="fill:#b70027;"/><path d="m24.38,8.47c1.36,1.08.23,2.73.53,4.11.12.54.76,1.01,1.15,1.34.73.61,1.21,1.12,1.51,2.05.5,1.54-.2,2.8-.39,4.29-.13,1.02.58,1.85,1.54,2.06.22.05.4-.22.23-.39-.66-.66-1.13-1.07-.94-2.07.11-.59.37-1.16.45-1.76.17-1.32-.11-2.72-.91-3.81-.39-.53-1.01-.9-1.5-1.33-.78-.69-.4-1.74-.43-2.63-.02-.75-.25-1.89-1.14-2.01-.08-.01-.17.09-.09.15h0Z" style="fill:#b70027;"/><path d="m26.5,8.61c-.17.93-.42,2.03.01,2.93.49,1.02,1.49,1.55,2.07,2.49.81,1.29.56,3.24.17,4.61-.23.8-.3,1.56.25,2.22.09.11.28.02.28-.11-.07-1.19.23-2.12.43-3.28.16-.94.05-2.02-.17-2.94-.22-.89-.83-1.54-1.49-2.13-.7-.63-1.12-1.19-1.2-2.17-.05-.55-.03-1.07-.13-1.61-.02-.1-.19-.1-.21,0h0Z" style="fill:#b70027;"/><path d="m27.59,8.72c-.34,2.05,1.42,3.09,2.45,4.6,1.03,1.5,0,3.17.14,4.79.08.91.54,2.07,1.34,2.56.15.09.38-.03.36-.21-.04-.49-.2-.77-.43-1.21-.44-.87-.49-1.67-.3-2.61.21-1.08.41-2.23-.11-3.26-.89-1.73-2.79-2.64-3.18-4.65-.03-.13-.24-.13-.26,0h0Z" style="fill:#b70027;"/></g><path d="m15.38,10.03c.15.07.31.1.47.09,3.3-.16,6.36-.21,9.68-.17.48,0,.86-.18,1.2-.53.33-.34.83-.94.74-1.35-.11-.51-.66-.37-1.46-.43-1.13-.08-3-.03-4.14-.04-2.91-.01-4.45.02-7.59.16-.38.02-.46.29-.46.67,0,.15.07.29.18.4.37.34.74.68,1.11,1.03.08.07.16.13.26.17h0Z" style="fill:#191956;"/><path d="m13.5,22.34s.01,0,.02,0c.14.05.3-.11.25-.25,0,0,0-.01,0-.02-.05-.15-.23-.22-.36-.09-.12.12-.05.3.09.36h0Z" style="fill:#f70032;"/><path d="m14.11,23.22c.34,0,.34-.52,0-.52s-.34.52,0,.52h0Z" style="fill:#f70032;"/><path d="m14.77,23.98c.31,0,.31-.48,0-.48s-.31.48,0,.48h0Z" style="fill:#f70032;"/><path d="m15.27,24.68s.01.03.02.04c.12.28.57.03.41-.24,0-.01-.01-.03-.02-.04-.06-.11-.22-.15-.33-.09-.12.07-.14.21-.08.33h0Z" style="fill:#f70032;"/><path d="m15.94,25.23c-.05.14.02.25.12.33.06.05.17.04.23,0,.1-.06.12-.16.11-.26,0,0,0-.01,0-.02v.13c.02-.06.01-.12,0-.18-.02-.1-.14-.18-.23-.18-.12,0-.19.08-.23.18h0Z" style="fill:#f70032;"/><path d="m16.83,26.32s.01.01.02.02c.1.11.26.09.36,0,0,0,.01-.01.02-.02.09-.08.09-.24,0-.33,0,0-.01-.01-.02-.02-.1-.09-.27-.11-.36,0,0,0-.01.01-.02.02-.09.09-.09.23,0,.32h0Z" style="fill:#f70032;"/><path d="m17.87,26.75s-.02,0-.02,0c-.08-.03-.2.01-.24.1,0,0,0,0,0,.01-.08.19.09.39.29.29.05-.02.07-.06.1-.1.07-.11,0-.25-.12-.29h0Z" style="fill:#f70032;"/><path d="m18.37,27.75s.05.05.09.07c.24.14.46-.26.21-.37h0c-.2-.18-.48.1-.3.3h0Z" style="fill:#f70032;"/><path d="m19.41,28.54c.26,0,.26-.4,0-.4s-.26.4,0,.4h0Z" style="fill:#f70032;"/><path d="m21.31,28.32s0-.01,0-.02v.12s0-.01,0-.02c.05-.15-.11-.31-.26-.26-.07.02-.12.06-.16.12-.08.13,0,.3.14.34.15.04.36-.12.29-.29h0Z" style="fill:#f70032;"/><path d="m21.91,27.96c.31,0,.31-.48,0-.48s-.31.48,0,.48h0Z" style="fill:#f70032;"/><path d="m22.53,27.3c.32,0,.32-.49,0-.49s-.32.49,0,.49h0Z" style="fill:#f70032;"/><path d="m23.16,26.52c.27,0,.27-.41,0-.41s-.27.41,0,.41h0Z" style="fill:#f70032;"/><path d="m24.1,25.52c-.04-.09-.1-.16-.2-.16-.13,0-.23.13-.2.26.03.11.14.17.25.14.09-.02.19-.14.15-.24h0Z" style="fill:#f70032;"/><path d="m24.56,25.08c.33,0,.33-.51,0-.51s-.33.51,0,.51h0Z" style="fill:#f70032;"/><path d="m25.34,24.31c.34,0,.34-.53,0-.53s-.34.53,0,.53h0Z" style="fill:#f70032;"/><path d="m25.89,23.49c.24,0,.24-.37,0-.37s-.24.37,0,.37h0Z" style="fill:#f70032;"/><path d="m26.43,22.85c.21,0,.21-.33,0-.33s-.21.33,0,.33h0Z" style="fill:#f70032;"/><path d="m27.02,22.06c.3,0,.3-.47,0-.47s-.3.47,0,.47h0Z" style="fill:#f70032;"/><path d="m18.84,10.97c.32-.07.67-.05,1-.02.29.03.94-.06.67-.52-.2-.35-.78-.28-1.11-.23-.33.04-.75.2-.8.58-.02.13.13.21.24.19h0Z" style="fill:#0c0a35;"/><path d="m19.78,13.7c.19-.19-.11.13-.14.16-.05.08-.08.18-.1.27-.04.17-.03.35-.01.52.04.47.23.9.69,1.08.56.21,1.12-.53.78-1.02-.04-.06-.09-.12-.14-.18.15.19.05.07.02,0-.07-.13.06.16,0,.02-.02-.06-.04-.11-.06-.17-.05-.13-.08-.27-.15-.4-.02-.04-.04-.08-.07-.12-.01-.02-.33-.37-.14-.16-.18-.2-.51-.18-.7,0h0Z" style="fill:#f70032;"/><path d="m17.44,3.9c-.35.39-.6.86-.86,1.31-.27.46-.56,1.04-.43,1.58.1.42.72.5.93.12.24-.43.32-1,.48-1.47.16-.48.3-.95.21-1.45-.03-.14-.23-.19-.32-.08h0Z" style="fill:#f70032;"/><path d="m18.95,3.85c-.41.48-.51,1.17-.65,1.76-.12.53-.27,1.14.22,1.51.24.18.68.06.81-.21.17-.36.1-.84.12-1.24.04-.57.02-1.18-.14-1.73-.04-.14-.25-.22-.36-.09h0Z" style="fill:#f70032;"/><path d="m20.62,3.85c-.38.87-.43,2.01-.44,2.95,0,.77,1.17.76,1.19,0,.03-.93.02-2.08-.36-2.95-.07-.15-.33-.15-.39,0h0Z" style="fill:#f70032;"/><path d="m22.01,3.83c-.13.44-.04.88.02,1.32.07.52.15,1.05.25,1.57.12.68,1.17.5,1.17-.16,0-.91-.47-2.18-1.14-2.81-.1-.09-.26-.05-.3.08h0Z" style="fill:#f70032;"/><path d="m23.74,3.99c-.2.57.29,1.2.48,1.72.17.46.21,1.18.82,1.28.44.07.77-.25.69-.69-.06-.34-.36-.8-.55-1.09-.28-.43-.74-1.09-1.21-1.31-.1-.05-.21,0-.24.1h0Z" style="fill:#f70032;"/><path d="m16.64,6.82c.31,0,.31-.49,0-.49s-.31.49,0,.49h0Z" style="fill:#0c0a35;"/><path d="m18.79,6.94c.32,0,.32-.5,0-.5s-.33.5,0,.5h0Z" style="fill:#0c0a35;"/><path d="m20.74,7.05c.36,0,.36-.56,0-.56s-.36.56,0,.56h0Z" style="fill:#0c0a35;"/><path d="m22.77,6.83c.33,0,.33-.52,0-.52s-.33.52,0,.52h0Z" style="fill:#0c0a35;"/><path d="m25.03,6.65c.3,0,.3-.47,0-.47s-.3.47,0,.47h0Z" style="fill:#0c0a35;"/><path d="m16.03,9.5c0-.39-.14-.74-.36-1.06-.13-.18-.35-.26-.56-.15-.23.14-.26.45-.08.64.22.24.42.48.65.71.13.12.35.04.35-.14h0Z" style="fill:#0c0a35;"/><path d="m17.03,9.32c-.04-.12-.02-.28-.02-.41,0-.18,0-.38-.07-.55-.06-.16-.18-.27-.36-.27s-.4.17-.37.37c.03.2.07.4.13.6.05.2.16.34.3.49.15.18.47,0,.39-.23h0Z" style="fill:#0c0a35;"/><path d="m18.27,9.46c0,.08.03-.1.04-.13.03-.11.02-.22.03-.33.01-.18.04-.34.07-.52.03-.21-.05-.42-.27-.48-.21-.06-.42.07-.48.27-.07.23-.08.52-.04.76.02.13.05.26.13.37.04.05.07.09.12.13,0,0,.16.12.09.05.11.11.33.04.32-.13h0Z" style="fill:#0c0a35;"/><path d="m19.54,9.57c.21-.13.31-.26.37-.51.05-.24.07-.53,0-.77-.1-.37-.67-.39-.76,0-.05.23-.02.47.01.7.01.09.02.18.03.26.01.04.02.08.04.11,0,0,.07.19.05.1.03.11.16.17.26.11h0Z" style="fill:#0c0a35;"/><path d="m21.1,9.53c.18-.11.25-.27.32-.46.07-.21.18-.48.17-.69-.02-.25-.31-.49-.55-.32-.26.19-.31.48-.35.78-.03.24.01.5.2.66.06.05.14.07.21.03h0Z" style="fill:#0c0a35;"/><path d="m22.39,9.6c.11-.16.24-.3.34-.48.1-.18.2-.35.29-.53.06-.12.08-.26,0-.38,0-.01-.02-.03-.03-.04-.09-.12-.2-.16-.34-.14-.31.04-.39.42-.48.67-.1.27-.13.51-.15.8-.02.21.28.26.37.1h0Z" style="fill:#0c0a35;"/><path d="m23.96,9.56s.12-.11.02-.03c.06-.04.1-.08.13-.13.06-.09.12-.19.17-.29.12-.21.3-.43.32-.67.02-.24-.25-.44-.47-.36-.29.1-.42.42-.51.69-.08.23-.12.55.04.76.08.11.2.12.31.04h0Z" style="fill:#0c0a35;"/><path d="m25.56,9.56s.02-.01.03-.02c-.06,0-.12.02-.18.02.25.04.46-.15.62-.31.22-.22.5-.4.52-.73.01-.21-.15-.34-.32-.42-.38-.16-.74.26-.89.55-.12.23-.26.64-.03.85-.02-.05-.05-.11-.07-.16,0,.01,0,.02,0,.04.02.15.17.27.32.18h0Z" style="fill:#0c0a35;"/><path d="m16.96,5.91c.36,0,.36-.55,0-.55s-.36.55,0,.55h0Z" style="fill:#0c0a35;"/><path d="m17.23,5.09c.26,0,.26-.4,0-.4s-.26.4,0,.4h0Z" style="fill:#0c0a35;"/><path d="m18.79,6.02c.34,0,.34-.53,0-.53s-.34.53,0,.53h0Z" style="fill:#0c0a35;"/><path d="m18.83,5.19c.28,0,.28-.43,0-.43s-.28.43,0,.43h0Z" style="fill:#0c0a35;"/><path d="m20.74,6.01c.28,0,.28-.43,0-.43s-.27.43,0,.43h0Z" style="fill:#0c0a35;"/><path d="m20.66,5.2c.3,0,.3-.46,0-.46s-.3.46,0,.46h0Z" style="fill:#0c0a35;"/><path d="m22.79,5.54s-.01-.01-.02-.02c-.09-.08-.22-.08-.31,0,0,0-.01.01-.02.02-.16.15-.04.42.17.42s.33-.27.17-.42h0Z" style="fill:#0c0a35;"/><path d="m22.34,5.12c.24,0,.24-.36,0-.36s-.24.36,0,.36h0Z" style="fill:#0c0a35;"/><path d="m24.8,5.51c-.27,0-.29.4-.02.4.25,0,.26-.41.02-.4h0Z" style="fill:#0c0a35;"/><path d="m24.44,5.26c.33,0,.33-.5,0-.5s-.33.5,0,.5h0Z" style="fill:#0c0a35;"/><path d="m20.06,25.67c0,.32-.03.64-.02.96,0,.26,0,.64.29.76.09.04.17.02.23-.06.16-.22.05-.53,0-.77-.05-.32-.09-.63-.16-.94-.04-.2-.35-.15-.35.05h0Z" style="fill:#990028;"/><path d="m18.84,24.93c-.11.18-.19.36-.29.55-.09.18-.21.37-.25.57-.05.28.34.49.48.2.1-.19.16-.39.25-.59.09-.2.17-.42.16-.64,0-.19-.25-.26-.36-.1h0Z" style="fill:#990028;"/><path d="m17.67,24.37c-.21.12-.45.27-.53.51-.06.18.14.29.29.22.18-.08.3-.26.45-.37.21-.16.03-.51-.21-.37h0Z" style="fill:#990028;"/><path d="m21.42,25.02c0,.18.09.37.16.54.1.25.21.47.48.57.21.08.39-.15.34-.34-.05-.2-.19-.38-.31-.55-.12-.18-.28-.38-.51-.38-.09,0-.16.07-.16.16h0Z" style="fill:#990028;"/><path d="m22.39,24.14c.09.2.24.37.41.51.08.07.17.13.26.19.13.08.24.07.39.07.21,0,.34-.27.18-.42-.08-.08-.13-.15-.24-.21-.09-.05-.17-.1-.26-.15-.16-.11-.32-.22-.5-.29-.19-.07-.3.16-.24.31h0Z" style="fill:#990028;"/><path d="m23.45,23.27c.12.12.27.2.4.3.06.05.13.1.2.14.09.06.18.07.29.1.22.05.35-.2.21-.36-.07-.08-.12-.15-.21-.22-.08-.06-.17-.1-.26-.14-.17-.08-.36-.14-.54-.08-.11.04-.16.18-.07.27h0Z" style="fill:#990028;"/><path d="m24.31,22.24c.08.15.24.28.37.39.17.13.31.23.53.24.24.02.33-.29.19-.45-.12-.13-.28-.2-.43-.27-.15-.08-.35-.16-.52-.14-.12.01-.2.13-.13.24h0Z" style="fill:#990028;"/><path d="m25,21.37c.22.24.51.51.86.52.19,0,.3-.25.16-.38-.23-.22-.61-.37-.93-.36-.11,0-.16.13-.09.21h0Z" style="fill:#990028;"/><path d="m9.77,31.75c-.34.07-.22.45.11.37.33-.07.22-.45-.11-.37h0Z" style="fill:#222272;"/><path d="m8.76,32.41s.02,0,.02,0c.19.02.38-.09.33-.24-.05-.15-.28-.17-.43-.07,0,0-.01,0-.02.01-.14.09-.08.28.09.3h0Z" style="fill:#222272;"/><path d="m23.93,33.35c-.17,0-.17.18,0,.18s.17-.18,0-.18h0Z" style="fill:#222272;"/><path d="m10.06,33.27c-.25,0-.25.28,0,.28s.25-.28,0-.28h0Z" style="fill:#222272;"/><path d="m28.01,36.07c-.23-.03-.57-.1-.77.02-.06.04-.06.1,0,.14.2.12.54.05.77.02.1-.01.1-.17,0-.18h0Z" style="fill:#222272;"/><path d="m27.05,34.48c-.11-.05-.22-.08-.34-.11-.06-.02-.12-.02-.18-.03-.05-.01-.1-.02-.15-.02-.04,0-.08.03-.06.06.08.15.43.18.61.26.14.06.26-.09.13-.16h0Z" style="fill:#222272;"/><path d="m25.06,33.08c-.01-.15.01-.38-.2-.46-.09-.03-.23,0-.25.07-.04.15.11.31.23.43.07.06.24.05.23-.04h0Z" style="fill:#222272;"/><path d="m12.56,33.26c-.07-.07-.23-.31-.4-.24-.16.07.1.28.16.34.1.11.34,0,.24-.1h0Z" style="fill:#222272;"/><path d="m6.08,27.96c.61-.17-.05-4.34,2.94-5.94.54-.29,1.43-.29,1.95.05.17.11.29.25.4.39.76.96,1.08,2.06,1.1,3.14.03,1.08-.22,2.14-.53,3.18.68.2,1.39.45,1.81.87.54.55.45,1.3-.03,1.84-.48.54-1.29.91-2.15,1.15-.21.06-.43.11-.66.13-.36.03-.73-.02-1.09-.08-1.11-.17-2.22-.37-3.31-.59-.2-.04-2.11-.11-2.48-1.37-.5-1.71.22-2.25,2.05-2.78Z" style="fill:#0c0a35;"/><path d="m20.21,29.12s.02,0,.02.01c.2.09.42-.09.31-.26,0,0,0-.01-.01-.02-.07-.11-.26-.13-.36-.04-.11.09-.08.25.05.31h0Z" style="fill:#f70032;"/><path d="m6.66,28.41c-.77.21-1.22.67-1.46,1.22-.23.53-.23,1.45.58,1.78.43.17,1.13.01.97-.41-.14-.37-.36-.64-.34-1.03.02-.38.22-.85.69-1.07.39-.18-.03-.6-.43-.49h0Z" style="fill:#990028;"/><path d="m8.61,28.96s0,0-.01,0c-.12-.05-.28-.07-.39,0-.84.54-.85,1.75-.48,2.48.15.29.74.24.89,0,.26-.44.08-.98.03-1.45-.02-.23,0-.44.03-.66.02-.12.15-.27-.05-.36h0Z" style="fill:#990028;"/><path d="m10.05,29.29c-.14.38-.11.8-.18,1.19-.08.45-.32.84-.46,1.27-.12.39.65.5.94.27.76-.61.76-2.07.13-2.77-.1-.11-.38-.08-.43.04h0Z" style="fill:#990028;"/><path d="m11.68,29.86c.19.49.46,1.03.03,1.48-.27.28-.79.41-.73.8,0,.07.1.11.19.13.67.12,1.29-.45,1.55-.8.37-.5-.03-1.36-.59-1.73-.16-.11-.52-.06-.44.13h0Z" style="fill:#990028;"/><path d="m9.89,22.84c.22.02.25-.27.04-.29-.22-.02-.25.27-.04.29h0Z" style="fill:#f70032;"/><path d="m8.99,23.44c.32.03.38-.4.05-.43-.32-.03-.38.4-.05.43h0Z" style="fill:#f70032;"/><path d="m10.17,23.72c.19.02.22-.23.03-.25-.19-.02-.22.23-.03.25h0Z" style="fill:#f70032;"/><path d="m8.21,24.33c.03.06.07.09.14.12.13.06.31-.07.28-.19,0,0,0,0,0-.01,0,.03,0,.06-.01.1,0,0,0-.01.01-.02.06-.11-.05-.24-.18-.26-.17-.01-.29.13-.22.27h0Z" style="fill:#f70032;"/><path d="m7.91,25.41s.02,0,.03,0c.13-.03.15-.22.03-.28,0,0-.02,0-.03-.01-.13-.06-.31-.02-.33.12-.02.15.15.22.29.18h0Z" style="fill:#f70032;"/><path d="m9.67,25.45c-.07.01-.12.03-.16.08-.12.13.06.32.23.25,0,0,.01,0,.02,0-.05,0-.1,0-.15,0,0,0,.01,0,.02,0,.13.03.26-.02.27-.14.01-.11-.1-.21-.23-.19h0Z" style="fill:#f70032;"/><path d="m10.47,24.8c.22.02.25-.27.04-.28-.22-.02-.25.27-.04.28h0Z" style="fill:#f70032;"/><path d="m10.95,23.99s.01,0,.02.01c.14.09.33-.04.25-.18,0,0,0-.01-.01-.02-.12-.22-.5.03-.27.18h0Z" style="fill:#f70032;"/><path d="m10.75,23.02s0,.02,0,.03c.02.14.28.16.33.03,0,0,0-.02.01-.03.09-.24-.37-.28-.34-.03h0Z" style="fill:#f70032;"/><path d="m11.32,25.43s0,.08.03.12c.09.13.36.09.32-.08,0-.02,0-.03-.01-.05-.04-.16-.32-.16-.34,0h0Z" style="fill:#f70032;"/><path d="m11.08,26.86h.02c.12,0,.19-.05.22-.15,0,0,0-.01,0-.02.05-.16-.22-.26-.35-.16-.13.09-.08.33.12.33h0Z" style="fill:#f70032;"/><path d="m9.14,26.88c.04.06.08.1.15.12.16.05.32-.06.3-.2,0,0,0,0,0-.01-.01.05-.03.1-.04.15,0,0,0,0,0-.01.09-.13.03-.31-.17-.32-.17-.02-.34.15-.25.29h0Z" style="fill:#f70032;"/><path d="m7.9,26.91c.28.03.33-.34.05-.37-.28-.02-.33.34-.05.37h0Z" style="fill:#f70032;"/><path d="m6.73,27.8s0,.02,0,.03c0,.16.33.19.37.03,0-.01,0-.02.01-.03.08-.27-.4-.31-.39-.03h0Z" style="fill:#f70032;"/><path d="m8.17,28.4c.1.1.22.13.36.09.14-.05.17-.2.08-.3-.02-.02-.05-.04-.06-.05-.21-.2-.59.06-.38.26h0Z" style="fill:#f70032;"/><path d="m9.74,27.89s0,0,0,0c.16.05.33-.12.2-.23-.04-.03-.07-.05-.12-.08-.25-.11-.37.31-.09.31h0Z" style="fill:#f70032;"/><path d="m11.09,27.71c.2.02.23-.25.03-.27-.2-.02-.23.25-.03.27h0Z" style="fill:#f70032;"/><path d="m11.37,28.98c.31.03.36-.38.05-.41-.31-.03-.36.38-.05.41h0Z" style="fill:#f70032;"/><path d="m9.7,28.54c.08.08.18.12.31.11.21-.03.25-.25.1-.36,0-.01-.02-.02-.03-.02-.21-.2-.59.06-.38.26h0Z" style="fill:#f70032;"/><path d="m8.67,26.38s.01,0,.02,0c.18-.04.26-.23.09-.34,0,0-.01,0-.02-.01-.12-.08-.3-.03-.35.09-.06.13.08.3.25.26h0Z" style="fill:#f70032;"/><path d="m9.18,29.3s0,.02,0,.03c0,.15.31.18.36.03,0-.01,0-.02,0-.03.08-.26-.38-.3-.37-.03h0Z" style="fill:#f70032;"/><path d="m5.79,29.97c.3.03.34-.3.04-.33-.3-.03-.34.3-.04.33h0Z" style="fill:#f70032;"/><path d="m8.04,30.52c.22.02.25-.23.03-.25-.22-.02-.25.23-.03.25h0Z" style="fill:#f70032;"/><path d="m10.5,30.79s.02,0,.03,0c.13-.03.15-.17.03-.23,0,0-.02,0-.03-.01-.13-.06-.32-.02-.33.1-.01.11.15.19.3.15h0Z" style="fill:#f70032;"/><path d="m12.33,31.35c.3.03.34-.3.04-.32-.3-.03-.34.3-.04.32h0Z" style="fill:#f70032;"/><path d="m14.16,28.82c.17,0,.17-.18,0-.18s-.17.18,0,.18h0Z" style="fill:#222272;"/><path d="m16.01,27.51c.05.15.07.36.24.44.05.02.11,0,.11-.05,0-.15-.1-.3-.16-.43-.04-.1-.22-.06-.19.04h0Z" style="fill:#222272;"/><path d="m12.91,27.41c.16.13.42.22.64.19.05,0,.08-.07.05-.1-.11-.15-.34-.14-.48-.26-.14-.11-.34.07-.21.18h0Z" style="fill:#222272;"/><path d="m17.65,28.97c.23.03.57.1.77-.02.06-.04.06-.1,0-.14-.21-.12-.54-.05-.77-.02-.11.01-.11.17,0,.18h0Z" style="fill:#222272;"/><path d="m15.44,25.85c-.07.08-.15.15-.22.23-.04.04-.07.08-.1.12-.04.06-.06.1-.09.16-.05.11.13.23.24.16.05-.03.1-.04.14-.09.05-.05.09-.1.12-.16.06-.11.09-.22.11-.34.01-.09-.12-.19-.2-.1h0Z" style="fill:#222272;"/><path d="m14.74,30.19c.11.05.22.08.34.11.06.02.12.02.18.03.05,0,.1.02.15.02.04,0,.08-.03.06-.06-.08-.15-.43-.18-.6-.26-.14-.06-.26.09-.13.16h0Z" style="fill:#222272;"/><path d="m14.7,31.33c.01.15-.01.38.2.46.09.03.23,0,.25-.07.04-.15-.11-.31-.23-.43-.07-.06-.24-.05-.23.04h0Z" style="fill:#222272;"/><path d="m30.57,27.42c-.02.17,0,.63.3.61.15,0,.13-.17.11-.26-.03-.12-.1-.23-.11-.35-.01-.16-.27-.16-.29,0h0Z" style="fill:#222272;"/><g><path d="m20.56,31.19c-.17.18-.17.44-.19.65-.02.21-.09.56.19.7.21.1.46-.07.4-.22-.02-.06-.03-.08-.04-.17-.01-.13-.01-.26-.01-.39,0-.18,0-.42-.16-.57-.05-.05-.15-.02-.19.02h0Z" style="fill:#f70032;"/><path d="m20.86,31.37c.13.02.24.07.37.08.15.02.28.02.43,0,.14-.02.22-.14.19-.24-.04-.11-.19-.15-.33-.13-.11.01-.21.02-.32.03-.12,0-.22.04-.33.06-.14.02-.14.17,0,.2h0Z" style="fill:#f70032;"/><path d="m20.45,31.22c-.28-.07-.64-.13-.93-.09-.2.03-.2.26,0,.29.28.05.66.04.93-.03.12-.03.11-.14,0-.17h0Z" style="fill:#f70032;"/><path d="m20.68,32.1c-.09,0-.17.06-.17.13s.08.13.17.13.17-.06.17-.13-.08-.13-.17-.13h0Z" style="fill:#990028;"/><path d="m21.69,31.23s0,0,0,0c-.03-.05-.13-.07-.2-.06-.09.02-.15.09-.12.15,0,0,0,0,0,0,.03.06.12.1.21.09.04,0,.08-.03.1-.06.03-.04.03-.08,0-.12h0Z" style="fill:#990028;"/><path d="m21.29,31.22s-.01-.01-.03-.02c-.05-.02-.1.02-.08.05,0,0,0,0,0,0,0-.01,0-.02,0-.03,0,0,0,0,0,0,0,.03.02.05.06.05.05,0,.07-.03.05-.06h0Z" style="fill:#990028;"/><path d="m19.62,31.19c-.07,0-.13.04-.13.09s.06.09.13.09.13-.04.13-.09-.06-.09-.13-.09h0Z" style="fill:#990028;"/><path d="m20.72,31.33c.17-.18.17-.44.19-.65.02-.21.1-.56-.18-.7-.21-.1-.46.07-.41.22.02.06.03.08.04.17.01.13.01.26.01.39,0,.18,0,.42.16.57.05.04.15.02.19-.02h0Z" style="fill:#f70032;"/><path d="m20.61,30.33c.1,0,.17-.06.17-.12s-.08-.13-.17-.13-.17.06-.17.13.08.12.17.12h0Z" style="fill:#990028;"/><path d="m20.67,31.91c.08,0,.08-.09,0-.09s-.08.09,0,.09h0Z" style="fill:#990028;"/><path d="m19.92,31.34c.08,0,.08-.09,0-.09s-.08.09,0,.09h0Z" style="fill:#990028;"/></g><g><path d="m25.66,27.56c-.17.18-.17.44-.19.65-.02.21-.09.56.18.7.21.1.46-.07.41-.22-.02-.06-.03-.08-.04-.17-.01-.13-.01-.26-.01-.39,0-.18,0-.42-.16-.57-.05-.04-.15-.02-.19.02h0Z" style="fill:#f70032;"/><path d="m25.96,27.74c.13.02.24.07.37.08.15.02.28.02.43,0,.14-.02.22-.14.19-.24-.04-.11-.18-.15-.33-.13-.11.01-.21.02-.32.03-.12.01-.22.04-.33.06-.14.02-.14.17,0,.2h0Z" style="fill:#f70032;"/><path d="m25.55,27.59c-.28-.08-.64-.13-.93-.09-.2.03-.2.26,0,.29.28.04.66.04.93-.03.12-.03.11-.14,0-.17h0Z" style="fill:#f70032;"/><path d="m25.78,28.47c-.1,0-.17.06-.17.13s.08.13.17.13.17-.06.17-.13-.08-.13-.17-.13h0Z" style="fill:#990028;"/><path d="m26.79,27.6s0,0,0,0c-.03-.05-.12-.07-.19-.06-.09.02-.15.09-.12.15,0,0,0,0,0,0,.03.06.12.1.21.09.04,0,.08-.03.1-.06.03-.04.03-.08,0-.13h0Z" style="fill:#990028;"/><path d="m26.39,27.59s-.01-.01-.03-.02c-.05-.02-.1.02-.08.05,0,0,0,0,0,0,0-.01,0-.02,0-.03h0s.02.06.06.06c.05,0,.07-.04.05-.06h0Z" style="fill:#990028;"/><path d="m24.72,27.56c-.07,0-.13.04-.13.09s.06.09.13.09.13-.04.13-.09-.06-.09-.13-.09h0Z" style="fill:#990028;"/><path d="m25.82,27.7c.17-.18.17-.44.19-.65.02-.21.09-.56-.19-.7-.21-.1-.46.07-.4.22.02.06.03.08.04.17.01.13.01.26.01.39,0,.18,0,.42.16.57.05.05.15.02.19-.02h0Z" style="fill:#f70032;"/><path d="m25.71,26.7c.1,0,.17-.06.17-.12s-.08-.13-.17-.13-.17.06-.17.13.08.12.17.12h0Z" style="fill:#990028;"/><path d="m25.77,28.28c.08,0,.08-.09,0-.09s-.08.09,0,.09h0Z" style="fill:#990028;"/><path d="m25.03,27.71c.08,0,.08-.09,0-.09s-.08.09,0,.09h0Z" style="fill:#990028;"/></g><g><path d="m15.53,34.84c-.17.18-.17.44-.19.65-.01.21-.09.56.19.69.21.1.46-.07.41-.22-.02-.06-.04-.08-.05-.17-.01-.13-.01-.26-.01-.39,0-.18,0-.42-.16-.57-.05-.05-.15-.02-.19.02h0Z" style="fill:#f70032;"/><path d="m15.83,35.02c.13.02.24.07.37.08.15.02.28.02.43,0,.14-.02.22-.14.19-.24-.04-.11-.18-.15-.33-.13-.11.01-.21.02-.32.03-.12,0-.22.04-.33.06-.14.02-.14.17,0,.2h0Z" style="fill:#f70032;"/><path d="m15.41,34.87c-.28-.08-.64-.13-.93-.09-.2.03-.2.26,0,.29.29.04.66.04.93-.03.12-.03.11-.14,0-.17h0Z" style="fill:#f70032;"/><path d="m15.65,35.75c-.09,0-.17.06-.17.12s.08.13.17.13.17-.06.17-.13-.08-.12-.17-.12h0Z" style="fill:#990028;"/><path d="m16.65,34.87s0,0,0,0c-.03-.05-.13-.07-.2-.06-.09.02-.15.09-.12.15,0,0,0,0,0,0,.03.07.12.11.21.09.04,0,.08-.03.1-.06.03-.04.03-.08,0-.13h0Z" style="fill:#990028;"/><path d="m16.25,34.87s-.01-.01-.03-.02c-.05-.02-.1.02-.08.06,0,0,0,0,0,0,0-.01,0-.02,0-.03,0,0,0,0,0,0,0,.03.02.05.06.05.05,0,.07-.04.05-.06h0Z" style="fill:#990028;"/><path d="m14.58,34.84c-.07,0-.13.04-.13.09s.06.09.13.09.13-.04.13-.09-.06-.09-.13-.09h0Z" style="fill:#990028;"/><path d="m15.68,34.98c.17-.18.17-.44.19-.65.02-.21.09-.56-.19-.7-.21-.1-.46.07-.41.22.02.06.03.08.04.17.01.13.01.26.01.39,0,.18,0,.42.16.57.05.05.15.02.19-.02h0Z" style="fill:#f70032;"/><path d="m15.57,33.98c.1,0,.17-.06.17-.13s-.08-.13-.17-.13-.17.06-.17.13.08.13.17.13h0Z" style="fill:#990028;"/><path d="m15.63,35.56c.08,0,.08-.09,0-.09s-.08.09,0,.09h0Z" style="fill:#990028;"/><path d="m14.89,34.99c.08,0,.08-.09,0-.09s-.08.09,0,.09h0Z" style="fill:#990028;"/></g><path d="m27.22,25.43c.46-.52,1.04-.88,1.58-1.31.51-.41.95-.85,1.52-1.17.41-.24.13-.96-.33-.78-.65.25-1.1.79-1.6,1.26-.57.54-1.12,1.05-1.53,1.73-.13.22.18.47.35.27h0Z" style="fill:#990028;"/><path d="m27.61,26.66c.72-.39,1.36-.86,2.04-1.31.51-.34,1.51-.64,1.68-1.28.03-.1-.03-.18-.12-.22-.64-.23-1.43.51-1.92.86-.72.51-1.33,1.06-1.81,1.81-.05.09.05.18.13.13h0Z" style="fill:#990028;"/><path d="m13.12,34.98c-.7.58-1.67.88-2.45,1.34-.39.23-1.59,1.08-1.02,1.65.44.44,1.56-.68,1.91-.9.8-.51,1.44-.98,1.98-1.77.18-.27-.2-.5-.42-.32h0Z" style="fill:#990028;"/><path d="m13.25,36.83c-.93.51-2.42,1.28-2.58,2.46-.04.3.25.65.57.44.46-.32.78-.79,1.18-1.18.43-.43.81-.89,1.15-1.4.13-.2-.12-.41-.31-.31h0Z" style="fill:#990028;"/><path d="m29.08,27.19c.44.1,1.09-.25,1.34-.6.17-.24-.11-.56-.37-.48-.26.07-.46.26-.68.41-.18.12-.35.3-.38.52-.01.07.02.14.09.16h0Z" style="fill:#990028;"/></g><g><path d="m5.42,11.77c0,.1-.04.24-.04.35,0,.1,0,.2.01.31.04.35.16.68.42.91-.24.01-.83.01-1.06,0,.26-.23.39-.56.42-.91.01-.1.01-.2.01-.31s-.04-.25-.04-.35h.27Z" style="fill:#0c0a35;"/><path d="m5.35,12.02c.1.02.15.11.33.3.16.18.33.36.69.41.19.02.44-.08.55-.23.1-.13.15-.28.19-.44.08-.29.05-.58-.09-.84-.14-.26-.53-.38-.76-.24-.13.08-.17.17-.28.19-.04,0-.07-.03-.06-.06.05-.18.17-.2.23-.41.07-.25.11-.44-.25-.76-.27-.24-.94-.22-1.22,0-.29.22-.32.42-.25.67.05.2.17.29.22.45.02.06-.04.11-.09.09-.08-.03-.13-.11-.24-.18-.24-.14-.62-.03-.76.24-.14.26-.17.55-.09.84.04.15.09.31.19.44.11.15.36.25.55.23.37-.04.53-.23.69-.41.18-.19.24-.29.33-.3h.13Z" style="fill:#0c0a35;"/></g><path d="m6.47,3v4c0,.7-.16,1.18-.47,1.46-.31.27-.73.41-1.25.41-.28,0-.56-.04-.84-.12v-.59c.28.06.53.09.75.09.32,0,.56-.05.71-.14.15-.1.25-.22.3-.37.05-.15.08-.4.08-.74v-4h.72Z" style="fill:#0c0a35;"/><g><path d="m35.51,50.52c0-.1.04-.24.04-.35s0-.2-.01-.31c-.04-.35-.16-.68-.42-.91.24-.01.83-.01,1.06,0-.26.23-.38.56-.42.91-.01.1-.01.2-.01.31,0,.1.04.25.04.35h-.27Z" style="fill:#0c0a35;"/><path d="m35.58,50.27c-.1-.02-.16-.11-.33-.31-.16-.18-.32-.36-.69-.41-.19-.02-.44.08-.55.23-.1.13-.15.28-.19.44-.08.29-.05.58.1.84.14.26.53.38.76.24.13-.08.17-.17.28-.19.04,0,.07.03.06.06-.05.18-.17.2-.23.41-.07.25-.11.44.25.76.27.24.94.22,1.22,0,.29-.22.32-.42.25-.67-.05-.2-.17-.29-.22-.45-.02-.06.04-.11.09-.09.08.03.13.11.24.18.24.14.62.03.76-.24.14-.26.17-.55.09-.84-.04-.15-.09-.31-.19-.44-.11-.15-.36-.25-.55-.23-.37.05-.53.23-.69.41-.18.2-.24.29-.34.31h-.13Z" style="fill:#0c0a35;"/></g><path d="m34.46,59.29v-4c0-.7.16-1.18.47-1.46.31-.27.73-.41,1.25-.41.28,0,.56.04.84.12v.59c-.27-.06-.52-.09-.75-.09-.32,0-.56.05-.71.14-.15.1-.25.22-.3.37-.05.15-.08.4-.08.74v4h-.72Z" style="fill:#0c0a35;"/><g><path d="m14.77,59.11H6.19c-1.66,0-3-1.43-3-3.19V15.66c0-.05.04-.09.09-.09s.09.04.09.09v40.26c0,1.66,1.26,3,2.82,3h8.58c.05,0,.09.04.09.09s-.04.09-.09.09Z" style="fill:#191956;"/><path d="m32.78,59.11h-7.73c-.05,0-.09-.04-.09-.09s.04-.09.09-.09h7.73c.05,0,.09.04.09.09s-.04.09-.09.09Z" style="fill:#191956;"/><path d="m37.65,46.92c-.05,0-.09-.04-.09-.09V6.36c0-1.66-1.26-3-2.82-3h-8.47c-.05,0-.09-.04-.09-.09s.04-.09.09-.09h8.47c1.66,0,3,1.43,3,3.19v40.46c0,.05-.04.09-.09.09Z" style="fill:#191956;"/><path d="m15.8,3.36h-7.35c-.05,0-.09-.04-.09-.09s.04-.09.09-.09h7.35c.05,0,.09.04.09.09s-.04.09-.09.09Z" style="fill:#191956;"/></g></g></g></svg>