<?xml version="1.0" encoding="UTF-8"?><svg id="Layer_2" xmlns="http://www.w3.org/2000/svg" viewBox="0 0 40.93 62.29"><g id="Layer_1-2"><g><g><path d="m3.54.09h33.85c1.9,0,3.45,1.55,3.45,3.45v55.2c0,1.9-1.55,3.45-3.45,3.45H3.54c-1.9,0-3.45-1.55-3.45-3.45V3.54C.09,1.64,1.64.09,3.54.09Z" style="fill:#fff;"/><path d="m37.39,62.29H3.54c-1.95,0-3.54-1.59-3.54-3.54V3.54C0,1.59,1.59,0,3.54,0h33.85c1.95,0,3.54,1.59,3.54,3.54v55.2c0,1.95-1.59,3.54-3.54,3.54ZM3.54.19C1.69.19.19,1.69.19,3.54v55.2c0,1.85,1.5,3.36,3.36,3.36h33.85c1.85,0,3.36-1.51,3.36-3.36V3.54c0-1.85-1.51-3.36-3.36-3.36H3.54Z" style="fill:#2d2d2d;"/></g><path d="m5.38,12.71c.17-.15.35-.27.53-.4.2-.15.41-.28.57-.46.13-.15.19-.31.26-.5.06-.19.07-.6-.03-.78-.31-.5-1.17-.93-1.74.16,0,.02-.02.03-.04.03h0s-.03,0-.04-.03c-.57-1.09-1.43-.66-1.74-.16-.11.17-.1.58-.04.78.06.19.13.34.26.5.16.19.37.32.57.46.18.13.37.25.53.4.08.08.46.48.46.48,0,0,.37-.4.46-.48Z" style="fill:#d6002b;"/><path d="m35.59,49.65c-.17.15-.35.27-.53.4-.2.15-.41.28-.57.46-.13.15-.19.31-.26.5-.06.19-.07.61.04.78.31.5,1.17.93,1.74-.16,0-.02.02-.03.04-.03h0s.03,0,.04.03c.57,1.09,1.43.66,1.74.16.11-.17.1-.58.03-.78-.06-.19-.12-.34-.26-.5-.16-.19-.37-.32-.57-.46-.18-.13-.37-.25-.53-.4-.08-.08-.46-.48-.46-.48,0,0-.37.4-.46.48Z" style="fill:#d6002b;"/><g><path d="m4.07,8.21v.53H1.91v-.53h.79V3.77c-.51.53-1.04.94-1.58,1.24v-.72c.75-.4,1.34-.87,1.76-1.41h.52v5.33h.68Z" style="fill:#d6002b;"/><path d="m6.57,8.86c-.66,0-1.19-.29-1.59-.86-.4-.57-.59-1.29-.59-2.14s.19-1.54.56-2.12c.37-.58.91-.86,1.6-.86s1.26.3,1.64.9c.37.6.56,1.31.56,2.12s-.19,1.48-.57,2.08c-.38.59-.91.89-1.6.89Zm0-.57c.49,0,.85-.22,1.08-.66.23-.44.35-.99.35-1.66,0-.73-.12-1.33-.36-1.82-.24-.48-.61-.72-1.1-.72s-.84.22-1.07.66c-.23.44-.35,1.02-.35,1.74s.12,1.34.37,1.79c.25.44.61.67,1.09.67Z" style="fill:#d6002b;"/></g><g><path d="m36.86,54.08v-.54h2.16v.54h-.79v4.44c.51-.53,1.04-.95,1.58-1.24v.72c-.76.39-1.34.87-1.76,1.41h-.52v-5.33h-.68Z" style="fill:#d6002b;"/><path d="m34.37,53.42c.66,0,1.19.29,1.59.86.4.57.59,1.29.59,2.14s-.19,1.54-.56,2.12-.91.86-1.6.86-1.26-.3-1.64-.9c-.37-.6-.56-1.31-.56-2.12s.19-1.48.57-2.08c.38-.59.92-.89,1.6-.89Zm0,.57c-.49,0-.84.22-1.08.66-.23.44-.35.99-.35,1.66,0,.73.12,1.33.36,1.81.24.48.61.72,1.1.72s.84-.22,1.07-.66c.23-.44.35-1.02.35-1.74s-.12-1.34-.37-1.79c-.25-.45-.61-.67-1.09-.67Z" style="fill:#d6002b;"/></g><g><path d="m16.01,11.95c.47-.43.99-.75,1.5-1.13.56-.41,1.15-.78,1.6-1.31.37-.43.54-.86.72-1.4.18-.54.2-1.7-.1-2.18-.87-1.39-3.3-2.61-4.9.46-.02.04-.07.07-.11.07h0s-.09-.03-.12-.07c-1.6-3.07-4.03-1.85-4.9-.46-.3.48-.28,1.64-.1,2.18.18.54.35.97.72,1.4.45.53,1.04.89,1.6,1.31.51.38,1.03.71,1.5,1.13.24.21,1.29,1.34,1.29,1.34,0,0,1.05-1.13,1.29-1.34Z" style="fill:#d6002b;"/><path d="m27.49,11.95c.47-.43.99-.75,1.5-1.13.56-.41,1.15-.78,1.6-1.31.37-.43.54-.86.72-1.4.18-.54.2-1.7-.1-2.18-.87-1.39-3.3-2.61-4.9.46-.02.04-.07.07-.11.07h0s-.09-.03-.11-.07c-1.6-3.07-4.03-1.85-4.9-.46-.3.48-.28,1.64-.1,2.18.18.54.35.97.72,1.4.45.53,1.04.89,1.6,1.31.51.38,1.03.71,1.5,1.13.24.21,1.29,1.34,1.29,1.34,0,0,1.05-1.13,1.29-1.34Z" style="fill:#d6002b;"/></g><g><path d="m16.01,29.01c.47-.42.99-.75,1.5-1.13.56-.41,1.15-.78,1.6-1.31.37-.44.54-.86.72-1.4.18-.54.2-1.7-.1-2.18-.87-1.39-3.3-2.61-4.9.46-.02.04-.07.07-.11.07h0s-.09-.03-.12-.07c-1.6-3.07-4.03-1.85-4.9-.46-.3.48-.28,1.64-.1,2.18.18.54.35.97.72,1.4.45.53,1.04.89,1.6,1.31.51.38,1.03.71,1.5,1.13.24.21,1.29,1.35,1.29,1.35,0,0,1.05-1.13,1.29-1.35Z" style="fill:#d6002b;"/><path d="m27.49,29.01c.47-.42.99-.75,1.5-1.13.56-.41,1.15-.78,1.6-1.31.37-.44.54-.86.72-1.4.18-.54.2-1.7-.1-2.18-.87-1.39-3.3-2.61-4.9.46-.02.04-.07.07-.11.07h0s-.09-.03-.11-.07c-1.6-3.07-4.03-1.85-4.9-.46-.3.48-.28,1.64-.1,2.18.18.54.35.97.72,1.4.45.53,1.04.89,1.6,1.31.51.38,1.03.71,1.5,1.13.24.21,1.29,1.35,1.29,1.35,0,0,1.05-1.13,1.29-1.35Z" style="fill:#d6002b;"/></g><path d="m21.75,20.19c.47-.42.99-.75,1.5-1.13.56-.41,1.15-.78,1.6-1.31.37-.43.54-.86.72-1.4.18-.54.21-1.7-.1-2.18-.87-1.39-3.3-2.61-4.9.46-.02.04-.07.07-.11.07h0s-.09-.03-.12-.07c-1.6-3.07-4.02-1.85-4.89-.46-.3.48-.28,1.64-.1,2.18.18.54.35.97.72,1.4.45.53,1.04.9,1.6,1.31.51.38,1.03.71,1.5,1.13.24.21,1.29,1.34,1.29,1.34,0,0,1.05-1.13,1.29-1.34Z" style="fill:#d6002b;"/><g><path d="m24.92,50.52c-.47.43-.99.75-1.5,1.13-.56.41-1.15.78-1.6,1.31-.37.43-.54.86-.72,1.4-.18.54-.2,1.7.1,2.18.87,1.39,3.3,2.61,4.9-.46.02-.04.07-.07.11-.07h0s.09.03.11.07c1.6,3.07,4.03,1.85,4.9.46.3-.48.28-1.64.1-2.18-.18-.54-.35-.97-.72-1.4-.45-.53-1.04-.89-1.6-1.31-.51-.38-1.03-.71-1.5-1.13-.24-.21-1.29-1.35-1.29-1.35,0,0-1.05,1.13-1.29,1.35Z" style="fill:#d6002b;"/><path d="m13.44,50.52c-.47.43-.99.75-1.5,1.13-.55.41-1.15.78-1.6,1.31-.37.43-.54.86-.72,1.4-.18.54-.2,1.7.1,2.18.87,1.39,3.3,2.61,4.9-.46.02-.04.07-.07.12-.07h0s.09.03.11.07c1.6,3.07,4.03,1.85,4.9.46.3-.48.28-1.64.1-2.18-.18-.54-.35-.97-.72-1.4-.45-.53-1.04-.89-1.6-1.31-.51-.38-1.03-.71-1.5-1.13-.24-.21-1.29-1.35-1.29-1.35,0,0-1.05,1.13-1.29,1.35Z" style="fill:#d6002b;"/></g><g><path d="m24.92,33.46c-.47.43-.99.75-1.5,1.13-.56.41-1.15.78-1.6,1.31-.37.43-.54.86-.72,1.4-.18.54-.2,1.7.1,2.18.87,1.39,3.3,2.61,4.9-.45.02-.04.07-.07.11-.07h0s.09.03.11.07c1.6,3.07,4.03,1.85,4.9.45.3-.48.28-1.64.1-2.18-.18-.54-.35-.97-.72-1.4-.45-.53-1.04-.89-1.6-1.31-.51-.38-1.03-.71-1.5-1.13-.24-.21-1.29-1.34-1.29-1.34,0,0-1.05,1.13-1.29,1.34Z" style="fill:#d6002b;"/><path d="m13.44,33.46c-.47.43-.99.75-1.5,1.13-.55.41-1.15.78-1.6,1.31-.37.43-.54.86-.72,1.4-.18.54-.2,1.7.1,2.18.87,1.39,3.3,2.61,4.9-.45.02-.04.07-.07.12-.07h0s.09.03.11.07c1.6,3.07,4.03,1.85,4.9.45.3-.48.28-1.64.1-2.18-.18-.54-.35-.97-.72-1.4-.45-.53-1.04-.89-1.6-1.31-.51-.38-1.03-.71-1.5-1.13-.24-.21-1.29-1.34-1.29-1.34,0,0-1.05,1.13-1.29,1.34Z" style="fill:#d6002b;"/></g><path d="m19.18,42.48c-.47.42-.99.75-1.5,1.13-.56.41-1.15.78-1.6,1.31-.37.44-.54.86-.72,1.4-.18.54-.2,1.7.1,2.18.87,1.39,3.3,2.61,4.89-.46.02-.04.07-.07.12-.07h0s.09.03.11.07c1.6,3.07,4.03,1.85,4.9.46.3-.48.28-1.64.1-2.18-.18-.54-.35-.97-.72-1.4-.45-.53-1.04-.89-1.6-1.31-.51-.38-1.03-.71-1.5-1.13-.24-.21-1.29-1.34-1.29-1.34,0,0-1.05,1.13-1.29,1.34Z" style="fill:#d6002b;"/></g></g></svg>